# Blender v3.0.1 OBJ File: 'untitled.blend'
# www.blender.org
o gripper_finger_right.002_Cube.003
v 0.331554 0.003130 -0.015000
v 0.331554 0.003130 0.014886
v 0.270780 0.003240 -0.015000
v 0.270780 0.003240 0.014886
v 0.334097 0.024778 -0.015000
v 0.334097 0.024778 0.014886
v 0.259975 0.044224 -0.015000
v 0.259975 0.044224 0.014886
v 0.237536 0.022219 -0.015000
v 0.237536 0.022219 0.014886
v 0.339578 0.011430 -0.015000
v 0.339578 0.011430 0.014886
v 0.237892 0.032138 0.014886
v 0.338317 0.021367 -0.015000
v 0.237892 0.032138 -0.015000
v 0.338179 0.021367 0.014886
vt 0.625000 0.000000
vt 0.375000 0.250000
vt 0.375000 0.000000
vt 0.625000 0.390828
vt 0.375000 0.500000
vt 0.375000 0.390828
vt 0.625000 0.500000
vt 0.375000 0.750000
vt 0.625000 0.935909
vt 0.375000 1.000000
vt 0.375000 0.935909
vt 0.265828 0.500000
vt 0.265828 0.750000
vt 0.875000 0.500000
vt 0.810909 0.750000
vt 0.810909 0.500000
vt 0.734172 0.750000
vt 0.734172 0.500000
vt 0.125000 0.500000
vt 0.189091 0.750000
vt 0.125000 0.750000
vt 0.375000 0.859172
vt 0.625000 0.250000
vt 0.375000 0.314091
vt 0.625000 0.859172
vt 0.625000 0.750000
vt 0.189091 0.500000
vt 0.625000 0.314091
vt 0.625000 1.000000
vt 0.875000 0.750000
vn -0.0018 -1.0000 0.0000
vn -0.4801 0.8772 0.0000
vn 0.2538 0.9673 -0.0000
vn 0.7189 -0.6951 0.0000
vn 0.0000 -0.0000 -1.0000
vn -0.0000 0.0000 1.0000
vn 0.9920 0.1259 -0.0000
vn -0.4958 -0.8684 0.0000
vn 0.6286 0.7777 0.0029
vn -0.9994 0.0358 0.0000
vn 0.9902 0.1394 0.0046
vn 0.6412 0.7674 -0.0000
s off
f 2/1/1 3/2/1 1/3/1
f 13/4/2 7/5/2 15/6/2
f 8/7/3 5/8/3 7/5/3
f 12/9/4 1/10/4 11/11/4
f 15/12/5 5/8/5 14/13/5
f 4/14/6 12/15/6 10/16/6
f 10/16/6 16/17/6 13/18/6
f 3/19/5 11/20/5 1/21/5
f 14/22/7 12/9/7 11/11/7
f 4/23/8 9/24/8 3/2/8
f 5/8/9 16/25/9 14/22/9
f 13/18/6 6/26/6 8/7/6
f 9/27/5 14/13/5 11/20/5
f 10/28/10 15/6/10 9/24/10
f 2/1/1 4/23/1 3/2/1
f 13/4/2 8/7/2 7/5/2
f 8/7/3 6/26/3 5/8/3
f 12/9/4 2/29/4 1/10/4
f 15/12/5 7/5/5 5/8/5
f 4/14/6 2/30/6 12/15/6
f 10/16/6 12/15/6 16/17/6
f 3/19/5 9/27/5 11/20/5
f 14/22/11 16/25/11 12/9/11
f 4/23/8 10/28/8 9/24/8
f 5/8/12 6/26/12 16/25/12
f 13/18/6 16/17/6 6/26/6
f 9/27/5 15/12/5 14/13/5
f 10/28/10 13/4/10 15/6/10
