# Blender 5.0.1
# www.blender.org
mtllib nautilus_collision.mtl
o el_casa
v -0.200000 -0.200000 -0.105000
v -0.200000 -0.200000 0.105000
v -0.200000 0.200000 -0.105000
v -0.200000 0.200000 0.105000
v 0.200000 -0.200000 -0.105000
v 0.200000 -0.200000 0.105000
v 0.200000 0.200000 -0.105000
v 0.200000 0.200000 0.105000
vn -1.0000 -0.0000 -0.0000
vn -0.0000 1.0000 -0.0000
vn 1.0000 -0.0000 -0.0000
vn -0.0000 -1.0000 -0.0000
vn -0.0000 -0.0000 -1.0000
vn -0.0000 -0.0000 1.0000
vt 0.625000 0.000000
vt 0.375000 0.250000
vt 0.375000 0.000000
vt 0.625000 0.250000
vt 0.375000 0.500000
vt 0.625000 0.500000
vt 0.375000 0.750000
vt 0.625000 0.750000
vt 0.375000 1.000000
vt 0.125000 0.750000
vt 0.125000 0.500000
vt 0.875000 0.500000
vt 0.625000 1.000000
vt 0.875000 0.750000
s 1
f 2/1/1 3/2/1 1/3/1
f 4/4/2 7/5/2 3/2/2
f 8/6/3 5/7/3 7/5/3
f 6/8/4 1/9/4 5/7/4
f 7/5/5 1/10/5 3/11/5
f 4/12/6 6/8/6 8/6/6
f 2/1/1 4/4/1 3/2/1
f 4/4/2 8/6/2 7/5/2
f 8/6/3 6/8/3 5/7/3
f 6/8/4 2/13/4 1/9/4
f 7/5/5 5/7/5 1/10/5
f 4/12/6 2/14/6 6/8/6
o left_pom_plate
v -0.400000 -0.215000 -0.250000
v -0.400000 -0.215000 0.250000
v -0.400000 -0.205000 -0.250000
v -0.400000 -0.205000 0.250000
v 0.400000 -0.215000 -0.250000
v 0.400000 -0.215000 0.250000
v 0.400000 -0.205000 -0.250000
v 0.400000 -0.205000 0.250000
vn -1.0000 -0.0000 -0.0000
vn -0.0000 1.0000 -0.0000
vn 1.0000 -0.0000 -0.0000
vn -0.0000 -1.0000 -0.0000
vn -0.0000 -0.0000 -1.0000
vn -0.0000 -0.0000 1.0000
vt 0.625000 0.000000
vt 0.375000 0.250000
vt 0.375000 0.000000
vt 0.625000 0.250000
vt 0.375000 0.500000
vt 0.625000 0.500000
vt 0.375000 0.750000
vt 0.625000 0.750000
vt 0.375000 1.000000
vt 0.125000 0.750000
vt 0.125000 0.500000
vt 0.875000 0.500000
vt 0.625000 1.000000
vt 0.875000 0.750000
s 1
f 10/15/7 11/16/7 9/17/7
f 12/18/8 15/19/8 11/16/8
f 16/20/9 13/21/9 15/19/9
f 14/22/10 9/23/10 13/21/10
f 15/19/11 9/24/11 11/25/11
f 12/26/12 14/22/12 16/20/12
f 10/15/7 12/18/7 11/16/7
f 12/18/8 16/20/8 15/19/8
f 16/20/9 14/22/9 13/21/9
f 14/22/10 10/27/10 9/23/10
f 15/19/11 13/21/11 9/24/11
f 12/26/12 10/28/12 14/22/12
o right_pom_plate
v -0.400000 0.205000 -0.250000
v -0.400000 0.205000 0.250000
v -0.400000 0.215000 -0.250000
v -0.400000 0.215000 0.250000
v 0.400000 0.205000 -0.250000
v 0.400000 0.205000 0.250000
v 0.400000 0.215000 -0.250000
v 0.400000 0.215000 0.250000
vn -1.0000 -0.0000 -0.0000
vn -0.0000 1.0000 -0.0000
vn 1.0000 -0.0000 -0.0000
vn -0.0000 -1.0000 -0.0000
vn -0.0000 -0.0000 -1.0000
vn -0.0000 -0.0000 1.0000
vt 0.625000 0.000000
vt 0.375000 0.250000
vt 0.375000 0.000000
vt 0.625000 0.250000
vt 0.375000 0.500000
vt 0.625000 0.500000
vt 0.375000 0.750000
vt 0.625000 0.750000
vt 0.375000 1.000000
vt 0.125000 0.750000
vt 0.125000 0.500000
vt 0.875000 0.500000
vt 0.625000 1.000000
vt 0.875000 0.750000
s 1
f 18/29/13 19/30/13 17/31/13
f 20/32/14 23/33/14 19/30/14
f 24/34/15 21/35/15 23/33/15
f 22/36/16 17/37/16 21/35/16
f 23/33/17 17/38/17 19/39/17
f 20/40/18 22/36/18 24/34/18
f 18/29/13 20/32/13 19/30/13
f 20/32/14 24/34/14 23/33/14
f 24/34/15 22/36/15 21/35/15
f 22/36/16 18/41/16 17/37/16
f 23/33/17 21/35/17 17/38/17
f 20/40/18 18/42/18 22/36/18
o Thruster_collision_left
v -0.450000 -0.277500 0.000000
v 0.450000 -0.277500 0.000000
v -0.450000 -0.278317 -0.008291
v 0.450000 -0.278317 -0.008291
v -0.450000 -0.280735 -0.016264
v 0.450000 -0.280735 -0.016264
v -0.450000 -0.284663 -0.023612
v 0.450000 -0.284663 -0.023612
v -0.450000 -0.289948 -0.030052
v 0.450000 -0.289948 -0.030052
v -0.450000 -0.296388 -0.035337
v 0.450000 -0.296388 -0.035337
v -0.450000 -0.303736 -0.039265
v 0.450000 -0.303736 -0.039265
v -0.450000 -0.311709 -0.041683
v 0.450000 -0.311709 -0.041683
v -0.450000 -0.320000 -0.042500
v 0.450000 -0.320000 -0.042500
v -0.450000 -0.328291 -0.041683
v 0.450000 -0.328291 -0.041683
v -0.450000 -0.336264 -0.039265
v 0.450000 -0.336264 -0.039265
v -0.450000 -0.343612 -0.035337
v 0.450000 -0.343612 -0.035337
v -0.450000 -0.350052 -0.030052
v 0.450000 -0.350052 -0.030052
v -0.450000 -0.355337 -0.023612
v 0.450000 -0.355337 -0.023612
v -0.450000 -0.359265 -0.016264
v 0.450000 -0.359265 -0.016264
v -0.450000 -0.361683 -0.008291
v 0.450000 -0.361683 -0.008291
v -0.450000 -0.362500 0.000000
v 0.450000 -0.362500 0.000000
v -0.450000 -0.361683 0.008291
v 0.450000 -0.361683 0.008291
v -0.450000 -0.359265 0.016264
v 0.450000 -0.359265 0.016264
v -0.450000 -0.355337 0.023612
v 0.450000 -0.355337 0.023612
v -0.450000 -0.350052 0.030052
v 0.450000 -0.350052 0.030052
v -0.450000 -0.343612 0.035337
v 0.450000 -0.343612 0.035337
v -0.450000 -0.336264 0.039265
v 0.450000 -0.336264 0.039265
v -0.450000 -0.328291 0.041683
v 0.450000 -0.328291 0.041683
v -0.450000 -0.320000 0.042500
v 0.450000 -0.320000 0.042500
v -0.450000 -0.311709 0.041683
v 0.450000 -0.311709 0.041683
v -0.450000 -0.303736 0.039265
v 0.450000 -0.303736 0.039265
v -0.450000 -0.296388 0.035337
v 0.450000 -0.296388 0.035337
v -0.450000 -0.289948 0.030052
v 0.450000 -0.289948 0.030052
v -0.450000 -0.284663 0.023612
v 0.450000 -0.284663 0.023612
v -0.450000 -0.280735 0.016264
v 0.450000 -0.280735 0.016264
v -0.450000 -0.278317 0.008291
v 0.450000 -0.278317 0.008291
vn -0.0000 0.9952 -0.0981
vn -0.0000 0.9570 -0.2902
vn -0.0000 0.8819 -0.4714
vn -0.0000 0.7730 -0.6344
vn -0.0000 0.6344 -0.7730
vn -0.0000 0.4714 -0.8819
vn -0.0000 0.2902 -0.9570
vn -0.0000 0.0981 -0.9952
vn -0.0000 -0.0981 -0.9952
vn -0.0000 -0.2902 -0.9570
vn -0.0000 -0.4714 -0.8819
vn -0.0000 -0.6344 -0.7730
vn -0.0000 -0.7730 -0.6344
vn -0.0000 -0.8819 -0.4714
vn -0.0000 -0.9570 -0.2902
vn -0.0000 -0.9952 -0.0981
vn -0.0000 -0.9952 0.0981
vn -0.0000 -0.9570 0.2902
vn -0.0000 -0.8819 0.4714
vn -0.0000 -0.7730 0.6344
vn -0.0000 -0.6344 0.7730
vn -0.0000 -0.4714 0.8819
vn -0.0000 -0.2902 0.9570
vn -0.0000 -0.0981 0.9952
vn -0.0000 0.0981 0.9952
vn -0.0000 0.2902 0.9570
vn -0.0000 0.4714 0.8819
vn -0.0000 0.6344 0.7730
vn -0.0000 0.7730 0.6344
vn -0.0000 0.8819 0.4714
vn 1.0000 -0.0000 -0.0000
vn -0.0000 0.9570 0.2902
vn -0.0000 0.9952 0.0981
vn -1.0000 -0.0000 -0.0000
vt 1.000000 1.000000
vt 0.968750 0.500000
vt 1.000000 0.500000
vt 0.968750 1.000000
vt 0.937500 0.500000
vt 0.937500 1.000000
vt 0.906250 0.500000
vt 0.906250 1.000000
vt 0.875000 0.500000
vt 0.875000 1.000000
vt 0.843750 0.500000
vt 0.843750 1.000000
vt 0.812500 0.500000
vt 0.812500 1.000000
vt 0.781250 0.500000
vt 0.781250 1.000000
vt 0.750000 0.500000
vt 0.750000 1.000000
vt 0.718750 0.500000
vt 0.718750 1.000000
vt 0.687500 0.500000
vt 0.687500 1.000000
vt 0.656250 0.500000
vt 0.656250 1.000000
vt 0.625000 0.500000
vt 0.625000 1.000000
vt 0.593750 0.500000
vt 0.593750 1.000000
vt 0.562500 0.500000
vt 0.562500 1.000000
vt 0.531250 0.500000
vt 0.531250 1.000000
vt 0.500000 0.500000
vt 0.500000 1.000000
vt 0.468750 0.500000
vt 0.468750 1.000000
vt 0.437500 0.500000
vt 0.437500 1.000000
vt 0.406250 0.500000
vt 0.406250 1.000000
vt 0.375000 0.500000
vt 0.375000 1.000000
vt 0.343750 0.500000
vt 0.343750 1.000000
vt 0.312500 0.500000
vt 0.312500 1.000000
vt 0.281250 0.500000
vt 0.281250 1.000000
vt 0.250000 0.500000
vt 0.250000 1.000000
vt 0.218750 0.500000
vt 0.218750 1.000000
vt 0.187500 0.500000
vt 0.187500 1.000000
vt 0.156250 0.500000
vt 0.156250 1.000000
vt 0.125000 0.500000
vt 0.125000 1.000000
vt 0.093750 0.500000
vt 0.093750 1.000000
vt 0.062500 0.500000
vt 0.158156 0.028269
vt 0.471731 0.158156
vt 0.341844 0.471731
vt 0.062500 1.000000
vt 0.031250 0.500000
vt 0.031250 1.000000
vt 0.000000 0.500000
vt 0.796822 0.014612
vt 0.514612 0.203178
vt 0.703178 0.485388
vt 0.296822 0.485388
vt 0.250000 0.490000
vt 0.203178 0.485388
vt 0.158156 0.471731
vt 0.116663 0.449553
vt 0.080294 0.419706
vt 0.050447 0.383337
vt 0.028269 0.341844
vt 0.014612 0.296822
vt 0.010000 0.250000
vt 0.014612 0.203178
vt 0.028269 0.158156
vt 0.050447 0.116663
vt 0.080294 0.080294
vt 0.116663 0.050447
vt 0.203178 0.014612
vt 0.341844 0.028269
vt 0.250000 0.010000
vt 0.296822 0.014612
vt 0.383337 0.050447
vt 0.419706 0.080294
vt 0.449553 0.116663
vt 0.485388 0.203178
vt 0.471731 0.341844
vt 0.490000 0.250000
vt 0.485388 0.296822
vt 0.449553 0.383337
vt 0.419706 0.419706
vt 0.383337 0.449553
vt 0.000000 1.000000
vt 0.750000 0.490000
vt 0.796822 0.485388
vt 0.841844 0.471731
vt 0.883337 0.449553
vt 0.919706 0.419706
vt 0.949553 0.383337
vt 0.971731 0.341844
vt 0.985388 0.296822
vt 0.990000 0.250000
vt 0.985388 0.203178
vt 0.971731 0.158156
vt 0.949553 0.116663
vt 0.919706 0.080294
vt 0.883337 0.050447
vt 0.841844 0.028269
vt 0.750000 0.010000
vt 0.703178 0.014612
vt 0.658156 0.028269
vt 0.616663 0.050447
vt 0.580294 0.080294
vt 0.550447 0.116663
vt 0.528269 0.158156
vt 0.510000 0.250000
vt 0.514612 0.296822
vt 0.528269 0.341844
vt 0.550447 0.383337
vt 0.580294 0.419706
vt 0.616663 0.449553
vt 0.658156 0.471731
s 1
f 26/43/19 27/44/19 25/45/19
f 28/46/20 29/47/20 27/44/20
f 30/48/21 31/49/21 29/47/21
f 32/50/22 33/51/22 31/49/22
f 34/52/23 35/53/23 33/51/23
f 36/54/24 37/55/24 35/53/24
f 38/56/25 39/57/25 37/55/25
f 40/58/26 41/59/26 39/57/26
f 42/60/27 43/61/27 41/59/27
f 44/62/28 45/63/28 43/61/28
f 46/64/29 47/65/29 45/63/29
f 48/66/30 49/67/30 47/65/30
f 50/68/31 51/69/31 49/67/31
f 52/70/32 53/71/32 51/69/32
f 54/72/33 55/73/33 53/71/33
f 56/74/34 57/75/34 55/73/34
f 58/76/35 59/77/35 57/75/35
f 60/78/36 61/79/36 59/77/36
f 62/80/37 63/81/37 61/79/37
f 64/82/38 65/83/38 63/81/38
f 66/84/39 67/85/39 65/83/39
f 68/86/40 69/87/40 67/85/40
f 70/88/41 71/89/41 69/87/41
f 72/90/42 73/91/42 71/89/42
f 74/92/43 75/93/43 73/91/43
f 76/94/44 77/95/44 75/93/44
f 78/96/45 79/97/45 77/95/45
f 80/98/46 81/99/46 79/97/46
f 82/100/47 83/101/47 81/99/47
f 84/102/48 85/103/48 83/101/48
f 62/104/49 46/105/49 30/106/49
f 86/107/50 87/108/50 85/103/50
f 88/109/51 25/110/51 87/108/51
f 55/111/52 71/112/52 87/113/52
f 26/43/19 28/46/19 27/44/19
f 28/46/20 30/48/20 29/47/20
f 30/48/21 32/50/21 31/49/21
f 32/50/22 34/52/22 33/51/22
f 34/52/23 36/54/23 35/53/23
f 36/54/24 38/56/24 37/55/24
f 38/56/25 40/58/25 39/57/25
f 40/58/26 42/60/26 41/59/26
f 42/60/27 44/62/27 43/61/27
f 44/62/28 46/64/28 45/63/28
f 46/64/29 48/66/29 47/65/29
f 48/66/30 50/68/30 49/67/30
f 50/68/31 52/70/31 51/69/31
f 52/70/32 54/72/32 53/71/32
f 54/72/33 56/74/33 55/73/33
f 56/74/34 58/76/34 57/75/34
f 58/76/35 60/78/35 59/77/35
f 60/78/36 62/80/36 61/79/36
f 62/80/37 64/82/37 63/81/37
f 64/82/38 66/84/38 65/83/38
f 66/84/39 68/86/39 67/85/39
f 68/86/40 70/88/40 69/87/40
f 70/88/41 72/90/41 71/89/41
f 72/90/42 74/92/42 73/91/42
f 74/92/43 76/94/43 75/93/43
f 76/94/44 78/96/44 77/95/44
f 78/96/45 80/98/45 79/97/45
f 80/98/46 82/100/46 81/99/46
f 82/100/47 84/102/47 83/101/47
f 84/102/48 86/107/48 85/103/48
f 30/106/49 28/114/49 26/115/49
f 26/115/49 88/116/49 30/106/49
f 88/116/49 86/117/49 30/106/49
f 86/117/49 84/118/49 82/119/49
f 82/119/49 80/120/49 78/121/49
f 78/121/49 76/122/49 74/123/49
f 74/123/49 72/124/49 78/121/49
f 72/124/49 70/125/49 78/121/49
f 70/125/49 68/126/49 66/127/49
f 66/127/49 64/128/49 62/104/49
f 62/104/49 60/129/49 54/130/49
f 60/129/49 58/131/49 54/130/49
f 58/131/49 56/132/49 54/130/49
f 54/130/49 52/133/49 50/134/49
f 50/134/49 48/135/49 46/105/49
f 46/105/49 44/136/49 38/137/49
f 44/136/49 42/138/49 38/137/49
f 42/138/49 40/139/49 38/137/49
f 38/137/49 36/140/49 34/141/49
f 34/141/49 32/142/49 30/106/49
f 86/117/49 82/119/49 30/106/49
f 82/119/49 78/121/49 30/106/49
f 70/125/49 66/127/49 78/121/49
f 66/127/49 62/104/49 78/121/49
f 54/130/49 50/134/49 62/104/49
f 50/134/49 46/105/49 62/104/49
f 38/137/49 34/141/49 46/105/49
f 34/141/49 30/106/49 46/105/49
f 30/106/49 78/121/49 62/104/49
f 86/107/50 88/109/50 87/108/50
f 88/109/51 26/143/51 25/110/51
f 87/113/52 25/144/52 27/145/52
f 27/145/52 29/146/52 31/147/52
f 31/147/52 33/148/52 35/149/52
f 35/149/52 37/150/52 39/151/52
f 39/151/52 41/152/52 43/153/52
f 43/153/52 45/154/52 47/155/52
f 47/155/52 49/156/52 51/157/52
f 51/157/52 53/158/52 55/111/52
f 55/111/52 57/159/52 59/160/52
f 59/160/52 61/161/52 63/162/52
f 63/162/52 65/163/52 67/164/52
f 67/164/52 69/165/52 71/112/52
f 71/112/52 73/166/52 75/167/52
f 75/167/52 77/168/52 79/169/52
f 79/169/52 81/170/52 83/171/52
f 83/171/52 85/172/52 87/113/52
f 87/113/52 27/145/52 39/151/52
f 27/145/52 31/147/52 39/151/52
f 31/147/52 35/149/52 39/151/52
f 39/151/52 43/153/52 55/111/52
f 43/153/52 47/155/52 55/111/52
f 47/155/52 51/157/52 55/111/52
f 55/111/52 59/160/52 71/112/52
f 59/160/52 63/162/52 71/112/52
f 63/162/52 67/164/52 71/112/52
f 71/112/52 75/167/52 87/113/52
f 75/167/52 79/169/52 87/113/52
f 79/169/52 83/171/52 87/113/52
f 87/113/52 39/151/52 55/111/52
o Thruster_collision_right
v -0.450000 0.362500 0.000000
v 0.450000 0.362500 0.000000
v -0.450000 0.361683 -0.008291
v 0.450000 0.361683 -0.008291
v -0.450000 0.359265 -0.016264
v 0.450000 0.359265 -0.016264
v -0.450000 0.355337 -0.023612
v 0.450000 0.355337 -0.023612
v -0.450000 0.350052 -0.030052
v 0.450000 0.350052 -0.030052
v -0.450000 0.343612 -0.035337
v 0.450000 0.343612 -0.035337
v -0.450000 0.336264 -0.039265
v 0.450000 0.336264 -0.039265
v -0.450000 0.328291 -0.041683
v 0.450000 0.328291 -0.041683
v -0.450000 0.320000 -0.042500
v 0.450000 0.320000 -0.042500
v -0.450000 0.311709 -0.041683
v 0.450000 0.311709 -0.041683
v -0.450000 0.303736 -0.039265
v 0.450000 0.303736 -0.039265
v -0.450000 0.296388 -0.035337
v 0.450000 0.296388 -0.035337
v -0.450000 0.289948 -0.030052
v 0.450000 0.289948 -0.030052
v -0.450000 0.284663 -0.023612
v 0.450000 0.284663 -0.023612
v -0.450000 0.280735 -0.016264
v 0.450000 0.280735 -0.016264
v -0.450000 0.278317 -0.008291
v 0.450000 0.278317 -0.008291
v -0.450000 0.277500 0.000000
v 0.450000 0.277500 0.000000
v -0.450000 0.278317 0.008291
v 0.450000 0.278317 0.008291
v -0.450000 0.280735 0.016264
v 0.450000 0.280735 0.016264
v -0.450000 0.284663 0.023612
v 0.450000 0.284663 0.023612
v -0.450000 0.289948 0.030052
v 0.450000 0.289948 0.030052
v -0.450000 0.296388 0.035337
v 0.450000 0.296388 0.035337
v -0.450000 0.303736 0.039265
v 0.450000 0.303736 0.039265
v -0.450000 0.311709 0.041683
v 0.450000 0.311709 0.041683
v -0.450000 0.320000 0.042500
v 0.450000 0.320000 0.042500
v -0.450000 0.328291 0.041683
v 0.450000 0.328291 0.041683
v -0.450000 0.336264 0.039265
v 0.450000 0.336264 0.039265
v -0.450000 0.343612 0.035337
v 0.450000 0.343612 0.035337
v -0.450000 0.350052 0.030052
v 0.450000 0.350052 0.030052
v -0.450000 0.355337 0.023612
v 0.450000 0.355337 0.023612
v -0.450000 0.359265 0.016264
v 0.450000 0.359265 0.016264
v -0.450000 0.361683 0.008291
v 0.450000 0.361683 0.008291
vn -0.0000 0.9952 -0.0981
vn -0.0000 0.9570 -0.2902
vn -0.0000 0.8819 -0.4714
vn -0.0000 0.7730 -0.6344
vn -0.0000 0.6344 -0.7730
vn -0.0000 0.4714 -0.8819
vn -0.0000 0.2902 -0.9570
vn -0.0000 0.0981 -0.9952
vn -0.0000 -0.0981 -0.9952
vn -0.0000 -0.2902 -0.9570
vn -0.0000 -0.4714 -0.8819
vn -0.0000 -0.6344 -0.7730
vn -0.0000 -0.7730 -0.6344
vn -0.0000 -0.8819 -0.4714
vn -0.0000 -0.9570 -0.2902
vn -0.0000 -0.9952 -0.0981
vn -0.0000 -0.9952 0.0981
vn -0.0000 -0.9570 0.2902
vn -0.0000 -0.8819 0.4714
vn -0.0000 -0.7730 0.6344
vn -0.0000 -0.6344 0.7730
vn -0.0000 -0.4714 0.8819
vn -0.0000 -0.2902 0.9570
vn -0.0000 -0.0981 0.9952
vn -0.0000 0.0981 0.9952
vn -0.0000 0.2902 0.9570
vn -0.0000 0.4714 0.8819
vn -0.0000 0.6344 0.7730
vn -0.0000 0.7730 0.6344
vn -0.0000 0.8819 0.4714
vn 1.0000 -0.0000 -0.0000
vn -0.0000 0.9570 0.2902
vn -0.0000 0.9952 0.0981
vn -1.0000 -0.0000 -0.0000
vt 1.000000 1.000000
vt 0.968750 0.500000
vt 1.000000 0.500000
vt 0.968750 1.000000
vt 0.937500 0.500000
vt 0.937500 1.000000
vt 0.906250 0.500000
vt 0.906250 1.000000
vt 0.875000 0.500000
vt 0.875000 1.000000
vt 0.843750 0.500000
vt 0.843750 1.000000
vt 0.812500 0.500000
vt 0.812500 1.000000
vt 0.781250 0.500000
vt 0.781250 1.000000
vt 0.750000 0.500000
vt 0.750000 1.000000
vt 0.718750 0.500000
vt 0.718750 1.000000
vt 0.687500 0.500000
vt 0.687500 1.000000
vt 0.656250 0.500000
vt 0.656250 1.000000
vt 0.625000 0.500000
vt 0.625000 1.000000
vt 0.593750 0.500000
vt 0.593750 1.000000
vt 0.562500 0.500000
vt 0.562500 1.000000
vt 0.531250 0.500000
vt 0.531250 1.000000
vt 0.500000 0.500000
vt 0.500000 1.000000
vt 0.468750 0.500000
vt 0.468750 1.000000
vt 0.437500 0.500000
vt 0.437500 1.000000
vt 0.406250 0.500000
vt 0.406250 1.000000
vt 0.375000 0.500000
vt 0.375000 1.000000
vt 0.343750 0.500000
vt 0.343750 1.000000
vt 0.312500 0.500000
vt 0.312500 1.000000
vt 0.281250 0.500000
vt 0.281250 1.000000
vt 0.250000 0.500000
vt 0.250000 1.000000
vt 0.218750 0.500000
vt 0.218750 1.000000
vt 0.187500 0.500000
vt 0.187500 1.000000
vt 0.156250 0.500000
vt 0.156250 1.000000
vt 0.125000 0.500000
vt 0.125000 1.000000
vt 0.093750 0.500000
vt 0.093750 1.000000
vt 0.062500 0.500000
vt 0.158156 0.028269
vt 0.471731 0.158156
vt 0.341844 0.471731
vt 0.062500 1.000000
vt 0.031250 0.500000
vt 0.031250 1.000000
vt 0.000000 0.500000
vt 0.796822 0.014612
vt 0.514612 0.203178
vt 0.703178 0.485388
vt 0.296822 0.485388
vt 0.250000 0.490000
vt 0.203178 0.485388
vt 0.158156 0.471731
vt 0.116663 0.449553
vt 0.080294 0.419706
vt 0.050447 0.383337
vt 0.028269 0.341844
vt 0.014612 0.296822
vt 0.010000 0.250000
vt 0.014612 0.203178
vt 0.028269 0.158156
vt 0.050447 0.116663
vt 0.080294 0.080294
vt 0.116663 0.050447
vt 0.203178 0.014612
vt 0.341844 0.028269
vt 0.250000 0.010000
vt 0.296822 0.014612
vt 0.383337 0.050447
vt 0.419706 0.080294
vt 0.449553 0.116663
vt 0.485388 0.203178
vt 0.471731 0.341844
vt 0.490000 0.250000
vt 0.485388 0.296822
vt 0.449553 0.383337
vt 0.419706 0.419706
vt 0.383337 0.449553
vt 0.000000 1.000000
vt 0.750000 0.490000
vt 0.796822 0.485388
vt 0.841844 0.471731
vt 0.883337 0.449553
vt 0.919706 0.419706
vt 0.949553 0.383337
vt 0.971731 0.341844
vt 0.985388 0.296822
vt 0.990000 0.250000
vt 0.985388 0.203178
vt 0.971731 0.158156
vt 0.949553 0.116663
vt 0.919706 0.080294
vt 0.883337 0.050447
vt 0.841844 0.028269
vt 0.750000 0.010000
vt 0.703178 0.014612
vt 0.658156 0.028269
vt 0.616663 0.050447
vt 0.580294 0.080294
vt 0.550447 0.116663
vt 0.528269 0.158156
vt 0.510000 0.250000
vt 0.514612 0.296822
vt 0.528269 0.341844
vt 0.550447 0.383337
vt 0.580294 0.419706
vt 0.616663 0.449553
vt 0.658156 0.471731
s 1
f 90/173/53 91/174/53 89/175/53
f 92/176/54 93/177/54 91/174/54
f 94/178/55 95/179/55 93/177/55
f 96/180/56 97/181/56 95/179/56
f 98/182/57 99/183/57 97/181/57
f 100/184/58 101/185/58 99/183/58
f 102/186/59 103/187/59 101/185/59
f 104/188/60 105/189/60 103/187/60
f 106/190/61 107/191/61 105/189/61
f 108/192/62 109/193/62 107/191/62
f 110/194/63 111/195/63 109/193/63
f 112/196/64 113/197/64 111/195/64
f 114/198/65 115/199/65 113/197/65
f 116/200/66 117/201/66 115/199/66
f 118/202/67 119/203/67 117/201/67
f 120/204/68 121/205/68 119/203/68
f 122/206/69 123/207/69 121/205/69
f 124/208/70 125/209/70 123/207/70
f 126/210/71 127/211/71 125/209/71
f 128/212/72 129/213/72 127/211/72
f 130/214/73 131/215/73 129/213/73
f 132/216/74 133/217/74 131/215/74
f 134/218/75 135/219/75 133/217/75
f 136/220/76 137/221/76 135/219/76
f 138/222/77 139/223/77 137/221/77
f 140/224/78 141/225/78 139/223/78
f 142/226/79 143/227/79 141/225/79
f 144/228/80 145/229/80 143/227/80
f 146/230/81 147/231/81 145/229/81
f 148/232/82 149/233/82 147/231/82
f 126/234/83 110/235/83 94/236/83
f 150/237/84 151/238/84 149/233/84
f 152/239/85 89/240/85 151/238/85
f 119/241/86 135/242/86 151/243/86
f 90/173/53 92/176/53 91/174/53
f 92/176/54 94/178/54 93/177/54
f 94/178/55 96/180/55 95/179/55
f 96/180/56 98/182/56 97/181/56
f 98/182/57 100/184/57 99/183/57
f 100/184/58 102/186/58 101/185/58
f 102/186/59 104/188/59 103/187/59
f 104/188/60 106/190/60 105/189/60
f 106/190/61 108/192/61 107/191/61
f 108/192/62 110/194/62 109/193/62
f 110/194/63 112/196/63 111/195/63
f 112/196/64 114/198/64 113/197/64
f 114/198/65 116/200/65 115/199/65
f 116/200/66 118/202/66 117/201/66
f 118/202/67 120/204/67 119/203/67
f 120/204/68 122/206/68 121/205/68
f 122/206/69 124/208/69 123/207/69
f 124/208/70 126/210/70 125/209/70
f 126/210/71 128/212/71 127/211/71
f 128/212/72 130/214/72 129/213/72
f 130/214/73 132/216/73 131/215/73
f 132/216/74 134/218/74 133/217/74
f 134/218/75 136/220/75 135/219/75
f 136/220/76 138/222/76 137/221/76
f 138/222/77 140/224/77 139/223/77
f 140/224/78 142/226/78 141/225/78
f 142/226/79 144/228/79 143/227/79
f 144/228/80 146/230/80 145/229/80
f 146/230/81 148/232/81 147/231/81
f 148/232/82 150/237/82 149/233/82
f 94/236/83 92/244/83 90/245/83
f 90/245/83 152/246/83 94/236/83
f 152/246/83 150/247/83 94/236/83
f 150/247/83 148/248/83 146/249/83
f 146/249/83 144/250/83 142/251/83
f 142/251/83 140/252/83 138/253/83
f 138/253/83 136/254/83 142/251/83
f 136/254/83 134/255/83 142/251/83
f 134/255/83 132/256/83 130/257/83
f 130/257/83 128/258/83 126/234/83
f 126/234/83 124/259/83 118/260/83
f 124/259/83 122/261/83 118/260/83
f 122/261/83 120/262/83 118/260/83
f 118/260/83 116/263/83 114/264/83
f 114/264/83 112/265/83 110/235/83
f 110/235/83 108/266/83 102/267/83
f 108/266/83 106/268/83 102/267/83
f 106/268/83 104/269/83 102/267/83
f 102/267/83 100/270/83 98/271/83
f 98/271/83 96/272/83 94/236/83
f 150/247/83 146/249/83 94/236/83
f 146/249/83 142/251/83 94/236/83
f 134/255/83 130/257/83 142/251/83
f 130/257/83 126/234/83 142/251/83
f 118/260/83 114/264/83 126/234/83
f 114/264/83 110/235/83 126/234/83
f 102/267/83 98/271/83 110/235/83
f 98/271/83 94/236/83 110/235/83
f 94/236/83 142/251/83 126/234/83
f 150/237/84 152/239/84 151/238/84
f 152/239/85 90/273/85 89/240/85
f 151/243/86 89/274/86 91/275/86
f 91/275/86 93/276/86 95/277/86
f 95/277/86 97/278/86 99/279/86
f 99/279/86 101/280/86 103/281/86
f 103/281/86 105/282/86 107/283/86
f 107/283/86 109/284/86 111/285/86
f 111/285/86 113/286/86 115/287/86
f 115/287/86 117/288/86 119/241/86
f 119/241/86 121/289/86 123/290/86
f 123/290/86 125/291/86 127/292/86
f 127/292/86 129/293/86 131/294/86
f 131/294/86 133/295/86 135/242/86
f 135/242/86 137/296/86 139/297/86
f 139/297/86 141/298/86 143/299/86
f 143/299/86 145/300/86 147/301/86
f 147/301/86 149/302/86 151/243/86
f 151/243/86 91/275/86 103/281/86
f 91/275/86 95/277/86 103/281/86
f 95/277/86 99/279/86 103/281/86
f 103/281/86 107/283/86 119/241/86
f 107/283/86 111/285/86 119/241/86
f 111/285/86 115/287/86 119/241/86
f 119/241/86 123/290/86 135/242/86
f 123/290/86 127/292/86 135/242/86
f 127/292/86 131/294/86 135/242/86
f 135/242/86 139/297/86 151/243/86
f 139/297/86 143/299/86 151/243/86
f 143/299/86 147/301/86 151/243/86
f 151/243/86 103/281/86 119/241/86
