# from pathmarker.pskx  scale=0.01 flipZ=True
v -0.292848 0.026951 -0.006350
v -0.292848 0.026951 0.006350
v -0.299467 0.020346 -0.006350
v -0.303463 0.013609 -0.006350
v -0.304800 0.006808 0.006350
v -0.304800 0.006808 -0.006350
v 0.203373 0.058255 -0.006350
v 0.246185 0.046760 -0.006350
v 0.233021 0.050843 -0.006350
v 0.218727 0.054682 -0.006350
v 0.010927 0.076200 -0.006350
v 0.052750 0.075452 -0.006350
v 0.031892 0.076013 -0.006350
v 0.052750 -0.075452 -0.006350
v 0.010927 -0.076200 -0.006350
v 0.031892 -0.076013 -0.006350
v 0.246184 -0.046760 -0.006350
v 0.218727 -0.054682 -0.006350
v 0.233021 -0.050843 -0.006350
v -0.303463 0.013609 -0.006350
v -0.054437 0.075866 0.006350
v -0.304800 0.006808 0.006350
v -0.299467 0.020346 -0.006350
v 0.052750 0.075452 0.006350
v 0.010927 0.076200 0.006350
v 0.031892 0.076013 0.006350
v 0.246184 0.046760 0.006350
v 0.218727 0.054682 0.006350
v 0.233021 0.050843 0.006350
v 0.203373 -0.058255 0.006350
v 0.246184 -0.046760 0.006350
v 0.233021 -0.050843 0.006350
v 0.218727 -0.054682 0.006350
v 0.010927 -0.076200 0.006350
v 0.052750 -0.075452 0.006350
v 0.031892 -0.076013 0.006350
v -0.054438 -0.075866 -0.006350
v -0.027231 -0.076200 0.006350
v -0.027231 -0.076200 -0.006350
v -0.054438 -0.075866 0.006350
v -0.081382 -0.074867 -0.006350
v -0.054438 -0.075866 0.006350
v -0.054438 -0.075866 -0.006350
v -0.081382 -0.074867 0.006350
v -0.107805 -0.073212 -0.006350
v -0.081382 -0.074867 0.006350
v -0.081382 -0.074867 -0.006350
v -0.107805 -0.073212 0.006350
v -0.133452 -0.070918 -0.006350
v -0.107805 -0.073212 0.006350
v -0.107805 -0.073212 -0.006350
v -0.133452 -0.070918 0.006350
v -0.158076 -0.068006 -0.006350
v -0.133452 -0.070918 0.006350
v -0.133452 -0.070918 -0.006350
v -0.158076 -0.068006 0.006350
v -0.181440 -0.064505 -0.006350
v -0.158076 -0.068006 0.006350
v -0.158076 -0.068006 -0.006350
v -0.181440 -0.064505 0.006350
v -0.203319 -0.060449 -0.006350
v -0.181440 -0.064505 0.006350
v -0.181440 -0.064505 -0.006350
v -0.203319 -0.060449 0.006350
v -0.223502 -0.055875 -0.006350
v -0.203319 -0.060449 0.006350
v -0.203319 -0.060449 -0.006350
v -0.223502 -0.055875 0.006350
v -0.241795 -0.050830 -0.006350
v -0.223502 -0.055875 0.006350
v -0.223502 -0.055875 -0.006350
v -0.241795 -0.050830 0.006350
v -0.258021 -0.045360 -0.006350
v -0.241795 -0.050830 0.006350
v -0.241795 -0.050830 -0.006350
v -0.258021 -0.045360 0.006350
v -0.272025 -0.039519 -0.006350
v -0.258021 -0.045360 0.006350
v -0.258021 -0.045360 -0.006350
v -0.272025 -0.039519 0.006350
v -0.283671 -0.033363 -0.006350
v -0.272025 -0.039519 0.006350
v -0.272025 -0.039519 -0.006350
v -0.283671 -0.033363 0.006350
v -0.292848 -0.026951 -0.006350
v -0.283671 -0.033363 0.006350
v -0.283671 -0.033363 -0.006350
v -0.292848 -0.026951 0.006350
v -0.299467 -0.020345 -0.006350
v -0.292848 -0.026951 0.006350
v -0.292848 -0.026951 -0.006350
v -0.299467 -0.020345 0.006350
v -0.303463 -0.013609 -0.006350
v -0.299467 -0.020345 0.006350
v -0.299467 -0.020345 -0.006350
v -0.303463 -0.013609 0.006350
v -0.304800 -0.006808 -0.006350
v -0.303463 -0.013609 0.006350
v -0.303463 -0.013609 -0.006350
v -0.304800 -0.006808 0.006350
v -0.054437 0.075866 0.006350
v -0.054437 0.075866 -0.006350
v -0.027231 0.076200 -0.006350
v -0.027231 0.076200 0.006350
v -0.081382 0.074867 0.006350
v -0.081382 0.074867 -0.006350
v -0.054437 0.075866 -0.006350
v -0.054437 0.075866 0.006350
v -0.107805 0.073212 0.006350
v -0.107805 0.073212 -0.006350
v -0.081382 0.074867 -0.006350
v -0.081382 0.074867 0.006350
v -0.133452 0.070918 0.006350
v -0.133452 0.070918 -0.006350
v -0.107805 0.073212 -0.006350
v -0.107805 0.073212 0.006350
v -0.158076 0.068006 0.006350
v -0.158076 0.068006 -0.006350
v -0.133452 0.070918 -0.006350
v -0.133452 0.070918 0.006350
v -0.181440 0.064505 0.006350
v -0.181440 0.064505 -0.006350
v -0.158076 0.068006 -0.006350
v -0.158076 0.068006 0.006350
v -0.203319 0.060449 0.006350
v -0.203319 0.060449 -0.006350
v -0.181440 0.064505 -0.006350
v -0.181440 0.064505 0.006350
v -0.223502 0.055876 0.006350
v -0.223502 0.055876 -0.006350
v -0.203319 0.060449 -0.006350
v -0.203319 0.060449 0.006350
v -0.241795 0.050830 0.006350
v -0.241795 0.050830 -0.006350
v -0.223502 0.055876 -0.006350
v -0.223502 0.055876 0.006350
v -0.258021 0.045360 0.006350
v -0.258021 0.045360 -0.006350
v -0.241795 0.050830 -0.006350
v -0.241795 0.050830 0.006350
v -0.272025 0.039519 0.006350
v -0.272025 0.039519 -0.006350
v -0.258021 0.045360 -0.006350
v -0.258021 0.045360 0.006350
v -0.283671 0.033363 0.006350
v -0.283671 0.033363 -0.006350
v -0.272025 0.039519 -0.006350
v -0.272025 0.039519 0.006350
v -0.292848 0.026951 0.006350
v -0.292848 0.026951 -0.006350
v -0.283671 0.033363 -0.006350
v -0.283671 0.033363 0.006350
v -0.304800 0.006808 -0.006350
v -0.304800 -0.006808 0.006350
v -0.304800 -0.006808 -0.006350
v -0.304800 0.006808 0.006350
v 0.304051 0.007973 0.006350
v 0.304051 0.007973 -0.006350
v 0.304800 0.002732 -0.006350
v 0.304800 0.002732 0.006350
v 0.301809 0.013187 0.006350
v 0.301809 0.013187 -0.006350
v 0.304051 0.007973 -0.006350
v 0.304051 0.007973 0.006350
v 0.298084 0.018349 0.006350
v 0.298084 0.018349 -0.006350
v 0.301809 0.013187 -0.006350
v 0.301809 0.013187 0.006350
v 0.292896 0.023430 0.006350
v 0.292896 0.023430 -0.006350
v 0.298084 0.018349 -0.006350
v 0.298084 0.018349 0.006350
v 0.286271 0.028406 0.006350
v 0.286271 0.028406 -0.006350
v 0.292896 0.023430 -0.006350
v 0.292896 0.023430 0.006350
v 0.278243 0.033252 0.006350
v 0.278243 0.033252 -0.006350
v 0.286271 0.028406 -0.006350
v 0.286271 0.028406 0.006350
v 0.268853 0.037941 0.006350
v 0.268853 0.037941 -0.006350
v 0.278243 0.033252 -0.006350
v 0.278243 0.033252 0.006350
v 0.258149 0.042452 0.006350
v 0.258149 0.042452 -0.006350
v 0.268853 0.037941 -0.006350
v 0.268853 0.037941 0.006350
v 0.246184 0.046760 0.006350
v 0.246185 0.046760 -0.006350
v 0.258149 0.042452 -0.006350
v 0.258149 0.042452 0.006350
v 0.233021 0.050843 0.006350
v 0.233021 0.050843 -0.006350
v 0.246185 0.046760 -0.006350
v 0.246184 0.046760 0.006350
v 0.218727 0.054682 0.006350
v 0.218727 0.054682 -0.006350
v 0.233021 0.050843 -0.006350
v 0.233021 0.050843 0.006350
v 0.203373 0.058255 -0.006350
v 0.218727 0.054682 0.006350
v 0.203373 0.058255 0.006350
v 0.218727 0.054682 -0.006350
v 0.187039 0.061546 -0.006350
v 0.203373 0.058255 0.006350
v 0.187039 0.061546 0.006350
v 0.203373 0.058255 -0.006350
v 0.169807 0.064537 -0.006350
v 0.187039 0.061546 0.006350
v 0.169807 0.064537 0.006350
v 0.187039 0.061546 -0.006350
v 0.151765 0.067213 -0.006350
v 0.169807 0.064537 0.006350
v 0.151765 0.067213 0.006350
v 0.169807 0.064537 -0.006350
v 0.133006 0.069561 -0.006350
v 0.151765 0.067213 0.006350
v 0.133006 0.069561 0.006350
v 0.151765 0.067213 -0.006350
v 0.113625 0.071568 -0.006350
v 0.133006 0.069561 0.006350
v 0.113625 0.071568 0.006350
v 0.133006 0.069561 -0.006350
v 0.093721 0.073224 -0.006350
v 0.113625 0.071568 0.006350
v 0.093721 0.073224 0.006350
v 0.113625 0.071568 -0.006350
v 0.073394 0.074521 -0.006350
v 0.093721 0.073224 0.006350
v 0.073394 0.074521 0.006350
v 0.093721 0.073224 -0.006350
v 0.052750 0.075452 -0.006350
v 0.073394 0.074521 0.006350
v 0.052750 0.075452 0.006350
v 0.073394 0.074521 -0.006350
v 0.031892 0.076013 -0.006350
v 0.052750 0.075452 0.006350
v 0.031892 0.076013 0.006350
v 0.052750 0.075452 -0.006350
v 0.010927 0.076200 -0.006350
v 0.031892 0.076013 0.006350
v 0.010927 0.076200 0.006350
v 0.031892 0.076013 -0.006350
v 0.031892 -0.076013 -0.006350
v 0.010927 -0.076200 0.006350
v 0.031892 -0.076013 0.006350
v 0.010927 -0.076200 -0.006350
v 0.052750 -0.075452 -0.006350
v 0.031892 -0.076013 0.006350
v 0.052750 -0.075452 0.006350
v 0.031892 -0.076013 -0.006350
v 0.073394 -0.074521 -0.006350
v 0.052750 -0.075452 0.006350
v 0.073394 -0.074521 0.006350
v 0.052750 -0.075452 -0.006350
v 0.093721 -0.073224 -0.006350
v 0.073394 -0.074521 0.006350
v 0.093721 -0.073224 0.006350
v 0.073394 -0.074521 -0.006350
v 0.113625 -0.071568 -0.006350
v 0.093721 -0.073224 0.006350
v 0.113625 -0.071568 0.006350
v 0.093721 -0.073224 -0.006350
v 0.133006 -0.069561 -0.006350
v 0.113625 -0.071568 0.006350
v 0.133006 -0.069561 0.006350
v 0.113625 -0.071568 -0.006350
v 0.151765 -0.067213 -0.006350
v 0.133006 -0.069561 0.006350
v 0.151765 -0.067213 0.006350
v 0.133006 -0.069561 -0.006350
v 0.169807 -0.064537 -0.006350
v 0.151765 -0.067213 0.006350
v 0.169807 -0.064537 0.006350
v 0.151765 -0.067213 -0.006350
v 0.187039 -0.061546 -0.006350
v 0.169807 -0.064537 0.006350
v 0.187039 -0.061546 0.006350
v 0.169807 -0.064537 -0.006350
v 0.203373 -0.058255 -0.006350
v 0.187039 -0.061546 0.006350
v 0.203373 -0.058255 0.006350
v 0.187039 -0.061546 -0.006350
v 0.218727 -0.054682 -0.006350
v 0.203373 -0.058255 0.006350
v 0.218727 -0.054682 0.006350
v 0.203373 -0.058255 -0.006350
v 0.233021 -0.050843 0.006350
v 0.233021 -0.050843 -0.006350
v 0.218727 -0.054682 -0.006350
v 0.218727 -0.054682 0.006350
v 0.246184 -0.046760 0.006350
v 0.246184 -0.046760 -0.006350
v 0.233021 -0.050843 -0.006350
v 0.233021 -0.050843 0.006350
v 0.258149 -0.042452 0.006350
v 0.258149 -0.042452 -0.006350
v 0.246184 -0.046760 -0.006350
v 0.246184 -0.046760 0.006350
v 0.268853 -0.037941 0.006350
v 0.268853 -0.037941 -0.006350
v 0.258149 -0.042452 -0.006350
v 0.258149 -0.042452 0.006350
v 0.278243 -0.033252 0.006350
v 0.278243 -0.033252 -0.006350
v 0.268853 -0.037941 -0.006350
v 0.268853 -0.037941 0.006350
v 0.286271 -0.028406 0.006350
v 0.286271 -0.028406 -0.006350
v 0.278243 -0.033252 -0.006350
v 0.278243 -0.033252 0.006350
v 0.292896 -0.023430 0.006350
v 0.292896 -0.023430 -0.006350
v 0.286271 -0.028406 -0.006350
v 0.286271 -0.028406 0.006350
v 0.298084 -0.018349 0.006350
v 0.298084 -0.018349 -0.006350
v 0.292896 -0.023430 -0.006350
v 0.292896 -0.023430 0.006350
v 0.301809 -0.013187 0.006350
v 0.301809 -0.013187 -0.006350
v 0.298084 -0.018349 -0.006350
v 0.298084 -0.018349 0.006350
v 0.304051 -0.007973 0.006350
v 0.304051 -0.007973 -0.006350
v 0.301809 -0.013187 -0.006350
v 0.301809 -0.013187 0.006350
v 0.304800 -0.002732 0.006350
v 0.304800 -0.002732 -0.006350
v 0.304051 -0.007973 -0.006350
v 0.304051 -0.007973 0.006350
v -0.027231 0.076200 -0.006350
v 0.010927 0.076200 0.006350
v -0.027231 0.076200 0.006350
v 0.010927 0.076200 -0.006350
v 0.304800 -0.002732 -0.006350
v 0.304800 0.002732 0.006350
v 0.304800 0.002732 -0.006350
v 0.304800 -0.002732 0.006350
v -0.203319 0.060449 0.006350
v -0.081382 0.074867 0.006350
v 0.010927 -0.076200 -0.006350
v -0.027231 -0.076200 0.006350
v 0.010927 -0.076200 0.006350
v -0.027231 -0.076200 -0.006350
v -0.181440 0.064505 -0.006350
v -0.133452 0.070918 -0.006350
v -0.158076 0.068006 -0.006350
v -0.203319 0.060449 -0.006350
v -0.107805 0.073212 -0.006350
v -0.081382 0.074867 -0.006350
v -0.241795 0.050830 -0.006350
v -0.223502 0.055876 -0.006350
v -0.299467 0.020346 -0.006350
v -0.054437 0.075866 -0.006350
v -0.292848 0.026951 -0.006350
v -0.303463 0.013609 -0.006350
v -0.283671 0.033363 -0.006350
v -0.027231 0.076200 -0.006350
v -0.258021 0.045360 -0.006350
v -0.272025 0.039519 -0.006350
v -0.304800 0.006808 -0.006350
v -0.304800 -0.006808 -0.006350
v -0.027231 -0.076200 -0.006350
v -0.054438 -0.075866 -0.006350
v -0.303463 -0.013609 -0.006350
v -0.299467 -0.020345 -0.006350
v -0.081382 -0.074867 -0.006350
v -0.203319 -0.060449 -0.006350
v -0.107805 -0.073212 -0.006350
v -0.133452 -0.070918 -0.006350
v -0.181440 -0.064505 -0.006350
v -0.158076 -0.068006 -0.006350
v -0.241795 -0.050830 -0.006350
v -0.223502 -0.055875 -0.006350
v -0.292848 -0.026951 -0.006350
v -0.283671 -0.033363 -0.006350
v -0.258021 -0.045360 -0.006350
v -0.272025 -0.039519 -0.006350
v 0.304800 -0.002732 -0.006350
v 0.304051 -0.007973 -0.006350
v 0.304800 0.002732 -0.006350
v 0.301809 -0.013187 -0.006350
v 0.093721 -0.073224 -0.006350
v 0.073394 -0.074521 -0.006350
v 0.113625 -0.071568 -0.006350
v 0.133006 -0.069561 -0.006350
v 0.301809 0.013187 -0.006350
v 0.304051 0.007973 -0.006350
v 0.169807 -0.064537 -0.006350
v 0.151765 -0.067213 -0.006350
v 0.187039 -0.061546 -0.006350
v 0.292896 0.023430 -0.006350
v 0.298084 0.018349 -0.006350
v 0.203373 -0.058255 -0.006350
v 0.278243 0.033252 -0.006350
v 0.286271 0.028406 -0.006350
v 0.278243 -0.033252 -0.006350
v 0.268853 -0.037941 -0.006350
v 0.258149 -0.042452 -0.006350
v 0.292896 -0.023430 -0.006350
v 0.286271 -0.028406 -0.006350
v 0.298084 -0.018349 -0.006350
v 0.093721 0.073224 -0.006350
v 0.073394 0.074521 -0.006350
v 0.133006 0.069561 -0.006350
v 0.113625 0.071568 -0.006350
v 0.187039 0.061546 -0.006350
v 0.151765 0.067213 -0.006350
v 0.169807 0.064537 -0.006350
v 0.268853 0.037941 -0.006350
v 0.258149 0.042452 -0.006350
v -0.258021 0.045360 0.006350
v -0.283671 0.033363 0.006350
v -0.272025 0.039519 0.006350
v -0.241795 0.050830 0.006350
v -0.292848 0.026951 0.006350
v -0.223502 0.055876 0.006350
v -0.133452 0.070918 0.006350
v -0.181440 0.064505 0.006350
v -0.158076 0.068006 0.006350
v -0.107805 0.073212 0.006350
v -0.027231 0.076200 0.006350
v -0.304800 -0.006808 0.006350
v -0.027231 -0.076200 0.006350
v -0.303463 -0.013609 0.006350
v -0.054438 -0.075866 0.006350
v -0.299467 -0.020345 0.006350
v -0.081382 -0.074867 0.006350
v -0.241795 -0.050830 0.006350
v -0.292848 -0.026951 0.006350
v -0.283671 -0.033363 0.006350
v -0.258021 -0.045360 0.006350
v -0.272025 -0.039519 0.006350
v -0.203319 -0.060449 0.006350
v -0.223502 -0.055875 0.006350
v -0.107805 -0.073212 0.006350
v -0.133452 -0.070918 0.006350
v -0.181440 -0.064505 0.006350
v -0.158076 -0.068006 0.006350
v 0.304800 0.002732 0.006350
v 0.304051 0.007973 0.006350
v 0.304800 -0.002732 0.006350
v 0.301809 0.013187 0.006350
v 0.093721 0.073224 0.006350
v 0.073394 0.074521 0.006350
v 0.113625 0.071568 0.006350
v 0.133006 0.069561 0.006350
v 0.301809 -0.013187 0.006350
v 0.304051 -0.007973 0.006350
v 0.169807 0.064537 0.006350
v 0.151765 0.067213 0.006350
v 0.187039 0.061546 0.006350
v 0.292896 -0.023430 0.006350
v 0.298084 -0.018349 0.006350
v 0.203373 0.058255 0.006350
v 0.278243 -0.033252 0.006350
v 0.286271 -0.028406 0.006350
v 0.278243 0.033252 0.006350
v 0.268853 0.037941 0.006350
v 0.258149 0.042452 0.006350
v 0.292896 0.023430 0.006350
v 0.286271 0.028406 0.006350
v 0.298084 0.018349 0.006350
v 0.093721 -0.073224 0.006350
v 0.073394 -0.074521 0.006350
v 0.133006 -0.069561 0.006350
v 0.113625 -0.071568 0.006350
v 0.187039 -0.061546 0.006350
v 0.151765 -0.067213 0.006350
v 0.169807 -0.064537 0.006350
v 0.268853 -0.037941 0.006350
v 0.258149 -0.042452 0.006350
vt 0.625000 0.169434
vt 0.375000 0.169434
vt 0.625000 0.158203
vt 0.625000 0.147461
vt 0.375000 0.136230
vt 0.625000 0.136230
vt 0.663574 0.523926
vt 0.646973 0.548340
vt 0.652344 0.541504
vt 0.663574 0.523926
vt 0.652344 0.541504
vt 0.657715 0.532471
vt 0.732422 0.487305
vt 0.720215 0.493164
vt 0.728027 0.491699
vt 0.720215 0.756958
vt 0.732422 0.762939
vt 0.728027 0.758423
vt 0.646973 0.701660
vt 0.657715 0.717529
vt 0.652344 0.708496
vt 0.625000 0.147461
vt 0.227661 0.500488
vt 0.125000 0.613770
vt 0.625000 0.158203
vt 0.227661 0.500488
vt 0.625000 0.147461
vt 0.279785 0.493164
vt 0.267334 0.487305
vt 0.271729 0.491699
vt 0.354248 0.547119
vt 0.344238 0.531006
vt 0.349365 0.540283
vt 0.338135 0.724854
vt 0.354248 0.700684
vt 0.349365 0.707275
vt 0.338135 0.724854
vt 0.349365 0.707275
vt 0.343994 0.716309
vt 0.267334 0.762817
vt 0.279785 0.756836
vt 0.271729 0.758423
vt 0.625000 0.897339
vt 0.375000 0.886169
vt 0.625000 0.886169
vt 0.375000 0.897339
vt 0.625000 0.908386
vt 0.375000 0.897339
vt 0.625000 0.897339
vt 0.375000 0.908386
vt 0.625000 0.919189
vt 0.375000 0.908386
vt 0.625000 0.908386
vt 0.375000 0.919189
vt 0.625000 0.929749
vt 0.375000 0.919189
vt 0.625000 0.919189
vt 0.375000 0.929749
vt 0.625000 0.939819
vt 0.375000 0.929749
vt 0.625000 0.929749
vt 0.375000 0.939819
vt 0.625000 0.949402
vt 0.375000 0.939819
vt 0.625000 0.939819
vt 0.375000 0.949402
vt 0.625000 0.958374
vt 0.375000 0.949402
vt 0.625000 0.949402
vt 0.375000 0.958374
vt 0.625000 0.999969
vt 0.375000 0.958374
vt 0.625000 0.958374
vt 0.375000 0.999969
vt 0.625000 0.041504
vt 0.375000 0.000000
vt 0.625000 0.000000
vt 0.375000 0.041504
vt 0.625000 0.050781
vt 0.375000 0.041504
vt 0.625000 0.041504
vt 0.375000 0.050781
vt 0.625000 0.060059
vt 0.375000 0.050781
vt 0.625000 0.050781
vt 0.375000 0.060059
vt 0.625000 0.070312
vt 0.375000 0.060059
vt 0.625000 0.060059
vt 0.375000 0.070312
vt 0.625000 0.080566
vt 0.375000 0.070312
vt 0.625000 0.070312
vt 0.375000 0.080566
vt 0.625000 0.091797
vt 0.375000 0.080566
vt 0.625000 0.080566
vt 0.375000 0.091797
vt 0.625000 0.102539
vt 0.375000 0.091797
vt 0.625000 0.091797
vt 0.375000 0.102539
vt 0.625000 0.113770
vt 0.375000 0.102539
vt 0.625000 0.102539
vt 0.375000 0.113770
vt 0.375000 0.352539
vt 0.625000 0.352539
vt 0.625000 0.363770
vt 0.375000 0.363770
vt 0.375000 0.341797
vt 0.625000 0.341797
vt 0.625000 0.352539
vt 0.375000 0.352539
vt 0.375000 0.330566
vt 0.625000 0.330566
vt 0.625000 0.341797
vt 0.375000 0.341797
vt 0.375000 0.320312
vt 0.625000 0.320312
vt 0.625000 0.330566
vt 0.375000 0.330566
vt 0.375000 0.310059
vt 0.625000 0.310059
vt 0.625000 0.320312
vt 0.375000 0.320312
vt 0.375000 0.300781
vt 0.625000 0.300781
vt 0.625000 0.310059
vt 0.375000 0.310059
vt 0.375000 0.291504
vt 0.625000 0.291504
vt 0.625000 0.300781
vt 0.375000 0.300781
vt 0.375000 0.250000
vt 0.625000 0.250000
vt 0.625000 0.291504
vt 0.375000 0.291504
vt 0.375000 0.208496
vt 0.625000 0.208496
vt 0.625000 0.250000
vt 0.375000 0.250000
vt 0.375000 0.199219
vt 0.625000 0.199219
vt 0.625000 0.208496
vt 0.375000 0.208496
vt 0.375000 0.189941
vt 0.625000 0.189941
vt 0.625000 0.199219
vt 0.375000 0.199219
vt 0.375000 0.179688
vt 0.625000 0.179688
vt 0.625000 0.189941
vt 0.375000 0.189941
vt 0.375000 0.169434
vt 0.625000 0.169434
vt 0.625000 0.179688
vt 0.375000 0.179688
vt 0.625000 0.136230
vt 0.375000 0.113770
vt 0.625000 0.113770
vt 0.375000 0.136230
vt 0.374756 0.611816
vt 0.625488 0.611816
vt 0.625000 0.620605
vt 0.375000 0.620605
vt 0.374023 0.603271
vt 0.625977 0.603271
vt 0.625488 0.611816
vt 0.374756 0.611816
vt 0.372559 0.594727
vt 0.627441 0.594971
vt 0.625977 0.603271
vt 0.374023 0.603271
vt 0.370850 0.586182
vt 0.629395 0.586670
vt 0.627441 0.594971
vt 0.372559 0.594727
vt 0.368652 0.577881
vt 0.631836 0.578369
vt 0.629395 0.586670
vt 0.370850 0.586182
vt 0.365723 0.569824
vt 0.635254 0.570557
vt 0.631836 0.578369
vt 0.368652 0.577881
vt 0.362305 0.562012
vt 0.638672 0.562744
vt 0.635254 0.570557
vt 0.365723 0.569824
vt 0.358643 0.554199
vt 0.642578 0.555420
vt 0.638672 0.562744
vt 0.362305 0.562012
vt 0.354248 0.547119
vt 0.646973 0.548340
vt 0.642578 0.555420
vt 0.358643 0.554199
vt 0.349365 0.540283
vt 0.652344 0.541504
vt 0.646973 0.548340
vt 0.354248 0.547119
vt 0.344238 0.531006
vt 0.657715 0.532471
vt 0.652344 0.541504
vt 0.349365 0.540283
vt 0.663574 0.523926
vt 0.344238 0.531006
vt 0.338379 0.522461
vt 0.657715 0.532471
vt 0.669434 0.518311
vt 0.338379 0.522461
vt 0.332031 0.517090
vt 0.663574 0.523926
vt 0.676270 0.513184
vt 0.332031 0.517090
vt 0.325439 0.512207
vt 0.669434 0.518311
vt 0.682617 0.508789
vt 0.325439 0.512207
vt 0.318359 0.507568
vt 0.676270 0.513184
vt 0.689941 0.504639
vt 0.318359 0.507568
vt 0.311035 0.503662
vt 0.682617 0.508789
vt 0.697266 0.500977
vt 0.311035 0.503662
vt 0.303467 0.500244
vt 0.689941 0.504639
vt 0.704590 0.497559
vt 0.303467 0.500244
vt 0.295654 0.497559
vt 0.697266 0.500977
vt 0.712402 0.495117
vt 0.295654 0.497559
vt 0.287842 0.495117
vt 0.704590 0.497559
vt 0.720215 0.493164
vt 0.287842 0.495117
vt 0.279785 0.493164
vt 0.712402 0.495117
vt 0.728027 0.491699
vt 0.279785 0.493164
vt 0.271729 0.491699
vt 0.720215 0.493164
vt 0.732422 0.487305
vt 0.271729 0.491699
vt 0.267334 0.487305
vt 0.728027 0.491699
vt 0.728027 0.758423
vt 0.267334 0.762817
vt 0.271729 0.758423
vt 0.732422 0.762939
vt 0.720215 0.756958
vt 0.271729 0.758423
vt 0.279785 0.756836
vt 0.728027 0.758423
vt 0.712402 0.754883
vt 0.279785 0.756836
vt 0.287598 0.754639
vt 0.720215 0.756958
vt 0.704590 0.752319
vt 0.287598 0.754639
vt 0.295654 0.751953
vt 0.712402 0.754883
vt 0.697266 0.749023
vt 0.295654 0.751953
vt 0.303223 0.748535
vt 0.704590 0.752319
vt 0.689941 0.745361
vt 0.303223 0.748535
vt 0.310791 0.744873
vt 0.697266 0.749023
vt 0.682617 0.741211
vt 0.310791 0.744873
vt 0.318115 0.740479
vt 0.689941 0.745361
vt 0.676270 0.736816
vt 0.318115 0.740479
vt 0.325195 0.735596
vt 0.682617 0.741211
vt 0.669434 0.731689
vt 0.325195 0.735596
vt 0.331787 0.730469
vt 0.676270 0.736816
vt 0.663574 0.726074
vt 0.331787 0.730469
vt 0.338135 0.724854
vt 0.669434 0.731689
vt 0.657715 0.717529
vt 0.338135 0.724854
vt 0.343994 0.716309
vt 0.663574 0.726074
vt 0.349365 0.707275
vt 0.652344 0.708496
vt 0.657715 0.717529
vt 0.343994 0.716309
vt 0.354248 0.700684
vt 0.646973 0.701660
vt 0.652344 0.708496
vt 0.349365 0.707275
vt 0.358398 0.693604
vt 0.642578 0.694580
vt 0.646973 0.701660
vt 0.354248 0.700684
vt 0.362305 0.686523
vt 0.638672 0.687256
vt 0.642578 0.694580
vt 0.358398 0.693604
vt 0.365723 0.678955
vt 0.635254 0.679443
vt 0.638672 0.687256
vt 0.362305 0.686523
vt 0.368408 0.671143
vt 0.631836 0.671631
vt 0.635254 0.679443
vt 0.365723 0.678955
vt 0.370850 0.663086
vt 0.629395 0.663330
vt 0.631836 0.671631
vt 0.368408 0.671143
vt 0.372559 0.655029
vt 0.627441 0.655029
vt 0.629395 0.663330
vt 0.370850 0.663086
vt 0.374023 0.646484
vt 0.625977 0.646729
vt 0.627441 0.655029
vt 0.372559 0.655029
vt 0.374756 0.637939
vt 0.625488 0.638184
vt 0.625977 0.646729
vt 0.374023 0.646484
vt 0.375000 0.629395
vt 0.625000 0.629395
vt 0.625488 0.638184
vt 0.374756 0.637939
vt 0.625000 0.363770
vt 0.267334 0.487305
vt 0.375000 0.363770
vt 0.732422 0.487305
vt 0.625000 0.629395
vt 0.375000 0.620605
vt 0.625000 0.620605
vt 0.375000 0.629395
vt 0.166626 0.525879
vt 0.216675 0.502197
vt 0.625000 0.158203
vt 0.227661 0.500488
vt 0.732422 0.762939
vt 0.375000 0.886169
vt 0.267334 0.762817
vt 0.625000 0.886169
vt 0.824219 0.519287
vt 0.804688 0.508545
vt 0.814941 0.513428
vt 0.833496 0.525879
vt 0.794434 0.504883
vt 0.783203 0.502197
vt 0.849121 0.541504
vt 0.841797 0.533447
vt 0.873047 0.591553
vt 0.772461 0.500488
vt 0.870117 0.580811
vt 0.874512 0.602783
vt 0.866211 0.570312
vt 0.761230 0.500000
vt 0.855957 0.550537
vt 0.861328 0.560059
vt 0.875000 0.613770
vt 0.732422 0.487305
vt 0.732422 0.762939
vt 0.875000 0.636230
vt 0.761230 0.750000
vt 0.772461 0.749512
vt 0.874512 0.647217
vt 0.873047 0.658447
vt 0.783203 0.747803
vt 0.833496 0.724121
vt 0.794434 0.745117
vt 0.804688 0.741455
vt 0.824219 0.730713
vt 0.814941 0.736572
vt 0.849121 0.708496
vt 0.841797 0.716553
vt 0.870117 0.669189
vt 0.866211 0.679688
vt 0.855957 0.699463
vt 0.861328 0.689941
vt 0.625000 0.629395
vt 0.625488 0.638184
vt 0.625000 0.620605
vt 0.625977 0.646729
vt 0.720215 0.756958
vt 0.720215 0.493164
vt 0.704590 0.752319
vt 0.712402 0.754883
vt 0.697266 0.749023
vt 0.689941 0.745361
vt 0.625977 0.603271
vt 0.625488 0.611816
vt 0.676270 0.736816
vt 0.682617 0.741211
vt 0.669434 0.731689
vt 0.629395 0.586670
vt 0.627441 0.594971
vt 0.657715 0.717529
vt 0.663574 0.726074
vt 0.635254 0.570557
vt 0.631836 0.578369
vt 0.635254 0.679443
vt 0.646973 0.701660
vt 0.638672 0.687256
vt 0.642578 0.694580
vt 0.629395 0.663330
vt 0.631836 0.671631
vt 0.627441 0.655029
vt 0.704590 0.497559
vt 0.712402 0.495117
vt 0.689941 0.504639
vt 0.697266 0.500977
vt 0.669434 0.518311
vt 0.682617 0.508789
vt 0.676270 0.513184
vt 0.646973 0.548340
vt 0.663574 0.523926
vt 0.638672 0.562744
vt 0.642578 0.555420
vt 0.144165 0.550537
vt 0.133667 0.570312
vt 0.138428 0.560059
vt 0.150879 0.541504
vt 0.129883 0.580811
vt 0.625000 0.158203
vt 0.166626 0.525879
vt 0.158325 0.533447
vt 0.195312 0.508545
vt 0.175537 0.519287
vt 0.185181 0.513428
vt 0.166626 0.525879
vt 0.205811 0.504883
vt 0.216675 0.502197
vt 0.238892 0.500000
vt 0.125000 0.613770
vt 0.227661 0.500488
vt 0.267334 0.487305
vt 0.125000 0.636230
vt 0.267334 0.762817
vt 0.238892 0.750000
vt 0.125488 0.647217
vt 0.227661 0.749512
vt 0.127197 0.658447
vt 0.216675 0.747803
vt 0.150879 0.708496
vt 0.129883 0.669189
vt 0.133667 0.679688
vt 0.144165 0.699463
vt 0.138428 0.689941
vt 0.166626 0.724121
vt 0.158325 0.716553
vt 0.205811 0.745117
vt 0.195312 0.741455
vt 0.175537 0.730713
vt 0.185181 0.736572
vt 0.375000 0.620605
vt 0.374756 0.611816
vt 0.375000 0.629395
vt 0.374023 0.603271
vt 0.279785 0.493164
vt 0.279785 0.756836
vt 0.295654 0.497559
vt 0.287842 0.495117
vt 0.303467 0.500244
vt 0.311035 0.503662
vt 0.374023 0.646484
vt 0.374756 0.637939
vt 0.325439 0.512207
vt 0.318359 0.507568
vt 0.332031 0.517090
vt 0.370850 0.663086
vt 0.372559 0.655029
vt 0.344238 0.531006
vt 0.338379 0.522461
vt 0.365723 0.678955
vt 0.368408 0.671143
vt 0.365723 0.569824
vt 0.354248 0.547119
vt 0.362305 0.562012
vt 0.358643 0.554199
vt 0.370850 0.586182
vt 0.368652 0.577881
vt 0.372559 0.594727
vt 0.295654 0.751953
vt 0.287598 0.754639
vt 0.310791 0.744873
vt 0.303223 0.748535
vt 0.331787 0.730469
vt 0.318115 0.740479
vt 0.325195 0.735596
vt 0.354248 0.700684
vt 0.338135 0.724854
vt 0.362305 0.686523
vt 0.358398 0.693604
vn -0.707107 0.707107 -0.000000
vn -0.707107 0.707107 -0.000000
vn -0.707107 0.707107 -0.000000
vn -0.982062 0.188556 -0.000000
vn -0.982062 0.188556 -0.000000
vn -0.982062 0.188556 -0.000000
vn 0.000000 -0.000000 -1.000000
vn 0.000000 -0.000000 -1.000000
vn 0.000000 -0.000000 -1.000000
vn 0.000000 -0.000000 -1.000000
vn 0.000000 -0.000000 -1.000000
vn 0.000000 -0.000000 -1.000000
vn 0.000000 -0.000000 -1.000000
vn 0.000000 -0.000000 -1.000000
vn 0.000000 -0.000000 -1.000000
vn 0.000000 -0.000000 -1.000000
vn 0.000000 -0.000000 -1.000000
vn 0.000000 -0.000000 -1.000000
vn 0.000000 -0.000000 -1.000000
vn 0.000000 -0.000000 1.000000
vn 0.000000 -0.000000 1.000000
vn 0.000000 -0.000000 1.000000
vn 0.000000 -0.000000 1.000000
vn 0.000000 -0.000000 1.000000
vn 0.000000 -0.000000 1.000000
vn 0.000000 -0.000000 1.000000
vn 0.000000 -0.000000 1.000000
vn 0.000000 -0.000000 1.000000
vn 0.000000 -0.000000 1.000000
vn 0.000000 -0.000000 1.000000
vn 0.000000 -0.000000 1.000000
vn 0.000000 -0.000000 1.000000
vn 0.000000 -0.000000 1.000000
vn 0.000000 -0.000000 1.000000
vn 0.000000 -0.000000 1.000000
vn 0.000000 -0.000000 1.000000
vn -0.015746 -0.999876 -0.000000
vn -0.015746 -0.999876 -0.000000
vn -0.015746 -0.999876 -0.000000
vn -0.015746 -0.999876 -0.000000
vn -0.039340 -0.999226 -0.000000
vn -0.039340 -0.999226 -0.000000
vn -0.039340 -0.999226 -0.000000
vn -0.039340 -0.999226 -0.000000
vn -0.062868 -0.998022 -0.000000
vn -0.062868 -0.998022 -0.000000
vn -0.062868 -0.998022 -0.000000
vn -0.062868 -0.998022 -0.000000
vn -0.086971 -0.996211 -0.000000
vn -0.086971 -0.996211 -0.000000
vn -0.086971 -0.996211 -0.000000
vn -0.086971 -0.996211 -0.000000
vn -0.118213 -0.992988 -0.000000
vn -0.118213 -0.992988 -0.000000
vn -0.118213 -0.992988 -0.000000
vn -0.118213 -0.992988 -0.000000
vn -0.149108 -0.988821 -0.000000
vn -0.149108 -0.988821 -0.000000
vn -0.149108 -0.988821 -0.000000
vn -0.149108 -0.988821 -0.000000
vn -0.180962 -0.983490 -0.000000
vn -0.180962 -0.983490 -0.000000
vn -0.180962 -0.983490 -0.000000
vn -0.180962 -0.983490 -0.000000
vn -0.220261 -0.975441 -0.000000
vn -0.220261 -0.975441 -0.000000
vn -0.220261 -0.975441 -0.000000
vn -0.220261 -0.975441 -0.000000
vn -0.268458 -0.963291 -0.000000
vn -0.268458 -0.963291 -0.000000
vn -0.268458 -0.963291 -0.000000
vn -0.268458 -0.963291 -0.000000
vn -0.323316 -0.946291 -0.000000
vn -0.323316 -0.946291 -0.000000
vn -0.323316 -0.946291 -0.000000
vn -0.323316 -0.946291 -0.000000
vn -0.386294 -0.922376 -0.000000
vn -0.386294 -0.922376 -0.000000
vn -0.386294 -0.922376 -0.000000
vn -0.386294 -0.922376 -0.000000
vn -0.466072 -0.884747 -0.000000
vn -0.466072 -0.884747 -0.000000
vn -0.466072 -0.884747 -0.000000
vn -0.466072 -0.884747 -0.000000
vn -0.574518 -0.818492 -0.000000
vn -0.574518 -0.818492 -0.000000
vn -0.574518 -0.818492 -0.000000
vn -0.574518 -0.818492 -0.000000
vn -0.707107 -0.707107 -0.000000
vn -0.707107 -0.707107 -0.000000
vn -0.707107 -0.707107 -0.000000
vn -0.707107 -0.707107 -0.000000
vn -0.858880 -0.512176 -0.000000
vn -0.858880 -0.512176 -0.000000
vn -0.858880 -0.512176 -0.000000
vn -0.858880 -0.512176 -0.000000
vn -0.982062 -0.188556 -0.000000
vn -0.982062 -0.188556 -0.000000
vn -0.982062 -0.188556 -0.000000
vn -0.982062 -0.188556 -0.000000
vn -0.015746 0.999876 -0.000000
vn -0.015746 0.999876 -0.000000
vn -0.015746 0.999876 -0.000000
vn -0.015746 0.999876 -0.000000
vn -0.039340 0.999226 -0.000000
vn -0.039340 0.999226 -0.000000
vn -0.039340 0.999226 -0.000000
vn -0.039340 0.999226 -0.000000
vn -0.062868 0.998022 -0.000000
vn -0.062868 0.998022 -0.000000
vn -0.062868 0.998022 -0.000000
vn -0.062868 0.998022 -0.000000
vn -0.086971 0.996211 -0.000000
vn -0.086971 0.996211 -0.000000
vn -0.086971 0.996211 -0.000000
vn -0.086971 0.996211 -0.000000
vn -0.118213 0.992988 -0.000000
vn -0.118213 0.992988 -0.000000
vn -0.118213 0.992988 -0.000000
vn -0.118213 0.992988 -0.000000
vn -0.149108 0.988821 -0.000000
vn -0.149108 0.988821 -0.000000
vn -0.149108 0.988821 -0.000000
vn -0.149108 0.988821 -0.000000
vn -0.180962 0.983490 -0.000000
vn -0.180962 0.983490 -0.000000
vn -0.180962 0.983490 -0.000000
vn -0.180962 0.983490 -0.000000
vn -0.220261 0.975441 -0.000000
vn -0.220261 0.975441 -0.000000
vn -0.220261 0.975441 -0.000000
vn -0.220261 0.975441 -0.000000
vn -0.268458 0.963291 -0.000000
vn -0.268458 0.963291 -0.000000
vn -0.268458 0.963291 -0.000000
vn -0.268458 0.963291 -0.000000
vn -0.323316 0.946291 -0.000000
vn -0.323316 0.946291 -0.000000
vn -0.323316 0.946291 -0.000000
vn -0.323316 0.946291 -0.000000
vn -0.386294 0.922376 -0.000000
vn -0.386294 0.922376 -0.000000
vn -0.386294 0.922376 -0.000000
vn -0.386294 0.922376 -0.000000
vn -0.466072 0.884747 -0.000000
vn -0.466072 0.884747 -0.000000
vn -0.466072 0.884747 -0.000000
vn -0.466072 0.884747 -0.000000
vn -0.574518 0.818492 -0.000000
vn -0.574518 0.818492 -0.000000
vn -0.574518 0.818492 -0.000000
vn -0.574518 0.818492 -0.000000
vn -1.000000 -0.000000 -0.000000
vn -1.000000 -0.000000 -0.000000
vn -1.000000 -0.000000 -0.000000
vn -1.000000 -0.000000 -0.000000
vn 0.989950 0.141421 -0.000000
vn 0.989950 0.141421 -0.000000
vn 0.989950 0.141421 -0.000000
vn 0.989950 0.141421 -0.000000
vn 0.919551 0.392971 -0.000000
vn 0.919551 0.392971 -0.000000
vn 0.919551 0.392971 -0.000000
vn 0.919551 0.392971 -0.000000
vn 0.812132 0.583474 -0.000000
vn 0.812132 0.583474 -0.000000
vn 0.812132 0.583474 -0.000000
vn 0.812132 0.583474 -0.000000
vn 0.699207 0.714919 -0.000000
vn 0.699207 0.714919 -0.000000
vn 0.699207 0.714919 -0.000000
vn 0.699207 0.714919 -0.000000
vn 0.597481 0.801883 -0.000000
vn 0.597481 0.801883 -0.000000
vn 0.597481 0.801883 -0.000000
vn 0.597481 0.801883 -0.000000
vn 0.517954 0.855409 -0.000000
vn 0.517954 0.855409 -0.000000
vn 0.517954 0.855409 -0.000000
vn 0.517954 0.855409 -0.000000
vn 0.447214 0.894427 -0.000000
vn 0.447214 0.894427 -0.000000
vn 0.447214 0.894427 -0.000000
vn 0.447214 0.894427 -0.000000
vn 0.386294 0.922376 -0.000000
vn 0.386294 0.922376 -0.000000
vn 0.386294 0.922376 -0.000000
vn 0.386294 0.922376 -0.000000
vn 0.339839 0.940484 -0.000000
vn 0.339839 0.940484 -0.000000
vn 0.339839 0.940484 -0.000000
vn 0.339839 0.940484 -0.000000
vn 0.299622 0.954058 -0.000000
vn 0.299622 0.954058 -0.000000
vn 0.299622 0.954058 -0.000000
vn 0.299622 0.954058 -0.000000
vn 0.259129 0.965843 -0.000000
vn 0.259129 0.965843 -0.000000
vn 0.259129 0.965843 -0.000000
vn 0.259129 0.965843 -0.000000
vn 0.227726 0.973725 -0.000000
vn 0.227726 0.973725 -0.000000
vn 0.227726 0.973725 -0.000000
vn 0.227726 0.973725 -0.000000
vn 0.197636 0.980276 -0.000000
vn 0.197636 0.980276 -0.000000
vn 0.197636 0.980276 -0.000000
vn 0.197636 0.980276 -0.000000
vn 0.173336 0.984863 -0.000000
vn 0.173336 0.984863 -0.000000
vn 0.173336 0.984863 -0.000000
vn 0.173336 0.984863 -0.000000
vn 0.149108 0.988821 -0.000000
vn 0.149108 0.988821 -0.000000
vn 0.149108 0.988821 -0.000000
vn 0.149108 0.988821 -0.000000
vn 0.125973 0.992034 -0.000000
vn 0.125973 0.992034 -0.000000
vn 0.125973 0.992034 -0.000000
vn 0.125973 0.992034 -0.000000
vn 0.102630 0.994720 -0.000000
vn 0.102630 0.994720 -0.000000
vn 0.102630 0.994720 -0.000000
vn 0.102630 0.994720 -0.000000
vn 0.086291 0.996270 -0.000000
vn 0.086291 0.996270 -0.000000
vn 0.086291 0.996270 -0.000000
vn 0.086291 0.996270 -0.000000
vn 0.062868 0.998022 -0.000000
vn 0.062868 0.998022 -0.000000
vn 0.062868 0.998022 -0.000000
vn 0.062868 0.998022 -0.000000
vn 0.047191 0.998886 -0.000000
vn 0.047191 0.998886 -0.000000
vn 0.047191 0.998886 -0.000000
vn 0.047191 0.998886 -0.000000
vn 0.023615 0.999721 -0.000000
vn 0.023615 0.999721 -0.000000
vn 0.023615 0.999721 -0.000000
vn 0.023615 0.999721 -0.000000
vn 0.007874 0.999969 -0.000000
vn 0.007874 0.999969 -0.000000
vn 0.007874 0.999969 -0.000000
vn 0.007874 0.999969 -0.000000
vn 0.007874 -0.999969 -0.000000
vn 0.007874 -0.999969 -0.000000
vn 0.007874 -0.999969 -0.000000
vn 0.007874 -0.999969 -0.000000
vn 0.023615 -0.999721 -0.000000
vn 0.023615 -0.999721 -0.000000
vn 0.023615 -0.999721 -0.000000
vn 0.023615 -0.999721 -0.000000
vn 0.047191 -0.998886 -0.000000
vn 0.047191 -0.998886 -0.000000
vn 0.047191 -0.998886 -0.000000
vn 0.047191 -0.998886 -0.000000
vn 0.062868 -0.998022 -0.000000
vn 0.062868 -0.998022 -0.000000
vn 0.062868 -0.998022 -0.000000
vn 0.062868 -0.998022 -0.000000
vn 0.086291 -0.996270 -0.000000
vn 0.086291 -0.996270 -0.000000
vn 0.086291 -0.996270 -0.000000
vn 0.086291 -0.996270 -0.000000
vn 0.102630 -0.994720 -0.000000
vn 0.102630 -0.994720 -0.000000
vn 0.102630 -0.994720 -0.000000
vn 0.102630 -0.994720 -0.000000
vn 0.125973 -0.992034 -0.000000
vn 0.125973 -0.992034 -0.000000
vn 0.125973 -0.992034 -0.000000
vn 0.125973 -0.992034 -0.000000
vn 0.149108 -0.988821 -0.000000
vn 0.149108 -0.988821 -0.000000
vn 0.149108 -0.988821 -0.000000
vn 0.149108 -0.988821 -0.000000
vn 0.173336 -0.984863 -0.000000
vn 0.173336 -0.984863 -0.000000
vn 0.173336 -0.984863 -0.000000
vn 0.173336 -0.984863 -0.000000
vn 0.197636 -0.980276 -0.000000
vn 0.197636 -0.980276 -0.000000
vn 0.197636 -0.980276 -0.000000
vn 0.197636 -0.980276 -0.000000
vn 0.227726 -0.973725 -0.000000
vn 0.227726 -0.973725 -0.000000
vn 0.227726 -0.973725 -0.000000
vn 0.227726 -0.973725 -0.000000
vn 0.259129 -0.965843 -0.000000
vn 0.259129 -0.965843 -0.000000
vn 0.259129 -0.965843 -0.000000
vn 0.259129 -0.965843 -0.000000
vn 0.299622 -0.954058 -0.000000
vn 0.299622 -0.954058 -0.000000
vn 0.299622 -0.954058 -0.000000
vn 0.299622 -0.954058 -0.000000
vn 0.339839 -0.940484 -0.000000
vn 0.339839 -0.940484 -0.000000
vn 0.339839 -0.940484 -0.000000
vn 0.339839 -0.940484 -0.000000
vn 0.386294 -0.922376 -0.000000
vn 0.386294 -0.922376 -0.000000
vn 0.386294 -0.922376 -0.000000
vn 0.386294 -0.922376 -0.000000
vn 0.447214 -0.894427 -0.000000
vn 0.447214 -0.894427 -0.000000
vn 0.447214 -0.894427 -0.000000
vn 0.447214 -0.894427 -0.000000
vn 0.517954 -0.855409 -0.000000
vn 0.517954 -0.855409 -0.000000
vn 0.517954 -0.855409 -0.000000
vn 0.517954 -0.855409 -0.000000
vn 0.597481 -0.801883 -0.000000
vn 0.597481 -0.801883 -0.000000
vn 0.597481 -0.801883 -0.000000
vn 0.597481 -0.801883 -0.000000
vn 0.699207 -0.714919 -0.000000
vn 0.699207 -0.714919 -0.000000
vn 0.699207 -0.714919 -0.000000
vn 0.699207 -0.714919 -0.000000
vn 0.812132 -0.583474 -0.000000
vn 0.812132 -0.583474 -0.000000
vn 0.812132 -0.583474 -0.000000
vn 0.812132 -0.583474 -0.000000
vn 0.919551 -0.392971 -0.000000
vn 0.919551 -0.392971 -0.000000
vn 0.919551 -0.392971 -0.000000
vn 0.919551 -0.392971 -0.000000
vn 0.989950 -0.141421 -0.000000
vn 0.989950 -0.141421 -0.000000
vn 0.989950 -0.141421 -0.000000
vn 0.989950 -0.141421 -0.000000
vn 0.000000 1.000000 -0.000000
vn 0.000000 1.000000 -0.000000
vn 0.000000 1.000000 -0.000000
vn 0.000000 1.000000 -0.000000
vn 1.000000 -0.000000 -0.000000
vn 1.000000 -0.000000 -0.000000
vn 1.000000 -0.000000 -0.000000
vn 1.000000 -0.000000 -0.000000
vn 0.000000 -0.000000 1.000000
vn 0.000000 -0.000000 1.000000
vn 0.000000 -1.000000 -0.000000
vn 0.000000 -1.000000 -0.000000
vn 0.000000 -1.000000 -0.000000
vn 0.000000 -1.000000 -0.000000
vn 0.000000 -0.000000 -1.000000
vn 0.000000 -0.000000 -1.000000
vn 0.000000 -0.000000 -1.000000
vn 0.000000 -0.000000 -1.000000
vn 0.000000 -0.000000 -1.000000
vn 0.000000 -0.000000 -1.000000
vn 0.000000 -0.000000 -1.000000
vn 0.000000 -0.000000 -1.000000
vn 0.000000 -0.000000 -1.000000
vn 0.000000 -0.000000 -1.000000
vn 0.000000 -0.000000 -1.000000
vn 0.000000 -0.000000 -1.000000
vn 0.000000 -0.000000 -1.000000
vn 0.000000 -0.000000 -1.000000
vn 0.000000 -0.000000 -1.000000
vn 0.000000 -0.000000 -1.000000
vn 0.000000 -0.000000 -1.000000
vn 0.000000 -0.000000 -1.000000
vn 0.000000 -0.000000 -1.000000
vn 0.000000 -0.000000 -1.000000
vn 0.000000 -0.000000 -1.000000
vn 0.000000 -0.000000 -1.000000
vn 0.000000 -0.000000 -1.000000
vn 0.000000 -0.000000 -1.000000
vn 0.000000 -0.000000 -1.000000
vn 0.000000 -0.000000 -1.000000
vn 0.000000 -0.000000 -1.000000
vn 0.000000 -0.000000 -1.000000
vn 0.000000 -0.000000 -1.000000
vn 0.000000 -0.000000 -1.000000
vn 0.000000 -0.000000 -1.000000
vn 0.000000 -0.000000 -1.000000
vn 0.000000 -0.000000 -1.000000
vn 0.000000 -0.000000 -1.000000
vn 0.000000 -0.000000 -1.000000
vn 0.000000 -0.000000 -1.000000
vn 0.000000 -0.000000 -1.000000
vn 0.000000 -0.000000 -1.000000
vn 0.000000 -0.000000 -1.000000
vn 0.000000 -0.000000 -1.000000
vn 0.000000 -0.000000 -1.000000
vn 0.000000 -0.000000 -1.000000
vn 0.000000 -0.000000 -1.000000
vn 0.000000 -0.000000 -1.000000
vn 0.000000 -0.000000 -1.000000
vn 0.000000 -0.000000 -1.000000
vn 0.000000 -0.000000 -1.000000
vn 0.000000 -0.000000 -1.000000
vn 0.000000 -0.000000 -1.000000
vn 0.000000 -0.000000 -1.000000
vn 0.000000 -0.000000 -1.000000
vn 0.000000 -0.000000 -1.000000
vn 0.000000 -0.000000 -1.000000
vn 0.000000 -0.000000 -1.000000
vn 0.000000 -0.000000 -1.000000
vn 0.000000 -0.000000 -1.000000
vn 0.000000 -0.000000 -1.000000
vn 0.000000 -0.000000 -1.000000
vn 0.000000 -0.000000 -1.000000
vn 0.000000 -0.000000 -1.000000
vn 0.000000 -0.000000 -1.000000
vn 0.000000 -0.000000 -1.000000
vn 0.000000 -0.000000 -1.000000
vn 0.000000 -0.000000 -1.000000
vn 0.000000 -0.000000 -1.000000
vn 0.000000 -0.000000 -1.000000
vn 0.000000 -0.000000 -1.000000
vn 0.000000 -0.000000 1.000000
vn 0.000000 -0.000000 1.000000
vn 0.000000 -0.000000 1.000000
vn 0.000000 -0.000000 1.000000
vn 0.000000 -0.000000 1.000000
vn 0.000000 -0.000000 1.000000
vn 0.000000 -0.000000 1.000000
vn 0.000000 -0.000000 1.000000
vn 0.000000 -0.000000 1.000000
vn 0.000000 -0.000000 1.000000
vn 0.000000 -0.000000 1.000000
vn 0.000000 -0.000000 1.000000
vn 0.000000 -0.000000 1.000000
vn 0.000000 -0.000000 1.000000
vn 0.000000 -0.000000 1.000000
vn 0.000000 -0.000000 1.000000
vn 0.000000 -0.000000 1.000000
vn 0.000000 -0.000000 1.000000
vn 0.000000 -0.000000 1.000000
vn 0.000000 -0.000000 1.000000
vn 0.000000 -0.000000 1.000000
vn 0.000000 -0.000000 1.000000
vn 0.000000 -0.000000 1.000000
vn 0.000000 -0.000000 1.000000
vn 0.000000 -0.000000 1.000000
vn 0.000000 -0.000000 1.000000
vn 0.000000 -0.000000 1.000000
vn 0.000000 -0.000000 1.000000
vn 0.000000 -0.000000 1.000000
vn 0.000000 -0.000000 1.000000
vn 0.000000 -0.000000 1.000000
vn 0.000000 -0.000000 1.000000
vn 0.000000 -0.000000 1.000000
vn 0.000000 -0.000000 1.000000
vn 0.000000 -0.000000 1.000000
vn 0.000000 -0.000000 1.000000
vn 0.000000 -0.000000 1.000000
vn 0.000000 -0.000000 1.000000
vn 0.000000 -0.000000 1.000000
vn 0.000000 -0.000000 1.000000
vn 0.000000 -0.000000 1.000000
vn 0.000000 -0.000000 1.000000
vn 0.000000 -0.000000 1.000000
vn 0.000000 -0.000000 1.000000
vn 0.000000 -0.000000 1.000000
vn 0.000000 -0.000000 1.000000
vn 0.000000 -0.000000 1.000000
vn 0.000000 -0.000000 1.000000
vn 0.000000 -0.000000 1.000000
vn 0.000000 -0.000000 1.000000
vn 0.000000 -0.000000 1.000000
vn 0.000000 -0.000000 1.000000
vn 0.000000 -0.000000 1.000000
vn 0.000000 -0.000000 1.000000
vn 0.000000 -0.000000 1.000000
vn 0.000000 -0.000000 1.000000
vn 0.000000 -0.000000 1.000000
vn 0.000000 -0.000000 1.000000
vn 0.000000 -0.000000 1.000000
vn 0.000000 -0.000000 1.000000
vn 0.000000 -0.000000 1.000000
g pathmarker_Material
usemtl Material
f 2/2/2 3/3/3 1/1/1
f 5/5/5 6/6/6 4/4/4
f 8/8/8 9/9/9 7/7/7
f 9/11/9 10/12/10 7/10/7
f 12/14/12 13/15/13 11/13/11
f 15/17/15 16/18/16 14/16/14
f 18/20/18 19/21/19 17/19/17
f 21/23/21 22/24/22 20/22/20
f 21/26/21 20/27/20 23/25/23
f 25/29/25 26/30/26 24/28/24
f 28/32/28 29/33/29 27/31/27
f 31/35/31 32/36/32 30/34/30
f 32/38/32 33/39/33 30/37/30
f 35/41/35 36/42/36 34/40/34
f 38/44/38 39/45/39 37/43/37
f 37/43/37 40/46/40 38/44/38
f 42/48/42 43/49/43 41/47/41
f 41/47/41 44/50/44 42/48/42
f 46/52/46 47/53/47 45/51/45
f 45/51/45 48/54/48 46/52/46
f 50/56/50 51/57/51 49/55/49
f 49/55/49 52/58/52 50/56/50
f 54/60/54 55/61/55 53/59/53
f 53/59/53 56/62/56 54/60/54
f 58/64/58 59/65/59 57/63/57
f 57/63/57 60/66/60 58/64/58
f 62/68/62 63/69/63 61/67/61
f 61/67/61 64/70/64 62/68/62
f 66/72/66 67/73/67 65/71/65
f 65/71/65 68/74/68 66/72/66
f 70/76/70 71/77/71 69/75/69
f 69/75/69 72/78/72 70/76/70
f 74/80/74 75/81/75 73/79/73
f 73/79/73 76/82/76 74/80/74
f 78/84/78 79/85/79 77/83/77
f 77/83/77 80/86/80 78/84/78
f 82/88/82 83/89/83 81/87/81
f 81/87/81 84/90/84 82/88/82
f 86/92/86 87/93/87 85/91/85
f 85/91/85 88/94/88 86/92/86
f 90/96/90 91/97/91 89/95/89
f 89/95/89 92/98/92 90/96/90
f 94/100/94 95/101/95 93/99/93
f 93/99/93 96/102/96 94/100/94
f 98/104/98 99/105/99 97/103/97
f 97/103/97 100/106/100 98/104/98
f 102/108/102 103/109/103 101/107/101
f 104/110/104 101/107/101 103/109/103
f 106/112/106 107/113/107 105/111/105
f 108/114/108 105/111/105 107/113/107
f 110/116/110 111/117/111 109/115/109
f 112/118/112 109/115/109 111/117/111
f 114/120/114 115/121/115 113/119/113
f 116/122/116 113/119/113 115/121/115
f 118/124/118 119/125/119 117/123/117
f 120/126/120 117/123/117 119/125/119
f 122/128/122 123/129/123 121/127/121
f 124/130/124 121/127/121 123/129/123
f 126/132/126 127/133/127 125/131/125
f 128/134/128 125/131/125 127/133/127
f 130/136/130 131/137/131 129/135/129
f 132/138/132 129/135/129 131/137/131
f 134/140/134 135/141/135 133/139/133
f 136/142/136 133/139/133 135/141/135
f 138/144/138 139/145/139 137/143/137
f 140/146/140 137/143/137 139/145/139
f 142/148/142 143/149/143 141/147/141
f 144/150/144 141/147/141 143/149/143
f 146/152/146 147/153/147 145/151/145
f 148/154/148 145/151/145 147/153/147
f 150/156/150 151/157/151 149/155/149
f 152/158/152 149/155/149 151/157/151
f 154/160/154 155/161/155 153/159/153
f 153/159/153 156/162/156 154/160/154
f 158/164/158 159/165/159 157/163/157
f 160/166/160 157/163/157 159/165/159
f 162/168/162 163/169/163 161/167/161
f 164/170/164 161/167/161 163/169/163
f 166/172/166 167/173/167 165/171/165
f 168/174/168 165/171/165 167/173/167
f 170/176/170 171/177/171 169/175/169
f 172/178/172 169/175/169 171/177/171
f 174/180/174 175/181/175 173/179/173
f 176/182/176 173/179/173 175/181/175
f 178/184/178 179/185/179 177/183/177
f 180/186/180 177/183/177 179/185/179
f 182/188/182 183/189/183 181/187/181
f 184/190/184 181/187/181 183/189/183
f 186/192/186 187/193/187 185/191/185
f 188/194/188 185/191/185 187/193/187
f 190/196/190 191/197/191 189/195/189
f 192/198/192 189/195/189 191/197/191
f 194/200/194 195/201/195 193/199/193
f 196/202/196 193/199/193 195/201/195
f 198/204/198 199/205/199 197/203/197
f 200/206/200 197/203/197 199/205/199
f 202/208/202 203/209/203 201/207/201
f 201/207/201 204/210/204 202/208/202
f 206/212/206 207/213/207 205/211/205
f 205/211/205 208/214/208 206/212/206
f 210/216/210 211/217/211 209/215/209
f 209/215/209 212/218/212 210/216/210
f 214/220/214 215/221/215 213/219/213
f 213/219/213 216/222/216 214/220/214
f 218/224/218 219/225/219 217/223/217
f 217/223/217 220/226/220 218/224/218
f 222/228/222 223/229/223 221/227/221
f 221/227/221 224/230/224 222/228/222
f 226/232/226 227/233/227 225/231/225
f 225/231/225 228/234/228 226/232/226
f 230/236/230 231/237/231 229/235/229
f 229/235/229 232/238/232 230/236/230
f 234/240/234 235/241/235 233/239/233
f 233/239/233 236/242/236 234/240/234
f 238/244/238 239/245/239 237/243/237
f 237/243/237 240/246/240 238/244/238
f 242/248/242 243/249/243 241/247/241
f 241/247/241 244/250/244 242/248/242
f 246/252/246 247/253/247 245/251/245
f 245/251/245 248/254/248 246/252/246
f 250/256/250 251/257/251 249/255/249
f 249/255/249 252/258/252 250/256/250
f 254/260/254 255/261/255 253/259/253
f 253/259/253 256/262/256 254/260/254
f 258/264/258 259/265/259 257/263/257
f 257/263/257 260/266/260 258/264/258
f 262/268/262 263/269/263 261/267/261
f 261/267/261 264/270/264 262/268/262
f 266/272/266 267/273/267 265/271/265
f 265/271/265 268/274/268 266/272/266
f 270/276/270 271/277/271 269/275/269
f 269/275/269 272/278/272 270/276/270
f 274/280/274 275/281/275 273/279/273
f 273/279/273 276/282/276 274/280/274
f 278/284/278 279/285/279 277/283/277
f 277/283/277 280/286/280 278/284/278
f 282/288/282 283/289/283 281/287/281
f 281/287/281 284/290/284 282/288/282
f 286/292/286 287/293/287 285/291/285
f 285/291/285 288/294/288 286/292/286
f 290/296/290 291/297/291 289/295/289
f 292/298/292 289/295/289 291/297/291
f 294/300/294 295/301/295 293/299/293
f 296/302/296 293/299/293 295/301/295
f 298/304/298 299/305/299 297/303/297
f 300/306/300 297/303/297 299/305/299
f 302/308/302 303/309/303 301/307/301
f 304/310/304 301/307/301 303/309/303
f 306/312/306 307/313/307 305/311/305
f 308/314/308 305/311/305 307/313/307
f 310/316/310 311/317/311 309/315/309
f 312/318/312 309/315/309 311/317/311
f 314/320/314 315/321/315 313/319/313
f 316/322/316 313/319/313 315/321/315
f 318/324/318 319/325/319 317/323/317
f 320/326/320 317/323/317 319/325/319
f 322/328/322 323/329/323 321/327/321
f 324/330/324 321/327/321 323/329/323
f 326/332/326 327/333/327 325/331/325
f 328/334/328 325/331/325 327/333/327
f 330/336/330 331/337/331 329/335/329
f 332/338/332 329/335/329 331/337/331
f 334/340/334 335/341/335 333/339/333
f 333/339/333 336/342/336 334/340/334
f 338/344/338 339/345/339 337/343/337
f 337/343/337 340/346/340 338/344/338
f 342/348/342 23/349/23 341/347/341
f 342/348/342 21/350/21 23/349/23
f 344/352/344 345/353/345 343/351/343
f 343/351/343 346/354/346 344/352/344
f 348/356/348 349/357/349 347/355/347
f 347/355/347 350/358/350 348/356/348
f 351/359/351 348/356/348 350/358/350
f 352/360/352 351/359/351 350/358/350
f 350/358/350 354/362/354 353/361/353
f 352/360/352 350/358/350 353/361/353
f 355/363/355 352/360/352 353/361/353
f 355/363/355 356/364/356 352/360/352
f 353/361/353 357/365/357 355/363/355
f 356/364/356 355/363/355 358/366/358
f 353/361/353 359/367/359 357/365/357
f 358/366/358 360/368/360 356/364/356
f 353/361/353 361/369/361 359/367/359
f 361/369/361 362/370/362 359/367/359
f 360/368/360 358/366/358 363/371/363
f 11/372/11 360/368/360 363/371/363
f 15/373/15 11/372/11 363/371/363
f 363/371/363 364/374/364 15/373/15
f 364/374/364 365/375/365 15/373/15
f 364/374/364 366/376/366 365/375/365
f 366/376/366 364/374/364 367/377/367
f 366/376/366 367/377/367 368/378/368
f 369/379/369 366/376/366 368/378/368
f 369/379/369 368/378/368 370/380/370
f 370/380/370 371/381/371 369/379/369
f 370/380/370 372/382/372 371/381/371
f 373/383/373 374/384/374 372/382/372
f 372/382/372 370/380/370 373/383/373
f 368/378/368 375/385/375 370/380/370
f 375/385/375 376/386/376 370/380/370
f 368/378/368 377/387/377 375/385/375
f 377/387/377 378/388/378 375/385/375
f 378/388/378 379/389/379 375/385/375
f 378/388/378 380/390/380 379/389/379
f 15/373/15 382/392/382 381/391/381
f 381/391/381 383/393/383 15/373/15
f 15/373/15 384/394/384 382/392/382
f 15/373/15 383/393/383 11/372/11
f 384/394/384 15/373/15 14/395/14
f 11/372/11 383/393/383 12/396/12
f 14/395/14 386/398/386 385/397/385
f 14/395/14 385/397/385 387/399/387
f 14/395/14 387/399/387 388/400/388
f 384/394/384 14/395/14 388/400/388
f 383/393/383 390/402/390 389/401/389
f 389/401/389 12/396/12 383/393/383
f 388/400/388 392/404/392 391/403/391
f 388/400/388 391/403/391 393/405/393
f 389/401/389 395/407/395 394/406/394
f 388/400/388 393/405/393 18/408/18
f 393/405/393 396/409/396 18/408/18
f 397/410/397 389/401/389 394/406/394
f 394/406/394 398/411/398 397/410/397
f 12/396/12 389/401/389 397/410/397
f 399/412/399 388/400/388 18/408/18
f 388/400/388 399/412/399 384/394/384
f 18/408/18 17/413/17 399/412/399
f 17/413/17 401/415/401 400/414/400
f 17/413/17 400/414/400 399/412/399
f 384/394/384 399/412/399 402/416/402
f 399/412/399 403/417/403 402/416/402
f 402/416/402 404/418/404 384/394/384
f 405/419/405 406/420/406 12/396/12
f 405/419/405 12/396/12 407/421/407
f 407/421/407 408/422/408 405/419/405
f 407/421/407 12/396/12 397/410/397
f 397/410/397 409/423/409 407/421/407
f 409/423/409 410/424/410 407/421/407
f 409/423/409 411/425/411 410/424/410
f 397/410/397 8/426/8 409/423/409
f 8/426/8 7/427/7 409/423/409
f 8/426/8 397/410/397 412/428/412
f 412/428/412 413/429/413 8/426/8
f 415/431/415 416/432/416 414/430/414
f 415/431/415 414/430/414 417/433/417
f 418/434/418 415/431/415 417/433/417
f 23/435/23 418/434/418 417/433/417
f 23/435/23 417/433/417 341/436/341
f 417/433/417 419/437/419 341/436/341
f 421/439/421 422/440/422 420/438/420
f 420/438/420 341/441/341 421/439/421
f 341/441/341 420/438/420 423/442/423
f 341/441/341 423/442/423 342/443/342
f 22/445/22 21/446/21 424/444/424
f 22/445/22 424/444/424 25/447/25
f 425/448/425 22/445/22 25/447/25
f 25/447/25 34/449/34 425/448/425
f 34/449/34 426/450/426 425/448/425
f 426/450/426 427/451/427 425/448/425
f 427/451/427 426/450/426 428/452/428
f 428/452/428 429/453/429 427/451/427
f 429/453/429 428/452/428 430/454/430
f 429/453/429 430/454/430 431/455/431
f 431/455/431 432/456/432 429/453/429
f 431/455/431 433/457/433 432/456/432
f 434/458/434 435/459/435 433/457/433
f 431/455/431 434/458/434 433/457/433
f 430/454/430 436/460/436 431/455/431
f 436/460/436 437/461/437 431/455/431
f 430/454/430 438/462/438 436/460/436
f 438/462/438 439/463/439 436/460/436
f 440/464/440 436/460/436 439/463/439
f 439/463/439 441/465/441 440/464/440
f 25/447/25 443/467/443 442/466/442
f 442/466/442 444/468/444 25/447/25
f 25/447/25 445/469/445 443/467/443
f 34/449/34 25/447/25 444/468/444
f 445/469/445 25/447/25 24/470/24
f 34/449/34 444/468/444 35/471/35
f 24/470/24 447/473/447 446/472/446
f 24/470/24 446/472/446 448/474/448
f 24/470/24 448/474/448 449/475/449
f 445/469/445 24/470/24 449/475/449
f 444/468/444 451/477/451 450/476/450
f 450/476/450 35/471/35 444/468/444
f 449/475/449 453/479/453 452/478/452
f 449/475/449 452/478/452 454/480/454
f 450/476/450 456/482/456 455/481/455
f 449/475/449 454/480/454 28/483/28
f 454/480/454 457/484/457 28/483/28
f 458/485/458 450/476/450 455/481/455
f 455/481/455 459/486/459 458/485/458
f 35/471/35 450/476/450 458/485/458
f 460/487/460 449/475/449 28/483/28
f 449/475/449 460/487/460 445/469/445
f 28/483/28 27/488/27 460/487/460
f 27/488/27 462/490/462 461/489/461
f 27/488/27 461/489/461 460/487/460
f 445/469/445 460/487/460 463/491/463
f 460/487/460 464/492/464 463/491/463
f 463/491/463 465/493/465 445/469/445
f 466/494/466 467/495/467 35/471/35
f 466/494/466 35/471/35 468/496/468
f 468/496/468 469/497/469 466/494/466
f 468/496/468 35/471/35 458/485/458
f 458/485/458 470/498/470 468/496/468
f 470/498/470 471/499/471 468/496/468
f 470/498/470 472/500/472 471/499/471
f 458/485/458 31/501/31 470/498/470
f 31/501/31 30/502/30 470/498/470
f 31/501/31 458/485/458 473/503/473
f 473/503/473 474/504/474 31/501/31
