# from SM_torpedo26.pskx  scale=0.01 flipZ=True
v 0.304795 0.006250 0.304800
v 0.304795 0.006250 -0.304800
v 0.304795 -0.006250 -0.304800
v 0.304795 -0.006250 0.304800
v -0.304805 0.006250 0.304800
v -0.304805 -0.006250 0.304800
v -0.304805 -0.006250 -0.304800
v -0.304805 0.006250 -0.304800
v 0.304795 0.006250 0.304800
v 0.304795 -0.006250 0.304800
v -0.304805 -0.006250 0.304800
v -0.304805 0.006250 0.304800
v 0.304795 0.006250 -0.304800
v -0.304805 0.006250 -0.304800
v -0.304805 -0.006250 -0.304800
v 0.304795 -0.006250 -0.304800
v -0.157852 -0.006250 0.200547
v -0.154863 -0.006250 0.215545
v -0.047041 -0.006250 0.169429
v -0.159619 -0.006250 0.191627
v -0.159619 -0.006250 0.239462
v -0.050908 -0.006250 0.188869
v -0.047041 -0.006250 0.208310
v -0.169473 -0.006250 0.254211
v -0.173174 -0.006250 0.259739
v -0.036035 -0.006250 0.224791
v -0.188770 -0.006250 0.270161
v -0.193447 -0.006250 0.273287
v -0.019551 -0.006250 0.235803
v -0.304805 -0.006250 0.304800
v -0.217363 -0.006250 0.278045
v -0.241279 -0.006250 0.273287
v -0.261563 -0.006250 0.259739
v -0.275107 -0.006250 0.239462
v -0.279863 -0.006250 0.215545
v -0.275107 -0.006250 0.191627
v 0.304795 -0.006250 0.304800
v -0.304805 -0.006250 -0.304800
v -0.000107 -0.006250 0.239669
v -0.261563 -0.006250 0.171351
v 0.019326 -0.006250 0.235803
v -0.241279 -0.006250 0.157802
v 0.035811 -0.006250 0.224791
v -0.217363 -0.006250 0.153045
v 0.046826 -0.006250 0.208310
v -0.193447 -0.006250 0.157802
v 0.050693 -0.006250 0.188869
v -0.185889 -0.006250 0.162855
v 0.046826 -0.006250 0.169429
v -0.173174 -0.006250 0.171351
v 0.035811 -0.006250 0.152948
v -0.036035 -0.006250 0.152948
v -0.019551 -0.006250 0.141936
v -0.000107 -0.006250 0.138069
v 0.019326 -0.006250 0.141936
v -0.043105 -0.006250 -0.153569
v -0.054121 -0.006250 -0.170049
v -0.057988 -0.006250 -0.189490
v -0.054121 -0.006250 -0.208930
v -0.043105 -0.006250 -0.225411
v -0.026631 -0.006250 -0.236423
v -0.026631 -0.006250 -0.142556
v -0.007188 -0.006250 -0.240290
v 0.304795 -0.006250 -0.304800
v -0.007188 -0.006250 -0.138690
v 0.012256 -0.006250 -0.236423
v 0.012256 -0.006250 -0.142556
v 0.028730 -0.006250 -0.225411
v 0.028730 -0.006250 -0.153569
v 0.039746 -0.006250 -0.208930
v 0.043613 -0.006250 -0.189490
v 0.039746 -0.006250 -0.170049
v 0.204551 -0.006250 0.007693
v 0.180625 -0.006250 0.002935
v 0.228467 -0.006250 0.002935
v 0.248740 -0.006250 -0.010613
v 0.262285 -0.006250 -0.030889
v 0.160352 -0.006250 -0.010613
v 0.267051 -0.006250 -0.054807
v 0.146807 -0.006250 -0.030889
v 0.262285 -0.006250 -0.078725
v 0.142051 -0.006250 -0.054807
v 0.248740 -0.006250 -0.099001
v 0.146807 -0.006250 -0.078725
v 0.228467 -0.006250 -0.112550
v 0.160352 -0.006250 -0.099001
v 0.204551 -0.006250 -0.117307
v 0.180625 -0.006250 -0.112550
v -0.169414 0.006250 0.254119
v -0.047041 0.006250 0.208310
v -0.173174 0.006250 0.259739
v -0.189033 0.006250 0.270336
v -0.036035 0.006250 0.224791
v -0.193447 0.006250 0.273287
v -0.050908 0.006250 0.188869
v -0.019551 0.006250 0.235803
v -0.159619 0.006250 0.239462
v -0.159414 0.006250 0.238413
v -0.156670 0.006250 0.224614
v -0.154863 0.006250 0.215545
v -0.159619 0.006250 0.191627
v -0.304805 0.006250 -0.304800
v -0.047041 0.006250 0.169429
v -0.173174 0.006250 0.171351
v -0.036035 0.006250 0.152948
v -0.193447 0.006250 0.157802
v -0.019551 0.006250 0.141936
v -0.208291 0.006250 0.154849
v -0.000107 0.006250 0.138069
v -0.217363 0.006250 0.153045
v 0.019326 0.006250 0.141936
v -0.241279 0.006250 0.157802
v -0.253867 0.006250 0.166213
v -0.261563 0.006250 0.171351
v -0.269971 0.006250 0.183938
v -0.275107 0.006250 0.191627
v 0.035811 0.006250 0.152948
v -0.278105 0.006250 0.206713
v 0.046826 0.006250 0.169429
v 0.304795 0.006250 0.304800
v 0.050693 0.006250 0.188869
v 0.046826 0.006250 0.208310
v 0.035811 0.006250 0.224791
v 0.019326 0.006250 0.235803
v -0.000107 0.006250 0.239669
v -0.043105 0.006250 -0.153569
v -0.054121 0.006250 -0.170049
v -0.057988 0.006250 -0.189490
v -0.054121 0.006250 -0.208930
v -0.043105 0.006250 -0.225411
v -0.026631 0.006250 -0.236423
v -0.026631 0.006250 -0.142556
v -0.007188 0.006250 -0.240290
v -0.007188 0.006250 -0.138690
v 0.012256 0.006250 -0.142556
v 0.028730 0.006250 -0.153569
v 0.304795 0.006250 -0.304800
v 0.012256 0.006250 -0.236423
v 0.028730 0.006250 -0.225411
v 0.039746 0.006250 -0.208930
v 0.043613 0.006250 -0.189490
v -0.304805 0.006250 0.304800
v -0.279863 0.006250 0.215545
v -0.276914 0.006250 0.230393
v -0.275107 0.006250 0.239462
v -0.266699 0.006250 0.252050
v -0.261563 0.006250 0.259739
v -0.241279 0.006250 0.273287
v -0.227793 0.006250 0.275971
v -0.217363 0.006250 0.278045
v -0.210010 0.006250 0.276582
v 0.039746 0.006250 -0.170049
v 0.180625 0.006250 0.002935
v 0.204551 0.006250 0.007693
v 0.228467 0.006250 0.002935
v 0.248740 0.006250 -0.010613
v 0.262285 0.006250 -0.030889
v 0.160352 0.006250 -0.010613
v 0.267051 0.006250 -0.054807
v 0.146807 0.006250 -0.030889
v 0.262285 0.006250 -0.078725
v 0.142051 0.006250 -0.054807
v 0.248740 0.006250 -0.099001
v 0.146807 0.006250 -0.078725
v 0.228467 0.006250 -0.112550
v 0.160352 0.006250 -0.099001
v 0.204551 0.006250 -0.117307
v 0.180625 0.006250 -0.112550
v -0.000107 0.006250 0.138069
v -0.000107 -0.006250 0.138069
v -0.019551 -0.006250 0.141936
v -0.019551 0.006250 0.141936
v -0.036035 -0.006250 0.152948
v -0.036035 0.006250 0.152948
v -0.047041 -0.006250 0.169429
v -0.047041 0.006250 0.169429
v -0.050908 0.006250 0.188869
v -0.050908 -0.006250 0.188869
v -0.047041 0.006250 0.208310
v -0.047041 -0.006250 0.208310
v -0.036035 -0.006250 0.224791
v -0.036035 0.006250 0.224791
v -0.019551 0.006250 0.235803
v -0.019551 -0.006250 0.235803
v -0.000107 -0.006250 0.239669
v -0.000107 0.006250 0.239669
v 0.019326 0.006250 0.235803
v 0.019326 -0.006250 0.235803
v 0.035811 -0.006250 0.224791
v 0.035811 0.006250 0.224791
v 0.046826 0.006250 0.208310
v 0.046826 -0.006250 0.208310
v 0.050693 -0.006250 0.188869
v 0.050693 0.006250 0.188869
v 0.046826 0.006250 0.169429
v 0.046826 -0.006250 0.169429
v 0.035811 -0.006250 0.152948
v 0.035811 0.006250 0.152948
v 0.019326 0.006250 0.141936
v 0.019326 -0.006250 0.141936
v 0.204551 0.006250 -0.117307
v 0.204551 -0.006250 -0.117307
v 0.180625 -0.006250 -0.112550
v 0.180625 0.006250 -0.112550
v 0.160352 -0.006250 -0.099001
v 0.160352 0.006250 -0.099001
v 0.146807 -0.006250 -0.078725
v 0.146807 0.006250 -0.078725
v 0.142051 0.006250 -0.054807
v 0.142051 -0.006250 -0.054807
v 0.146807 0.006250 -0.030889
v 0.146807 -0.006250 -0.030889
v 0.160352 0.006250 -0.010613
v 0.160352 -0.006250 -0.010613
v 0.180625 0.006250 0.002935
v 0.180625 -0.006250 0.002935
v 0.204551 -0.006250 0.007693
v 0.204551 0.006250 0.007693
v 0.228467 0.006250 0.002935
v 0.228467 -0.006250 0.002935
v 0.248740 0.006250 -0.010613
v 0.248740 -0.006250 -0.010613
v 0.262285 0.006250 -0.030889
v 0.262285 -0.006250 -0.030889
v 0.267051 -0.006250 -0.054807
v 0.267051 0.006250 -0.054807
v 0.262285 -0.006250 -0.078725
v 0.262285 0.006250 -0.078725
v 0.248740 -0.006250 -0.099001
v 0.248740 0.006250 -0.099001
v 0.228467 -0.006250 -0.112550
v 0.228467 0.006250 -0.112550
v -0.217363 0.006250 0.153045
v -0.208291 0.006250 0.154849
v -0.217363 -0.006250 0.153045
v -0.193447 -0.006250 0.157802
v -0.193447 0.006250 0.157802
v -0.185889 -0.006250 0.162855
v -0.173174 0.006250 0.171351
v -0.173174 -0.006250 0.171351
v -0.159619 0.006250 0.191627
v -0.159619 -0.006250 0.191627
v -0.157852 -0.006250 0.200547
v -0.154863 0.006250 0.215545
v -0.154863 -0.006250 0.215545
v -0.156670 0.006250 0.224614
v -0.159619 -0.006250 0.239462
v -0.159414 0.006250 0.238413
v -0.159619 0.006250 0.239462
v -0.169473 -0.006250 0.254211
v -0.169414 0.006250 0.254119
v -0.173174 -0.006250 0.259739
v -0.173174 0.006250 0.259739
v -0.188770 -0.006250 0.270161
v -0.189033 0.006250 0.270336
v -0.193447 -0.006250 0.273287
v -0.193447 0.006250 0.273287
v -0.210010 0.006250 0.276582
v -0.217363 -0.006250 0.278045
v -0.217363 0.006250 0.278045
v -0.227793 0.006250 0.275971
v -0.241279 -0.006250 0.273287
v -0.241279 0.006250 0.273287
v -0.261563 -0.006250 0.259739
v -0.261563 0.006250 0.259739
v -0.266699 0.006250 0.252050
v -0.275107 -0.006250 0.239462
v -0.275107 0.006250 0.239462
v -0.276914 0.006250 0.230393
v -0.279863 -0.006250 0.215545
v -0.279863 0.006250 0.215545
v -0.278105 0.006250 0.206713
v -0.275107 -0.006250 0.191627
v -0.275107 0.006250 0.191627
v -0.269971 0.006250 0.183938
v -0.261563 -0.006250 0.171351
v -0.261563 0.006250 0.171351
v -0.253867 0.006250 0.166213
v -0.241279 -0.006250 0.157802
v -0.241279 0.006250 0.157802
v -0.026631 0.006250 -0.236423
v -0.007188 0.006250 -0.240290
v -0.007188 -0.006250 -0.240290
v -0.026631 -0.006250 -0.236423
v -0.043105 -0.006250 -0.225411
v -0.043105 0.006250 -0.225411
v -0.054121 0.006250 -0.208930
v -0.054121 -0.006250 -0.208930
v -0.057988 -0.006250 -0.189490
v -0.057988 0.006250 -0.189490
v -0.054121 0.006250 -0.170049
v -0.054121 -0.006250 -0.170049
v -0.043105 0.006250 -0.153569
v -0.043105 -0.006250 -0.153569
v -0.026631 0.006250 -0.142556
v -0.026631 -0.006250 -0.142556
v -0.007188 -0.006250 -0.138690
v -0.007188 0.006250 -0.138690
v 0.012256 -0.006250 -0.142556
v 0.012256 0.006250 -0.142556
v 0.028730 0.006250 -0.153569
v 0.028730 -0.006250 -0.153569
v 0.039746 0.006250 -0.170049
v 0.039746 -0.006250 -0.170049
v 0.043613 -0.006250 -0.189490
v 0.043613 0.006250 -0.189490
v 0.039746 0.006250 -0.208930
v 0.039746 -0.006250 -0.208930
v 0.028730 0.006250 -0.225411
v 0.028730 -0.006250 -0.225411
v 0.012256 -0.006250 -0.236423
v 0.012256 0.006250 -0.236423
v 0.356133 0.004854 -0.323261
v 0.353848 -0.006621 0.926739
v 0.356133 0.004854 0.926739
v 0.353848 -0.006621 -0.323261
v 0.347344 -0.016357 0.926739
v 0.347344 -0.016357 -0.323261
v 0.337607 -0.022861 0.926739
v 0.337607 -0.022861 -0.323261
v 0.326133 -0.025146 0.926739
v 0.326133 -0.025146 -0.323261
v 0.314648 -0.022861 0.926739
v 0.314648 -0.022861 -0.323261
v 0.304912 -0.016357 0.926739
v 0.304912 -0.016357 -0.323261
v 0.298418 -0.006621 0.926739
v 0.298418 -0.006621 -0.323261
v 0.296133 0.004854 0.926739
v 0.296133 0.004854 -0.323261
v 0.298418 0.016338 0.926739
v 0.298418 0.016338 -0.323261
v 0.304912 0.026064 0.926739
v 0.304912 0.026064 -0.323261
v 0.314648 0.032568 0.926739
v 0.314648 0.032568 -0.323261
v 0.326133 0.034854 0.926739
v 0.326133 0.034854 -0.323261
v 0.337607 0.032568 0.926739
v 0.337607 0.032568 -0.323261
v 0.347344 0.026064 0.926739
v 0.347344 0.026064 -0.323261
v 0.353848 0.016338 0.926739
v 0.353848 0.016338 -0.323261
v -0.298906 0.004854 -0.323261
v -0.301191 -0.006621 0.926739
v -0.298906 0.004854 0.926739
v -0.301191 -0.006621 -0.323261
v -0.307695 -0.016357 0.926739
v -0.307695 -0.016357 -0.323261
v -0.317432 -0.022861 0.926739
v -0.317432 -0.022861 -0.323261
v -0.328906 -0.025146 0.926739
v -0.328906 -0.025146 -0.323261
v -0.340391 -0.022861 0.926739
v -0.340391 -0.022861 -0.323261
v -0.350127 -0.016357 0.926739
v -0.350127 -0.016357 -0.323261
v -0.356621 -0.006621 0.926739
v -0.356621 -0.006621 -0.323261
v -0.358906 0.004854 0.926739
v -0.358906 0.004854 -0.323261
v -0.356621 0.016338 0.926739
v -0.356621 0.016338 -0.323261
v -0.350127 0.026064 0.926739
v -0.350127 0.026064 -0.323261
v -0.340391 0.032568 0.926739
v -0.340391 0.032568 -0.323261
v -0.328906 0.034854 0.926739
v -0.328906 0.034854 -0.323261
v -0.317432 0.032568 0.926739
v -0.317432 0.032568 -0.323261
v -0.307695 0.026064 0.926739
v -0.307695 0.026064 -0.323261
v -0.301191 0.016338 0.926739
v -0.301191 0.016338 -0.323261
v 0.353848 -0.006621 0.926739
v 0.326133 0.004854 0.926739
v 0.356133 0.004854 0.926739
v 0.347344 -0.016357 0.926739
v 0.353848 0.016338 0.926739
v 0.337607 -0.022861 0.926739
v 0.347344 0.026064 0.926739
v 0.326133 -0.025146 0.926739
v 0.337607 0.032568 0.926739
v 0.314648 -0.022861 0.926739
v 0.326133 0.034854 0.926739
v 0.304912 -0.016357 0.926739
v 0.314648 0.032568 0.926739
v 0.298418 -0.006621 0.926739
v 0.304912 0.026064 0.926739
v 0.296133 0.004854 0.926739
v 0.298418 0.016338 0.926739
v 0.356133 0.004854 -0.323261
v 0.326133 0.004854 -0.323261
v 0.353848 -0.006621 -0.323261
v 0.353848 0.016338 -0.323261
v 0.347344 -0.016357 -0.323261
v 0.347344 0.026064 -0.323261
v 0.337607 -0.022861 -0.323261
v 0.337607 0.032568 -0.323261
v 0.326133 -0.025146 -0.323261
v 0.326133 0.034854 -0.323261
v 0.314648 -0.022861 -0.323261
v 0.314648 0.032568 -0.323261
v 0.304912 -0.016357 -0.323261
v 0.304912 0.026064 -0.323261
v 0.298418 -0.006621 -0.323261
v 0.298418 0.016338 -0.323261
v 0.296133 0.004854 -0.323261
v -0.301191 -0.006621 0.926739
v -0.328906 0.004854 0.926739
v -0.298906 0.004854 0.926739
v -0.307695 -0.016357 0.926739
v -0.301191 0.016338 0.926739
v -0.317432 -0.022861 0.926739
v -0.307695 0.026064 0.926739
v -0.328906 -0.025146 0.926739
v -0.317432 0.032568 0.926739
v -0.340391 -0.022861 0.926739
v -0.328906 0.034854 0.926739
v -0.350127 -0.016357 0.926739
v -0.340391 0.032568 0.926739
v -0.356621 -0.006621 0.926739
v -0.350127 0.026064 0.926739
v -0.358906 0.004854 0.926739
v -0.356621 0.016338 0.926739
v -0.298906 0.004854 -0.323261
v -0.328906 0.004854 -0.323261
v -0.301191 -0.006621 -0.323261
v -0.301191 0.016338 -0.323261
v -0.307695 -0.016357 -0.323261
v -0.307695 0.026064 -0.323261
v -0.317432 -0.022861 -0.323261
v -0.317432 0.032568 -0.323261
v -0.328906 -0.025146 -0.323261
v -0.328906 0.034854 -0.323261
v -0.340391 -0.022861 -0.323261
v -0.340391 0.032568 -0.323261
v -0.350127 -0.016357 -0.323261
v -0.350127 0.026064 -0.323261
v -0.356621 -0.006621 -0.323261
v -0.356621 0.016338 -0.323261
v -0.358906 0.004854 -0.323261
vt 0.020508 0.000000
vt 0.020508 0.999969
vt 0.000031 0.999969
vt 0.000031 0.000000
vt 0.000031 0.000000
vt 0.020508 0.000000
vt 0.020508 0.999969
vt 0.000031 0.999969
vt 0.020508 0.999969
vt 0.000031 0.999969
vt 0.000031 0.000000
vt 0.020508 0.000000
vt 0.000031 0.999969
vt 0.000031 0.000000
vt 0.020508 0.000000
vt 0.020508 0.999969
vt 0.241089 0.170898
vt 0.245972 0.146484
vt 0.422852 0.222168
vt 0.238159 0.185547
vt 0.238159 0.107422
vt 0.416504 0.189941
vt 0.422852 0.158203
vt 0.222046 0.083008
vt 0.215942 0.073730
vt 0.440918 0.131348
vt 0.190308 0.056641
vt 0.182617 0.051758
vt 0.468018 0.113281
vt 0.000031 0.000000
vt 0.143433 0.043945
vt 0.104187 0.051758
vt 0.070923 0.073730
vt 0.048706 0.107422
vt 0.040924 0.146484
vt 0.048706 0.185547
vt 1.000000 0.000000
vt 0.000031 0.999969
vt 0.499756 0.106934
vt 0.070923 0.218750
vt 0.531738 0.113281
vt 0.104187 0.241211
vt 0.558594 0.131348
vt 0.143433 0.249023
vt 0.576660 0.158203
vt 0.182617 0.241211
vt 0.583008 0.189941
vt 0.195068 0.232910
vt 0.576660 0.222168
vt 0.215942 0.218750
vt 0.558594 0.249023
vt 0.440918 0.249023
vt 0.468018 0.267090
vt 0.499756 0.273438
vt 0.531738 0.267090
vt 0.429199 0.751953
vt 0.411133 0.778931
vt 0.404785 0.810791
vt 0.411133 0.842773
vt 0.429199 0.869751
vt 0.456299 0.887817
vt 0.456299 0.733887
vt 0.488281 0.894165
vt 1.000000 0.999969
vt 0.488281 0.727539
vt 0.520020 0.887817
vt 0.520020 0.733887
vt 0.547363 0.869751
vt 0.547363 0.751953
vt 0.565430 0.842773
vt 0.571777 0.810791
vt 0.565430 0.778931
vt 0.835449 0.487305
vt 0.796387 0.495117
vt 0.875000 0.495117
vt 0.908203 0.517334
vt 0.930176 0.550781
vt 0.763184 0.517334
vt 0.937988 0.589844
vt 0.740723 0.550781
vt 0.930176 0.629150
vt 0.732910 0.589844
vt 0.908203 0.662354
vt 0.740723 0.629150
vt 0.875000 0.684570
vt 0.763184 0.662354
vt 0.835449 0.692383
vt 0.796387 0.684570
vt 0.777832 0.083008
vt 0.577148 0.158203
vt 0.784180 0.073730
vt 0.810059 0.056641
vt 0.559082 0.131348
vt 0.817383 0.051758
vt 0.583496 0.189941
vt 0.532227 0.113281
vt 0.761719 0.107422
vt 0.761719 0.108887
vt 0.756836 0.131348
vt 0.753906 0.146484
vt 0.761719 0.185547
vt 1.000000 0.999969
vt 0.577148 0.222168
vt 0.784180 0.218750
vt 0.559082 0.249023
vt 0.817383 0.241211
vt 0.532227 0.267090
vt 0.841797 0.246094
vt 0.500000 0.273438
vt 0.856445 0.249023
vt 0.468262 0.267090
vt 0.895996 0.241211
vt 0.916504 0.227539
vt 0.929199 0.218750
vt 0.942871 0.198242
vt 0.951172 0.185547
vt 0.441162 0.249023
vt 0.956055 0.161133
vt 0.423096 0.222168
vt 0.000031 0.000000
vt 0.416748 0.189941
vt 0.423096 0.158203
vt 0.441162 0.131348
vt 0.468262 0.113281
vt 0.500000 0.106934
vt 0.570801 0.751953
vt 0.588867 0.778931
vt 0.595215 0.810791
vt 0.588867 0.842773
vt 0.570801 0.869751
vt 0.543457 0.887817
vt 0.543457 0.733887
vt 0.511719 0.894165
vt 0.511719 0.727539
vt 0.479980 0.733887
vt 0.452881 0.751953
vt 0.000031 0.999969
vt 0.479980 0.887817
vt 0.452881 0.869751
vt 0.434814 0.842773
vt 0.428467 0.810791
vt 1.000000 0.000000
vt 0.958984 0.146484
vt 0.954102 0.122070
vt 0.951172 0.107422
vt 0.937500 0.086426
vt 0.929199 0.073730
vt 0.895996 0.051758
vt 0.873535 0.047363
vt 0.856445 0.043945
vt 0.844727 0.046387
vt 0.434814 0.778931
vt 0.203735 0.495117
vt 0.164429 0.487305
vt 0.125244 0.495117
vt 0.091980 0.517334
vt 0.069763 0.550781
vt 0.236938 0.517334
vt 0.061920 0.589844
vt 0.259277 0.550781
vt 0.069763 0.629150
vt 0.267090 0.589844
vt 0.091980 0.662354
vt 0.259277 0.629150
vt 0.125244 0.684570
vt 0.236938 0.662354
vt 0.164429 0.692383
vt 0.203735 0.684570
vt 0.159546 0.699707
vt 0.159546 0.693604
vt 0.149658 0.693604
vt 0.149658 0.699707
vt 0.139648 0.693604
vt 0.139648 0.699707
vt 0.129639 0.693604
vt 0.129639 0.699707
vt 0.119690 0.699707
vt 0.119690 0.693604
vt 0.109741 0.699707
vt 0.109741 0.693604
vt 0.099731 0.693604
vt 0.099731 0.699707
vt 0.089783 0.699707
vt 0.089783 0.693604
vt 0.079773 0.693604
vt 0.079773 0.699707
vt 0.069824 0.699707
vt 0.069824 0.693604
vt 0.059845 0.693604
vt 0.059845 0.699707
vt 0.049866 0.699707
vt 0.049866 0.693604
vt 0.039886 0.693604
vt 0.039886 0.699707
vt 0.029922 0.699707
vt 0.029922 0.693604
vt 0.019943 0.693604
vt 0.019943 0.699707
vt 0.009972 0.699707
vt 0.009972 0.693604
vt 0.000031 0.699707
vt 0.000031 0.693604
vt 0.196289 0.917297
vt 0.196289 0.911011
vt 0.184082 0.911011
vt 0.184082 0.917297
vt 0.171753 0.911011
vt 0.171753 0.917297
vt 0.159546 0.911011
vt 0.159546 0.917297
vt 0.147217 0.917297
vt 0.147217 0.911011
vt 0.135010 0.917297
vt 0.135010 0.911011
vt 0.122742 0.917297
vt 0.122742 0.911011
vt 0.110474 0.917297
vt 0.110474 0.911011
vt 0.098145 0.911011
vt 0.098145 0.917297
vt 0.085876 0.917297
vt 0.085876 0.911011
vt 0.073608 0.917297
vt 0.073608 0.911011
vt 0.061371 0.917297
vt 0.061371 0.911011
vt 0.049072 0.911011
vt 0.049072 0.917297
vt 0.036804 0.911011
vt 0.036804 0.917297
vt 0.024536 0.911011
vt 0.024536 0.917297
vt 0.012268 0.911011
vt 0.012268 0.917297
vt 0.000031 0.917297
vt 0.000031 0.911011
vt 0.000031 0.379395
vt 0.004654 0.379395
vt 0.000031 0.373047
vt 0.012268 0.373047
vt 0.012268 0.379395
vt 0.016846 0.373047
vt 0.024536 0.379395
vt 0.024536 0.373047
vt 0.036804 0.379395
vt 0.036804 0.373047
vt 0.041382 0.373047
vt 0.049072 0.379395
vt 0.049072 0.373047
vt 0.053741 0.379395
vt 0.061371 0.373047
vt 0.060822 0.379395
vt 0.061371 0.379395
vt 0.070312 0.373047
vt 0.070251 0.379395
vt 0.073608 0.373047
vt 0.073608 0.379395
vt 0.083069 0.373047
vt 0.083252 0.379395
vt 0.085876 0.373047
vt 0.085876 0.379395
vt 0.094421 0.379395
vt 0.098145 0.373047
vt 0.098145 0.379395
vt 0.103516 0.379395
vt 0.110474 0.373047
vt 0.110474 0.379395
vt 0.122742 0.373047
vt 0.122742 0.379395
vt 0.127319 0.379395
vt 0.135010 0.373047
vt 0.135010 0.379395
vt 0.139648 0.379395
vt 0.147217 0.373047
vt 0.147217 0.379395
vt 0.151733 0.379395
vt 0.159546 0.373047
vt 0.159546 0.379395
vt 0.164185 0.379395
vt 0.171753 0.373047
vt 0.171753 0.379395
vt 0.176514 0.379395
vt 0.184082 0.373047
vt 0.184082 0.379395
vt 0.196289 0.379395
vt 0.196289 0.373047
vt 0.149658 0.368164
vt 0.159546 0.368164
vt 0.159546 0.362305
vt 0.149658 0.362305
vt 0.139648 0.362305
vt 0.139648 0.368164
vt 0.129639 0.368164
vt 0.129639 0.362305
vt 0.119690 0.362305
vt 0.119690 0.368164
vt 0.109741 0.368164
vt 0.109741 0.362305
vt 0.099731 0.368164
vt 0.099731 0.362305
vt 0.089783 0.368164
vt 0.089783 0.362305
vt 0.079773 0.362305
vt 0.079773 0.368164
vt 0.069824 0.362305
vt 0.069824 0.368164
vt 0.059845 0.368164
vt 0.059845 0.362305
vt 0.049866 0.368164
vt 0.049866 0.362305
vt 0.039886 0.362305
vt 0.039886 0.368164
vt 0.029922 0.368164
vt 0.029922 0.362305
vt 0.019943 0.368164
vt 0.019943 0.362305
vt 0.009972 0.362305
vt 0.009972 0.368164
vt 0.000031 0.368164
vt 0.000031 0.362305
vt 0.150757 0.999969
vt 0.141357 0.000000
vt 0.150757 0.000000
vt 0.141357 0.999969
vt 0.131958 0.000000
vt 0.131958 0.999969
vt 0.122498 0.000000
vt 0.122498 0.999969
vt 0.113098 0.000000
vt 0.113098 0.999969
vt 0.103699 0.000000
vt 0.103699 0.999969
vt 0.094238 0.000000
vt 0.094238 0.999969
vt 0.084839 0.000000
vt 0.084839 0.999969
vt 0.075378 0.000000
vt 0.075378 0.999969
vt 0.065979 0.000000
vt 0.065979 0.999969
vt 0.056549 0.000000
vt 0.056549 0.999969
vt 0.047119 0.000000
vt 0.047119 0.999969
vt 0.037689 0.000000
vt 0.037689 0.999969
vt 0.028275 0.000000
vt 0.028275 0.999969
vt 0.018845 0.000000
vt 0.018845 0.999969
vt 0.009422 0.000000
vt 0.009422 0.999969
vt 0.000031 0.000000
vt 0.000031 0.999969
vt 0.150757 0.999969
vt 0.141357 0.000000
vt 0.150757 0.000000
vt 0.141357 0.999969
vt 0.131958 0.000000
vt 0.131958 0.999969
vt 0.122498 0.000000
vt 0.122498 0.999969
vt 0.113098 0.000000
vt 0.113098 0.999969
vt 0.103699 0.000000
vt 0.103699 0.999969
vt 0.094238 0.000000
vt 0.094238 0.999969
vt 0.084839 0.000000
vt 0.084839 0.999969
vt 0.075378 0.000000
vt 0.075378 0.999969
vt 0.065979 0.000000
vt 0.065979 0.999969
vt 0.056549 0.000000
vt 0.056549 0.999969
vt 0.047119 0.000000
vt 0.047119 0.999969
vt 0.037689 0.000000
vt 0.037689 0.999969
vt 0.028275 0.000000
vt 0.028275 0.999969
vt 0.018845 0.000000
vt 0.018845 0.999969
vt 0.009422 0.000000
vt 0.009422 0.999969
vt 0.000031 0.000000
vt 0.000031 0.999969
vt 0.046173 0.966827
vt 0.024002 0.975998
vt 0.048004 0.975998
vt 0.040985 0.959015
vt 0.046173 0.985184
vt 0.033173 0.953827
vt 0.040985 0.992970
vt 0.024002 0.951996
vt 0.033173 0.998173
vt 0.014816 0.953827
vt 0.024002 0.999969
vt 0.007030 0.959015
vt 0.014816 0.998173
vt 0.001827 0.966827
vt 0.007030 0.992970
vt 0.000031 0.975998
vt 0.001827 0.985184
vt 0.048004 0.975998
vt 0.024002 0.975998
vt 0.046173 0.966827
vt 0.046173 0.985184
vt 0.040985 0.959015
vt 0.040985 0.992970
vt 0.033173 0.953827
vt 0.033173 0.998173
vt 0.024002 0.951996
vt 0.024002 0.999969
vt 0.014816 0.953827
vt 0.014816 0.998173
vt 0.007030 0.959015
vt 0.007030 0.992970
vt 0.001827 0.966827
vt 0.001827 0.985184
vt 0.000031 0.975998
vt 0.046173 0.966827
vt 0.024002 0.975998
vt 0.048004 0.975998
vt 0.040985 0.959015
vt 0.046173 0.985184
vt 0.033173 0.953827
vt 0.040985 0.992970
vt 0.024002 0.951996
vt 0.033173 0.998173
vt 0.014816 0.953827
vt 0.024002 0.999969
vt 0.007030 0.959015
vt 0.014816 0.998173
vt 0.001827 0.966827
vt 0.007030 0.992970
vt 0.000031 0.975998
vt 0.001827 0.985184
vt 0.048004 0.975998
vt 0.024002 0.975998
vt 0.046173 0.966827
vt 0.046173 0.985184
vt 0.040985 0.959015
vt 0.040985 0.992970
vt 0.033173 0.953827
vt 0.033173 0.998173
vt 0.024002 0.951996
vt 0.024002 0.999969
vt 0.014816 0.953827
vt 0.014816 0.998173
vt 0.007030 0.959015
vt 0.007030 0.992970
vt 0.001827 0.966827
vt 0.001827 0.985184
vt 0.000031 0.975998
vn 1.000000 -0.000000 -0.000000
vn 1.000000 -0.000000 -0.000000
vn 1.000000 -0.000000 -0.000000
vn 1.000000 -0.000000 -0.000000
vn -1.000000 -0.000000 -0.000000
vn -1.000000 -0.000000 -0.000000
vn -1.000000 -0.000000 -0.000000
vn -1.000000 -0.000000 -0.000000
vn 0.000000 -0.000000 1.000000
vn 0.000000 -0.000000 1.000000
vn 0.000000 -0.000000 1.000000
vn 0.000000 -0.000000 1.000000
vn 0.000000 -0.000000 -1.000000
vn 0.000000 -0.000000 -1.000000
vn 0.000000 -0.000000 -1.000000
vn 0.000000 -0.000000 -1.000000
vn 0.000000 -1.000000 -0.000000
vn 0.000000 -1.000000 -0.000000
vn 0.000000 -1.000000 -0.000000
vn 0.000000 -1.000000 -0.000000
vn 0.000000 -1.000000 -0.000000
vn 0.000000 -1.000000 -0.000000
vn 0.000000 -1.000000 -0.000000
vn 0.000000 -1.000000 -0.000000
vn 0.000000 -1.000000 -0.000000
vn 0.000000 -1.000000 -0.000000
vn 0.000000 -1.000000 -0.000000
vn 0.000000 -1.000000 -0.000000
vn 0.000000 -1.000000 -0.000000
vn 0.000000 -1.000000 -0.000000
vn 0.000000 -1.000000 -0.000000
vn 0.000000 -1.000000 -0.000000
vn 0.000000 -1.000000 -0.000000
vn 0.000000 -1.000000 -0.000000
vn 0.000000 -1.000000 -0.000000
vn 0.000000 -1.000000 -0.000000
vn 0.000000 -1.000000 -0.000000
vn 0.000000 -1.000000 -0.000000
vn 0.000000 -1.000000 -0.000000
vn 0.000000 -1.000000 -0.000000
vn 0.000000 -1.000000 -0.000000
vn 0.000000 -1.000000 -0.000000
vn 0.000000 -1.000000 -0.000000
vn 0.000000 -1.000000 -0.000000
vn 0.000000 -1.000000 -0.000000
vn 0.000000 -1.000000 -0.000000
vn 0.000000 -1.000000 -0.000000
vn 0.000000 -1.000000 -0.000000
vn 0.000000 -1.000000 -0.000000
vn 0.000000 -1.000000 -0.000000
vn 0.000000 -1.000000 -0.000000
vn 0.000000 -1.000000 -0.000000
vn 0.000000 -1.000000 -0.000000
vn 0.000000 -1.000000 -0.000000
vn 0.000000 -1.000000 -0.000000
vn 0.000000 -1.000000 -0.000000
vn 0.000000 -1.000000 -0.000000
vn 0.000000 -1.000000 -0.000000
vn 0.000000 -1.000000 -0.000000
vn 0.000000 -1.000000 -0.000000
vn 0.000000 -1.000000 -0.000000
vn 0.000000 -1.000000 -0.000000
vn 0.000000 -1.000000 -0.000000
vn 0.000000 -1.000000 -0.000000
vn 0.000000 -1.000000 -0.000000
vn 0.000000 -1.000000 -0.000000
vn 0.000000 -1.000000 -0.000000
vn 0.000000 -1.000000 -0.000000
vn 0.000000 -1.000000 -0.000000
vn 0.000000 -1.000000 -0.000000
vn 0.000000 -1.000000 -0.000000
vn 0.000000 -1.000000 -0.000000
vn 0.000000 -1.000000 -0.000000
vn 0.000000 -1.000000 -0.000000
vn 0.000000 -1.000000 -0.000000
vn 0.000000 -1.000000 -0.000000
vn 0.000000 -1.000000 -0.000000
vn 0.000000 -1.000000 -0.000000
vn 0.000000 -1.000000 -0.000000
vn 0.000000 -1.000000 -0.000000
vn 0.000000 -1.000000 -0.000000
vn 0.000000 -1.000000 -0.000000
vn 0.000000 -1.000000 -0.000000
vn 0.000000 -1.000000 -0.000000
vn 0.000000 -1.000000 -0.000000
vn 0.000000 -1.000000 -0.000000
vn 0.000000 -1.000000 -0.000000
vn 0.000000 -1.000000 -0.000000
vn 0.000000 1.000000 -0.000000
vn 0.000000 1.000000 -0.000000
vn 0.000000 1.000000 -0.000000
vn 0.000000 1.000000 -0.000000
vn 0.000000 1.000000 -0.000000
vn 0.000000 1.000000 -0.000000
vn 0.000000 1.000000 -0.000000
vn 0.000000 1.000000 -0.000000
vn 0.000000 1.000000 -0.000000
vn 0.000000 1.000000 -0.000000
vn 0.000000 1.000000 -0.000000
vn 0.000000 1.000000 -0.000000
vn 0.000000 1.000000 -0.000000
vn 0.000000 1.000000 -0.000000
vn 0.000000 1.000000 -0.000000
vn 0.000000 1.000000 -0.000000
vn 0.000000 1.000000 -0.000000
vn 0.000000 1.000000 -0.000000
vn 0.000000 1.000000 -0.000000
vn 0.000000 1.000000 -0.000000
vn 0.000000 1.000000 -0.000000
vn 0.000000 1.000000 -0.000000
vn 0.000000 1.000000 -0.000000
vn 0.000000 1.000000 -0.000000
vn 0.000000 1.000000 -0.000000
vn 0.000000 1.000000 -0.000000
vn 0.000000 1.000000 -0.000000
vn 0.000000 1.000000 -0.000000
vn 0.000000 1.000000 -0.000000
vn 0.000000 1.000000 -0.000000
vn 0.000000 1.000000 -0.000000
vn 0.000000 1.000000 -0.000000
vn 0.000000 1.000000 -0.000000
vn 0.000000 1.000000 -0.000000
vn 0.000000 1.000000 -0.000000
vn 0.000000 1.000000 -0.000000
vn 0.000000 1.000000 -0.000000
vn 0.000000 1.000000 -0.000000
vn 0.000000 1.000000 -0.000000
vn 0.000000 1.000000 -0.000000
vn 0.000000 1.000000 -0.000000
vn 0.000000 1.000000 -0.000000
vn 0.000000 1.000000 -0.000000
vn 0.000000 1.000000 -0.000000
vn 0.000000 1.000000 -0.000000
vn 0.000000 1.000000 -0.000000
vn 0.000000 1.000000 -0.000000
vn 0.000000 1.000000 -0.000000
vn 0.000000 1.000000 -0.000000
vn 0.000000 1.000000 -0.000000
vn 0.000000 1.000000 -0.000000
vn 0.000000 1.000000 -0.000000
vn 0.000000 1.000000 -0.000000
vn 0.000000 1.000000 -0.000000
vn 0.000000 1.000000 -0.000000
vn 0.000000 1.000000 -0.000000
vn 0.000000 1.000000 -0.000000
vn 0.000000 1.000000 -0.000000
vn 0.000000 1.000000 -0.000000
vn 0.000000 1.000000 -0.000000
vn 0.000000 1.000000 -0.000000
vn 0.000000 1.000000 -0.000000
vn 0.000000 1.000000 -0.000000
vn 0.000000 1.000000 -0.000000
vn 0.000000 1.000000 -0.000000
vn 0.000000 1.000000 -0.000000
vn 0.000000 1.000000 -0.000000
vn 0.000000 1.000000 -0.000000
vn 0.000000 1.000000 -0.000000
vn 0.000000 1.000000 -0.000000
vn 0.000000 1.000000 -0.000000
vn 0.000000 1.000000 -0.000000
vn 0.000000 1.000000 -0.000000
vn 0.000000 1.000000 -0.000000
vn 0.000000 1.000000 -0.000000
vn 0.000000 1.000000 -0.000000
vn 0.000000 1.000000 -0.000000
vn 0.000000 1.000000 -0.000000
vn 0.000000 1.000000 -0.000000
vn 0.000000 1.000000 -0.000000
vn 0.000000 -0.000000 1.000000
vn 0.000000 -0.000000 1.000000
vn 0.386294 -0.000000 0.922376
vn 0.386294 -0.000000 0.922376
vn 0.707107 -0.000000 0.707107
vn 0.707107 -0.000000 0.707107
vn 0.922376 -0.000000 0.386294
vn 0.922376 -0.000000 0.386294
vn 1.000000 -0.000000 -0.000000
vn 1.000000 -0.000000 -0.000000
vn 0.922376 -0.000000 -0.386294
vn 0.922376 -0.000000 -0.386294
vn 0.707107 -0.000000 -0.707107
vn 0.707107 -0.000000 -0.707107
vn 0.386294 -0.000000 -0.922376
vn 0.386294 -0.000000 -0.922376
vn 0.000000 -0.000000 -1.000000
vn 0.000000 -0.000000 -1.000000
vn -0.386294 -0.000000 -0.922376
vn -0.386294 -0.000000 -0.922376
vn -0.707107 -0.000000 -0.707107
vn -0.707107 -0.000000 -0.707107
vn -0.922376 -0.000000 -0.386294
vn -0.922376 -0.000000 -0.386294
vn -1.000000 -0.000000 -0.000000
vn -1.000000 -0.000000 -0.000000
vn -0.922376 -0.000000 0.386294
vn -0.922376 -0.000000 0.386294
vn -0.707107 -0.000000 0.707107
vn -0.707107 -0.000000 0.707107
vn -0.386294 -0.000000 0.922376
vn -0.386294 -0.000000 0.922376
vn 0.000000 -0.000000 1.000000
vn 0.000000 -0.000000 1.000000
vn 0.386294 -0.000000 0.922376
vn 0.386294 -0.000000 0.922376
vn 0.707107 -0.000000 0.707107
vn 0.707107 -0.000000 0.707107
vn 0.922376 -0.000000 0.386294
vn 0.922376 -0.000000 0.386294
vn 1.000000 -0.000000 -0.000000
vn 1.000000 -0.000000 -0.000000
vn 0.922376 -0.000000 -0.386294
vn 0.922376 -0.000000 -0.386294
vn 0.707107 -0.000000 -0.707107
vn 0.707107 -0.000000 -0.707107
vn 0.386294 -0.000000 -0.922376
vn 0.386294 -0.000000 -0.922376
vn 0.000000 -0.000000 -1.000000
vn 0.000000 -0.000000 -1.000000
vn -0.386294 -0.000000 -0.922376
vn -0.386294 -0.000000 -0.922376
vn -0.707107 -0.000000 -0.707107
vn -0.707107 -0.000000 -0.707107
vn -0.922376 -0.000000 -0.386294
vn -0.922376 -0.000000 -0.386294
vn -1.000000 -0.000000 -0.000000
vn -1.000000 -0.000000 -0.000000
vn -0.922376 -0.000000 0.386294
vn -0.922376 -0.000000 0.386294
vn -0.707107 -0.000000 0.707107
vn -0.707107 -0.000000 0.707107
vn -0.386294 -0.000000 0.922376
vn -0.386294 -0.000000 0.922376
vn 0.000000 -0.000000 1.000000
vn -0.149108 -0.000000 0.988821
vn 0.000000 -0.000000 1.000000
vn -0.386294 -0.000000 0.922376
vn -0.386294 -0.000000 0.922376
vn -0.512176 -0.000000 0.858880
vn -0.707107 -0.000000 0.707107
vn -0.707107 -0.000000 0.707107
vn -0.922376 -0.000000 0.386294
vn -0.922376 -0.000000 0.386294
vn -0.969677 -0.000000 0.244390
vn -1.000000 -0.000000 -0.000000
vn -1.000000 -0.000000 -0.000000
vn -0.988821 -0.000000 -0.149108
vn -0.922376 -0.000000 -0.386294
vn -0.929019 -0.000000 -0.370033
vn -0.922376 -0.000000 -0.386294
vn -0.777793 -0.000000 -0.628520
vn -0.777793 -0.000000 -0.628520
vn -0.707107 -0.000000 -0.707107
vn -0.707107 -0.000000 -0.707107
vn -0.462834 -0.000000 -0.886445
vn -0.456636 -0.000000 -0.889653
vn -0.386294 -0.000000 -0.922376
vn -0.386294 -0.000000 -0.922376
vn -0.118213 -0.000000 -0.992988
vn 0.000000 -0.000000 -1.000000
vn 0.000000 -0.000000 -1.000000
vn 0.173336 -0.000000 -0.984863
vn 0.386294 -0.000000 -0.922376
vn 0.386294 -0.000000 -0.922376
vn 0.707107 -0.000000 -0.707107
vn 0.707107 -0.000000 -0.707107
vn 0.801883 -0.000000 -0.597481
vn 0.922376 -0.000000 -0.386294
vn 0.922376 -0.000000 -0.386294
vn 0.969677 -0.000000 -0.244390
vn 1.000000 -0.000000 -0.000000
vn 1.000000 -0.000000 -0.000000
vn 0.989950 -0.000000 0.141421
vn 0.922376 -0.000000 0.386294
vn 0.922376 -0.000000 0.386294
vn 0.858880 -0.000000 0.512176
vn 0.707107 -0.000000 0.707107
vn 0.707107 -0.000000 0.707107
vn 0.597481 -0.000000 0.801883
vn 0.386294 -0.000000 0.922376
vn 0.386294 -0.000000 0.922376
vn 0.386294 -0.000000 0.922376
vn 0.000000 -0.000000 1.000000
vn 0.000000 -0.000000 1.000000
vn 0.386294 -0.000000 0.922376
vn 0.707107 -0.000000 0.707107
vn 0.707107 -0.000000 0.707107
vn 0.922376 -0.000000 0.386294
vn 0.922376 -0.000000 0.386294
vn 1.000000 -0.000000 -0.000000
vn 1.000000 -0.000000 -0.000000
vn 0.922376 -0.000000 -0.386294
vn 0.922376 -0.000000 -0.386294
vn 0.707107 -0.000000 -0.707107
vn 0.707107 -0.000000 -0.707107
vn 0.386294 -0.000000 -0.922376
vn 0.386294 -0.000000 -0.922376
vn 0.000000 -0.000000 -1.000000
vn 0.000000 -0.000000 -1.000000
vn -0.386294 -0.000000 -0.922376
vn -0.386294 -0.000000 -0.922376
vn -0.707107 -0.000000 -0.707107
vn -0.707107 -0.000000 -0.707107
vn -0.922376 -0.000000 -0.386294
vn -0.922376 -0.000000 -0.386294
vn -1.000000 -0.000000 -0.000000
vn -1.000000 -0.000000 -0.000000
vn -0.922376 -0.000000 0.386294
vn -0.922376 -0.000000 0.386294
vn -0.707107 -0.000000 0.707107
vn -0.707107 -0.000000 0.707107
vn -0.386294 -0.000000 0.922376
vn -0.386294 -0.000000 0.922376
vn 1.000000 -0.000000 -0.000000
vn 0.922376 -0.386294 -0.000000
vn 1.000000 -0.000000 -0.000000
vn 0.922376 -0.386294 -0.000000
vn 0.707107 -0.707107 -0.000000
vn 0.707107 -0.707107 -0.000000
vn 0.386294 -0.922376 -0.000000
vn 0.386294 -0.922376 -0.000000
vn 0.000000 -1.000000 -0.000000
vn 0.000000 -1.000000 -0.000000
vn -0.386294 -0.922376 -0.000000
vn -0.386294 -0.922376 -0.000000
vn -0.707107 -0.707107 -0.000000
vn -0.707107 -0.707107 -0.000000
vn -0.922376 -0.386294 -0.000000
vn -0.922376 -0.386294 -0.000000
vn -1.000000 -0.000000 -0.000000
vn -1.000000 -0.000000 -0.000000
vn -0.922376 0.386294 -0.000000
vn -0.922376 0.386294 -0.000000
vn -0.707107 0.707107 -0.000000
vn -0.707107 0.707107 -0.000000
vn -0.386294 0.922376 -0.000000
vn -0.386294 0.922376 -0.000000
vn 0.000000 1.000000 -0.000000
vn 0.000000 1.000000 -0.000000
vn 0.386294 0.922376 -0.000000
vn 0.386294 0.922376 -0.000000
vn 0.707107 0.707107 -0.000000
vn 0.707107 0.707107 -0.000000
vn 0.922376 0.386294 -0.000000
vn 0.922376 0.386294 -0.000000
vn 1.000000 -0.000000 -0.000000
vn 0.922376 -0.386294 -0.000000
vn 1.000000 -0.000000 -0.000000
vn 0.922376 -0.386294 -0.000000
vn 0.707107 -0.707107 -0.000000
vn 0.707107 -0.707107 -0.000000
vn 0.386294 -0.922376 -0.000000
vn 0.386294 -0.922376 -0.000000
vn 0.000000 -1.000000 -0.000000
vn 0.000000 -1.000000 -0.000000
vn -0.386294 -0.922376 -0.000000
vn -0.386294 -0.922376 -0.000000
vn -0.707107 -0.707107 -0.000000
vn -0.707107 -0.707107 -0.000000
vn -0.922376 -0.386294 -0.000000
vn -0.922376 -0.386294 -0.000000
vn -1.000000 -0.000000 -0.000000
vn -1.000000 -0.000000 -0.000000
vn -0.922376 0.386294 -0.000000
vn -0.922376 0.386294 -0.000000
vn -0.707107 0.707107 -0.000000
vn -0.707107 0.707107 -0.000000
vn -0.386294 0.922376 -0.000000
vn -0.386294 0.922376 -0.000000
vn 0.000000 1.000000 -0.000000
vn 0.000000 1.000000 -0.000000
vn 0.386294 0.922376 -0.000000
vn 0.386294 0.922376 -0.000000
vn 0.707107 0.707107 -0.000000
vn 0.707107 0.707107 -0.000000
vn 0.922376 0.386294 -0.000000
vn 0.922376 0.386294 -0.000000
vn 0.000000 -0.000000 1.000000
vn 0.000000 -0.000000 1.000000
vn 0.000000 -0.000000 1.000000
vn 0.000000 -0.000000 1.000000
vn 0.000000 -0.000000 1.000000
vn 0.000000 -0.000000 1.000000
vn 0.000000 -0.000000 1.000000
vn 0.000000 -0.000000 1.000000
vn 0.000000 -0.000000 1.000000
vn 0.000000 -0.000000 1.000000
vn 0.000000 -0.000000 1.000000
vn 0.000000 -0.000000 1.000000
vn 0.000000 -0.000000 1.000000
vn 0.000000 -0.000000 1.000000
vn 0.000000 -0.000000 1.000000
vn 0.000000 -0.000000 1.000000
vn 0.000000 -0.000000 1.000000
vn 0.000000 -0.000000 -1.000000
vn 0.000000 -0.000000 -1.000000
vn 0.000000 -0.000000 -1.000000
vn 0.000000 -0.000000 -1.000000
vn 0.000000 -0.000000 -1.000000
vn 0.000000 -0.000000 -1.000000
vn 0.000000 -0.000000 -1.000000
vn 0.000000 -0.000000 -1.000000
vn 0.000000 -0.000000 -1.000000
vn 0.000000 -0.000000 -1.000000
vn 0.000000 -0.000000 -1.000000
vn 0.000000 -0.000000 -1.000000
vn 0.000000 -0.000000 -1.000000
vn 0.000000 -0.000000 -1.000000
vn 0.000000 -0.000000 -1.000000
vn 0.000000 -0.000000 -1.000000
vn 0.000000 -0.000000 -1.000000
vn 0.000000 -0.000000 1.000000
vn 0.000000 -0.000000 1.000000
vn 0.000000 -0.000000 1.000000
vn 0.000000 -0.000000 1.000000
vn 0.000000 -0.000000 1.000000
vn 0.000000 -0.000000 1.000000
vn 0.000000 -0.000000 1.000000
vn 0.000000 -0.000000 1.000000
vn 0.000000 -0.000000 1.000000
vn 0.000000 -0.000000 1.000000
vn 0.000000 -0.000000 1.000000
vn 0.000000 -0.000000 1.000000
vn 0.000000 -0.000000 1.000000
vn 0.000000 -0.000000 1.000000
vn 0.000000 -0.000000 1.000000
vn 0.000000 -0.000000 1.000000
vn 0.000000 -0.000000 1.000000
vn 0.000000 -0.000000 -1.000000
vn 0.000000 -0.000000 -1.000000
vn 0.000000 -0.000000 -1.000000
vn 0.000000 -0.000000 -1.000000
vn 0.000000 -0.000000 -1.000000
vn 0.000000 -0.000000 -1.000000
vn 0.000000 -0.000000 -1.000000
vn 0.000000 -0.000000 -1.000000
vn 0.000000 -0.000000 -1.000000
vn 0.000000 -0.000000 -1.000000
vn 0.000000 -0.000000 -1.000000
vn 0.000000 -0.000000 -1.000000
vn 0.000000 -0.000000 -1.000000
vn 0.000000 -0.000000 -1.000000
vn 0.000000 -0.000000 -1.000000
vn 0.000000 -0.000000 -1.000000
vn 0.000000 -0.000000 -1.000000
g SM_torpedo26_Material_001
usemtl Material_001
f 2/2/2 3/3/3 1/1/1
f 3/3/3 4/4/4 1/1/1
f 6/6/6 7/7/7 5/5/5
f 7/7/7 8/8/8 5/5/5
f 10/10/10 11/11/11 9/9/9
f 11/11/11 12/12/12 9/9/9
f 14/14/14 15/15/15 13/13/13
f 15/15/15 16/16/16 13/13/13
f 18/18/18 19/19/19 17/17/17
f 20/20/20 17/17/17 19/19/19
f 19/19/19 18/18/18 21/21/21
f 19/19/19 21/21/21 22/22/22
f 22/22/22 21/21/21 23/23/23
f 21/21/21 24/24/24 23/23/23
f 25/25/25 23/23/23 24/24/24
f 23/23/23 25/25/25 26/26/26
f 25/25/25 27/27/27 26/26/26
f 28/28/28 26/26/26 27/27/27
f 26/26/26 28/28/28 29/29/29
f 29/29/29 28/28/28 30/30/30
f 31/31/31 30/30/30 28/28/28
f 32/32/32 30/30/30 31/31/31
f 30/30/30 32/32/32 33/33/33
f 34/34/34 30/30/30 33/33/33
f 35/35/35 30/30/30 34/34/34
f 36/36/36 30/30/30 35/35/35
f 37/37/37 29/29/29 30/30/30
f 30/30/30 36/36/36 38/38/38
f 29/29/29 37/37/37 39/39/39
f 36/36/36 40/40/40 38/38/38
f 39/39/39 37/37/37 41/41/41
f 40/40/40 42/42/42 38/38/38
f 41/41/41 37/37/37 43/43/43
f 44/44/44 38/38/38 42/42/42
f 43/43/43 37/37/37 45/45/45
f 46/46/46 38/38/38 44/44/44
f 45/45/45 37/37/37 47/47/47
f 38/38/38 46/46/46 48/48/48
f 49/49/49 47/47/47 37/37/37
f 50/50/50 38/38/38 48/48/48
f 49/49/49 37/37/37 51/51/51
f 20/20/20 38/38/38 50/50/50
f 38/38/38 20/20/20 19/19/19
f 52/52/52 38/38/38 19/19/19
f 53/53/53 38/38/38 52/52/52
f 54/54/54 38/38/38 53/53/53
f 55/55/55 38/38/38 54/54/54
f 55/55/55 51/51/51 38/38/38
f 38/38/38 51/51/51 37/37/37
f 57/57/57 38/38/38 56/56/56
f 58/58/58 38/38/38 57/57/57
f 59/59/59 38/38/38 58/58/58
f 59/59/59 60/60/60 38/38/38
f 61/61/61 38/38/38 60/60/60
f 56/56/56 38/38/38 62/62/62
f 38/38/38 61/61/61 63/63/63
f 37/37/37 62/62/62 38/38/38
f 38/38/38 63/63/63 64/64/64
f 62/62/62 37/37/37 65/65/65
f 66/66/66 64/64/64 63/63/63
f 65/65/65 37/37/37 67/67/67
f 66/66/66 68/68/68 64/64/64
f 67/67/67 37/37/37 69/69/69
f 68/68/68 70/70/70 64/64/64
f 64/64/64 70/70/70 71/71/71
f 69/69/69 37/37/37 72/72/72
f 72/72/72 64/64/64 71/71/71
f 74/74/74 37/37/37 73/73/73
f 73/73/73 37/37/37 75/75/75
f 75/75/75 37/37/37 76/76/76
f 76/76/76 37/37/37 77/77/77
f 78/78/78 37/37/37 74/74/74
f 77/77/77 37/37/37 79/79/79
f 37/37/37 78/78/78 72/72/72
f 64/64/64 79/79/79 37/37/37
f 80/80/80 72/72/72 78/78/78
f 79/79/79 64/64/64 81/81/81
f 82/82/82 72/72/72 80/80/80
f 81/81/81 64/64/64 83/83/83
f 84/84/84 72/72/72 82/82/82
f 83/83/83 64/64/64 85/85/85
f 86/86/86 72/72/72 84/84/84
f 72/72/72 86/86/86 64/64/64
f 85/85/85 64/64/64 87/87/87
f 88/88/88 64/64/64 86/86/86
f 87/87/87 64/64/64 88/88/88
g SM_torpedo26_Material
usemtl Material
f 90/90/90 91/91/91 89/89/89
f 91/91/91 90/90/90 92/92/92
f 93/93/93 92/92/92 90/90/90
f 94/94/94 92/92/92 93/93/93
f 90/90/90 89/89/89 95/95/95
f 96/96/96 94/94/94 93/93/93
f 97/97/97 95/95/95 89/89/89
f 95/95/95 97/97/97 98/98/98
f 99/99/99 95/95/95 98/98/98
f 100/100/100 95/95/95 99/99/99
f 100/100/100 101/101/101 95/95/95
f 95/95/95 101/101/101 102/102/102
f 102/102/102 103/103/103 95/95/95
f 104/104/104 102/102/102 101/101/101
f 103/103/103 102/102/102 105/105/105
f 106/106/106 102/102/102 104/104/104
f 105/105/105 102/102/102 107/107/107
f 102/102/102 106/106/106 108/108/108
f 107/107/107 102/102/102 109/109/109
f 110/110/110 102/102/102 108/108/108
f 102/102/102 111/111/111 109/109/109
f 110/110/110 112/112/112 102/102/102
f 102/102/102 112/112/112 113/113/113
f 114/114/114 102/102/102 113/113/113
f 102/102/102 114/114/114 115/115/115
f 116/116/116 102/102/102 115/115/115
f 111/111/111 102/102/102 117/117/117
f 102/102/102 116/116/116 118/118/118
f 117/117/117 120/120/120 119/119/119
f 120/120/120 117/117/117 102/102/102
f 121/121/121 119/119/119 120/120/120
f 122/122/122 121/121/121 120/120/120
f 120/120/120 123/123/123 122/122/122
f 123/123/123 120/120/120 124/124/124
f 120/120/120 125/125/125 124/124/124
f 125/125/125 120/120/120 96/96/96
f 102/102/102 127/127/127 126/126/126
f 128/128/128 127/127/127 102/102/102
f 128/128/128 102/102/102 129/129/129
f 102/102/102 130/130/130 129/129/129
f 102/102/102 131/131/131 130/130/130
f 102/102/102 126/126/126 132/132/132
f 131/131/131 102/102/102 133/133/133
f 102/102/102 132/132/132 120/120/120
f 134/134/134 120/120/120 132/132/132
f 135/135/135 120/120/120 134/134/134
f 120/120/120 135/135/135 136/136/136
f 137/137/137 133/133/133 102/102/102
f 137/137/137 138/138/138 133/133/133
f 138/138/138 137/137/137 139/139/139
f 137/137/137 140/140/140 139/139/139
f 140/140/140 137/137/137 141/141/141
f 102/102/102 118/118/118 142/142/142
f 143/143/143 142/142/142 118/118/118
f 143/143/143 144/144/144 142/142/142
f 145/145/145 142/142/142 144/144/144
f 142/142/142 145/145/145 146/146/146
f 147/147/147 142/142/142 146/146/146
f 142/142/142 147/147/147 148/148/148
f 149/149/149 142/142/142 148/148/148
f 150/150/150 142/142/142 149/149/149
f 142/142/142 150/150/150 151/151/151
f 94/94/94 142/142/142 151/151/151
f 142/142/142 94/94/94 96/96/96
f 142/142/142 96/96/96 120/120/120
f 120/120/120 136/136/136 152/152/152
f 141/141/141 137/137/137 152/152/152
f 154/154/154 120/120/120 153/153/153
f 154/154/154 155/155/155 120/120/120
f 120/120/120 155/155/155 156/156/156
f 120/120/120 156/156/156 157/157/157
f 120/120/120 158/158/158 153/153/153
f 157/157/157 159/159/159 120/120/120
f 152/152/152 158/158/158 120/120/120
f 120/120/120 159/159/159 137/137/137
f 152/152/152 160/160/160 158/158/158
f 159/159/159 161/161/161 137/137/137
f 162/162/162 160/160/160 152/152/152
f 163/163/163 137/137/137 161/161/161
f 164/164/164 162/162/162 152/152/152
f 165/165/165 137/137/137 163/163/163
f 164/164/164 152/152/152 166/166/166
f 137/137/137 166/166/166 152/152/152
f 137/137/137 165/165/165 167/167/167
f 166/166/166 137/137/137 168/168/168
f 168/168/168 137/137/137 167/167/167
g SM_torpedo26_WorldGridMaterial
usemtl WorldGridMaterial
f 170/170/170 171/171/171 169/169/169
f 172/172/172 169/169/169 171/171/171
f 173/173/173 172/172/172 171/171/171
f 172/172/172 173/173/173 174/174/174
f 175/175/175 174/174/174 173/173/173
f 174/174/174 175/175/175 176/176/176
f 176/176/176 175/175/175 177/177/177
f 175/175/175 178/178/178 177/177/177
f 177/177/177 178/178/178 179/179/179
f 178/178/178 180/180/180 179/179/179
f 180/180/180 181/181/181 179/179/179
f 182/182/182 179/179/179 181/181/181
f 182/182/182 181/181/181 183/183/183
f 181/181/181 184/184/184 183/183/183
f 185/185/185 183/183/183 184/184/184
f 183/183/183 185/185/185 186/186/186
f 186/186/186 185/185/185 187/187/187
f 185/185/185 188/188/188 187/187/187
f 188/188/188 189/189/189 187/187/187
f 190/190/190 187/187/187 189/189/189
f 190/190/190 189/189/189 191/191/191
f 189/189/189 192/192/192 191/191/191
f 193/193/193 191/191/191 192/192/192
f 194/194/194 191/191/191 193/193/193
f 195/195/195 194/194/194 193/193/193
f 195/195/195 193/193/193 196/196/196
f 197/197/197 195/195/195 196/196/196
f 198/198/198 195/195/195 197/197/197
f 198/198/198 197/197/197 199/199/199
f 199/199/199 197/197/197 200/200/200
f 199/199/199 200/200/200 169/201/169
f 200/200/200 170/202/170 169/201/169
f 202/204/202 203/205/203 201/203/201
f 201/203/201 203/205/203 204/206/204
f 205/207/205 204/206/204 203/205/203
f 204/206/204 205/207/205 206/208/206
f 207/209/207 206/208/206 205/207/205
f 208/210/208 206/208/206 207/209/207
f 208/210/208 207/209/207 209/211/209
f 207/209/207 210/212/210 209/211/209
f 209/211/209 210/212/210 211/213/211
f 210/212/210 212/214/212 211/213/211
f 211/213/211 212/214/212 213/215/213
f 212/214/212 214/216/214 213/215/213
f 213/215/213 214/216/214 215/217/215
f 214/216/214 216/218/216 215/217/215
f 217/219/217 215/217/215 216/218/216
f 218/220/218 215/217/215 217/219/217
f 218/220/218 217/219/217 219/221/219
f 217/219/217 220/222/220 219/221/219
f 219/221/219 220/222/220 221/223/221
f 220/222/220 222/224/222 221/223/221
f 221/223/221 222/224/222 223/225/223
f 222/224/222 224/226/224 223/225/223
f 225/227/225 223/225/223 224/226/224
f 226/228/226 223/225/223 225/227/225
f 227/229/227 226/228/226 225/227/225
f 228/230/228 226/228/226 227/229/227
f 229/231/229 228/230/228 227/229/227
f 230/232/230 228/230/228 229/231/229
f 231/233/231 230/232/230 229/231/229
f 232/234/232 230/232/230 231/233/231
f 232/234/232 231/233/231 201/235/201
f 231/233/231 202/236/202 201/235/201
f 234/238/234 235/239/235 233/237/233
f 236/240/236 235/239/235 234/238/234
f 237/241/237 236/240/236 234/238/234
f 237/241/237 238/242/238 236/240/236
f 239/243/239 238/242/238 237/241/237
f 238/242/238 239/243/239 240/244/240
f 241/245/241 240/244/240 239/243/239
f 240/244/240 241/245/241 242/246/242
f 241/245/241 243/247/243 242/246/242
f 241/245/241 244/248/244 243/247/243
f 243/247/243 244/248/244 245/249/245
f 244/248/244 246/250/246 245/249/245
f 246/250/246 247/251/247 245/249/245
f 248/252/248 247/251/247 246/250/246
f 249/253/249 247/251/247 248/252/248
f 249/253/249 250/254/250 247/251/247
f 251/255/251 250/254/250 249/253/249
f 250/254/250 251/255/251 252/256/252
f 253/257/253 252/256/252 251/255/251
f 253/257/253 254/258/254 252/256/252
f 255/259/255 254/258/254 253/257/253
f 254/258/254 255/259/255 256/260/256
f 257/261/257 256/260/256 255/259/255
f 257/261/257 258/262/258 256/260/256
f 256/260/256 258/262/258 259/263/259
f 260/264/260 259/263/259 258/262/258
f 260/264/260 261/265/261 259/263/259
f 259/263/259 261/265/261 262/266/262
f 263/267/263 262/266/262 261/265/261
f 263/267/263 264/268/264 262/266/262
f 265/269/265 264/268/264 263/267/263
f 265/269/265 266/270/266 264/268/264
f 267/271/267 264/268/264 266/270/266
f 268/272/268 267/271/267 266/270/266
f 268/272/268 269/273/269 267/271/267
f 270/274/270 267/271/267 269/273/269
f 271/275/271 270/274/270 269/273/269
f 272/276/272 270/274/270 271/275/271
f 273/277/273 270/274/270 272/276/272
f 274/278/274 273/277/273 272/276/272
f 274/278/274 275/279/275 273/277/273
f 275/279/275 276/280/276 273/277/273
f 275/279/275 277/281/277 276/280/276
f 277/281/277 278/282/278 276/280/276
f 278/282/278 279/283/279 276/280/276
f 278/282/278 280/284/280 279/283/279
f 280/284/280 233/285/233 279/283/279
f 235/286/235 279/283/279 233/285/233
f 282/288/282 283/289/283 281/287/281
f 281/287/281 283/289/283 284/290/284
f 285/291/285 281/287/281 284/290/284
f 286/292/286 281/287/281 285/291/285
f 287/293/287 286/292/286 285/291/285
f 287/293/287 285/291/285 288/294/288
f 288/294/288 289/295/289 287/293/287
f 290/296/290 287/293/287 289/295/289
f 290/296/290 289/295/289 291/297/291
f 289/295/289 292/298/292 291/297/291
f 291/297/291 292/298/292 293/299/293
f 292/298/292 294/300/294 293/299/293
f 293/299/293 294/300/294 295/301/295
f 294/300/294 296/302/296 295/301/295
f 297/303/297 295/301/295 296/302/296
f 298/304/298 295/301/295 297/303/297
f 297/303/297 299/305/299 298/304/298
f 300/306/300 298/304/298 299/305/299
f 300/306/300 299/305/299 301/307/301
f 299/305/299 302/308/302 301/307/301
f 301/307/301 302/308/302 303/309/303
f 302/308/302 304/310/304 303/309/303
f 305/311/305 303/309/303 304/310/304
f 303/309/303 305/311/305 306/312/306
f 306/312/306 305/311/305 307/313/307
f 307/313/307 305/311/305 308/314/308
f 309/315/309 307/313/307 308/314/308
f 309/315/309 308/314/308 310/316/310
f 309/315/309 310/316/310 311/317/311
f 312/318/312 309/315/309 311/317/311
f 312/318/312 311/317/311 282/319/282
f 311/317/311 283/320/283 282/319/282
g SM_torpedo26_Material_006
usemtl Material_006
f 314/322/314 315/323/315 313/321/313
f 313/321/313 316/324/316 314/322/314
f 317/325/317 314/322/314 316/324/316
f 316/324/316 318/326/318 317/325/317
f 319/327/319 317/325/317 318/326/318
f 318/326/318 320/328/320 319/327/319
f 321/329/321 319/327/319 320/328/320
f 320/328/320 322/330/322 321/329/321
f 323/331/323 321/329/321 322/330/322
f 322/330/322 324/332/324 323/331/323
f 325/333/325 323/331/323 324/332/324
f 324/332/324 326/334/326 325/333/325
f 327/335/327 325/333/325 326/334/326
f 326/334/326 328/336/328 327/335/327
f 329/337/329 327/335/327 328/336/328
f 328/336/328 330/338/330 329/337/329
f 331/339/331 329/337/329 330/338/330
f 330/338/330 332/340/332 331/339/331
f 333/341/333 331/339/331 332/340/332
f 332/340/332 334/342/334 333/341/333
f 335/343/335 333/341/333 334/342/334
f 334/342/334 336/344/336 335/343/335
f 337/345/337 335/343/335 336/344/336
f 336/344/336 338/346/338 337/345/337
f 339/347/339 337/345/337 338/346/338
f 338/346/338 340/348/340 339/347/339
f 341/349/341 339/347/339 340/348/340
f 340/348/340 342/350/342 341/349/341
f 343/351/343 341/349/341 342/350/342
f 342/350/342 344/352/344 343/351/343
f 315/353/315 343/351/343 344/352/344
f 344/352/344 313/354/313 315/353/315
f 346/356/346 347/357/347 345/355/345
f 345/355/345 348/358/348 346/356/346
f 349/359/349 346/356/346 348/358/348
f 348/358/348 350/360/350 349/359/349
f 351/361/351 349/359/349 350/360/350
f 350/360/350 352/362/352 351/361/351
f 353/363/353 351/361/351 352/362/352
f 352/362/352 354/364/354 353/363/353
f 355/365/355 353/363/353 354/364/354
f 354/364/354 356/366/356 355/365/355
f 357/367/357 355/365/355 356/366/356
f 356/366/356 358/368/358 357/367/357
f 359/369/359 357/367/357 358/368/358
f 358/368/358 360/370/360 359/369/359
f 361/371/361 359/369/359 360/370/360
f 360/370/360 362/372/362 361/371/361
f 363/373/363 361/371/361 362/372/362
f 362/372/362 364/374/364 363/373/363
f 365/375/365 363/373/363 364/374/364
f 364/374/364 366/376/366 365/375/365
f 367/377/367 365/375/365 366/376/366
f 366/376/366 368/378/368 367/377/367
f 369/379/369 367/377/367 368/378/368
f 368/378/368 370/380/370 369/379/369
f 371/381/371 369/379/369 370/380/370
f 370/380/370 372/382/372 371/381/371
f 373/383/373 371/381/371 372/382/372
f 372/382/372 374/384/374 373/383/373
f 375/385/375 373/383/373 374/384/374
f 374/384/374 376/386/376 375/385/375
f 347/387/347 375/385/375 376/386/376
f 376/386/376 345/388/345 347/387/347
f 378/390/378 379/391/379 377/389/377
f 378/390/378 377/389/377 380/392/380
f 378/390/378 381/393/381 379/391/379
f 378/390/378 380/392/380 382/394/382
f 378/390/378 383/395/383 381/393/381
f 378/390/378 382/394/382 384/396/384
f 378/390/378 385/397/385 383/395/383
f 378/390/378 384/396/384 386/398/386
f 378/390/378 387/399/387 385/397/385
f 378/390/378 386/398/386 388/400/388
f 378/390/378 389/401/389 387/399/387
f 378/390/378 388/400/388 390/402/390
f 378/390/378 391/403/391 389/401/389
f 378/390/378 390/402/390 392/404/392
f 378/390/378 393/405/393 391/403/391
f 378/390/378 392/404/392 393/405/393
f 395/407/395 396/408/396 394/406/394
f 395/407/395 394/406/394 397/409/397
f 395/407/395 398/410/398 396/408/396
f 395/407/395 397/409/397 399/411/399
f 395/407/395 400/412/400 398/410/398
f 395/407/395 399/411/399 401/413/401
f 395/407/395 402/414/402 400/412/400
f 395/407/395 401/413/401 403/415/403
f 395/407/395 404/416/404 402/414/402
f 395/407/395 403/415/403 405/417/405
f 395/407/395 406/418/406 404/416/404
f 395/407/395 405/417/405 407/419/407
f 395/407/395 408/420/408 406/418/406
f 395/407/395 407/419/407 409/421/409
f 395/407/395 410/422/410 408/420/408
f 395/407/395 409/421/409 410/422/410
f 412/424/412 413/425/413 411/423/411
f 412/424/412 411/423/411 414/426/414
f 412/424/412 415/427/415 413/425/413
f 412/424/412 414/426/414 416/428/416
f 412/424/412 417/429/417 415/427/415
f 412/424/412 416/428/416 418/430/418
f 412/424/412 419/431/419 417/429/417
f 412/424/412 418/430/418 420/432/420
f 412/424/412 421/433/421 419/431/419
f 412/424/412 420/432/420 422/434/422
f 412/424/412 423/435/423 421/433/421
f 412/424/412 422/434/422 424/436/424
f 412/424/412 425/437/425 423/435/423
f 412/424/412 424/436/424 426/438/426
f 412/424/412 427/439/427 425/437/425
f 412/424/412 426/438/426 427/439/427
f 429/441/429 430/442/430 428/440/428
f 429/441/429 428/440/428 431/443/431
f 429/441/429 432/444/432 430/442/430
f 429/441/429 431/443/431 433/445/433
f 429/441/429 434/446/434 432/444/432
f 429/441/429 433/445/433 435/447/435
f 429/441/429 436/448/436 434/446/434
f 429/441/429 435/447/435 437/449/437
f 429/441/429 438/450/438 436/448/436
f 429/441/429 437/449/437 439/451/439
f 429/441/429 440/452/440 438/450/438
f 429/441/429 439/451/439 441/453/441
f 429/441/429 442/454/442 440/452/440
f 429/441/429 441/453/441 443/455/443
f 429/441/429 444/456/444 442/454/442
f 429/441/429 443/455/443 444/456/444
