# Blender 4.3.2
# www.blender.org
o Cube.002
v -0.180661 -0.301338 0.403618
v -0.180661 -0.168474 0.403618
v -0.180661 -0.301338 -0.403618
v -0.180661 -0.168474 -0.403618
v 0.180661 -0.301338 0.403618
v 0.180661 -0.168474 0.403618
v 0.180661 -0.301338 -0.403618
v 0.180661 -0.168474 -0.403618
vn -1.0000 -0.0000 -0.0000
vn -0.0000 -0.0000 -1.0000
vn 1.0000 -0.0000 -0.0000
vn -0.0000 -0.0000 1.0000
vn -0.0000 -1.0000 -0.0000
vn -0.0000 1.0000 -0.0000
vt 0.625000 0.000000
vt 0.375000 0.250000
vt 0.375000 0.000000
vt 0.625000 0.250000
vt 0.375000 0.500000
vt 0.625000 0.500000
vt 0.375000 0.750000
vt 0.625000 0.750000
vt 0.375000 1.000000
vt 0.125000 0.750000
vt 0.125000 0.500000
vt 0.875000 0.500000
vt 0.625000 1.000000
vt 0.875000 0.750000
s 1
f 2/1/1 3/2/1 1/3/1
f 4/4/2 7/5/2 3/2/2
f 8/6/3 5/7/3 7/5/3
f 6/8/4 1/9/4 5/7/4
f 7/5/5 1/10/5 3/11/5
f 4/12/6 6/8/6 8/6/6
f 2/1/1 4/4/1 3/2/1
f 4/4/2 8/6/2 7/5/2
f 8/6/3 6/8/3 5/7/3
f 6/8/4 2/13/4 1/9/4
f 7/5/5 5/7/5 1/10/5
f 4/12/6 2/14/6 6/8/6
o Cube.003
v -0.744861 -0.176327 0.724214
v -0.744861 -0.150435 0.724214
v -0.744861 -0.176327 -0.724214
v -0.744861 -0.150435 -0.724214
v -0.717087 -0.176327 0.724214
v -0.717087 -0.150435 0.724214
v -0.717087 -0.176327 -0.724214
v -0.717087 -0.150435 -0.724214
vn -1.0000 -0.0000 -0.0000
vn -0.0000 -0.0000 -1.0000
vn 1.0000 -0.0000 -0.0000
vn -0.0000 -0.0000 1.0000
vn -0.0000 -1.0000 -0.0000
vn -0.0000 1.0000 -0.0000
vt 0.625000 0.000000
vt 0.375000 0.250000
vt 0.375000 0.000000
vt 0.625000 0.250000
vt 0.375000 0.500000
vt 0.625000 0.500000
vt 0.375000 0.750000
vt 0.625000 0.750000
vt 0.375000 1.000000
vt 0.125000 0.750000
vt 0.125000 0.500000
vt 0.875000 0.500000
vt 0.625000 1.000000
vt 0.875000 0.750000
s 1
f 10/15/7 11/16/7 9/17/7
f 12/18/8 15/19/8 11/16/8
f 16/20/9 13/21/9 15/19/9
f 14/22/10 9/23/10 13/21/10
f 15/19/11 9/24/11 11/25/11
f 12/26/12 14/22/12 16/20/12
f 10/15/7 12/18/7 11/16/7
f 12/18/8 16/20/8 15/19/8
f 16/20/9 14/22/9 13/21/9
f 14/22/10 10/27/10 9/23/10
f 15/19/11 13/21/11 9/24/11
f 12/26/12 10/28/12 14/22/12
o Cube.004
v 0.713785 -0.176327 0.724214
v 0.713785 -0.150435 0.724214
v 0.713785 -0.176327 -0.724214
v 0.713785 -0.150435 -0.724214
v 0.741560 -0.176327 0.724214
v 0.741560 -0.150435 0.724214
v 0.741560 -0.176327 -0.724214
v 0.741560 -0.150435 -0.724214
vn -1.0000 -0.0000 -0.0000
vn -0.0000 -0.0000 -1.0000
vn 1.0000 -0.0000 -0.0000
vn -0.0000 -0.0000 1.0000
vn -0.0000 -1.0000 -0.0000
vn -0.0000 1.0000 -0.0000
vt 0.625000 0.000000
vt 0.375000 0.250000
vt 0.375000 0.000000
vt 0.625000 0.250000
vt 0.375000 0.500000
vt 0.625000 0.500000
vt 0.375000 0.750000
vt 0.625000 0.750000
vt 0.375000 1.000000
vt 0.125000 0.750000
vt 0.125000 0.500000
vt 0.875000 0.500000
vt 0.625000 1.000000
vt 0.875000 0.750000
s 1
f 18/29/13 19/30/13 17/31/13
f 20/32/14 23/33/14 19/30/14
f 24/34/15 21/35/15 23/33/15
f 22/36/16 17/37/16 21/35/16
f 23/33/17 17/38/17 19/39/17
f 20/40/18 22/36/18 24/34/18
f 18/29/13 20/32/13 19/30/13
f 20/32/14 24/34/14 23/33/14
f 24/34/15 22/36/15 21/35/15
f 22/36/16 18/41/16 17/37/16
f 23/33/17 21/35/17 17/38/17
f 20/40/18 18/42/18 22/36/18
o Cube.005
v 0.214384 -0.176327 0.395453
v 0.214384 -0.150435 0.395453
v 0.214384 -0.176327 -0.395453
v 0.214384 -0.150435 -0.395453
v 0.242159 -0.176327 0.395453
v 0.242159 -0.150435 0.395453
v 0.242159 -0.176327 -0.395453
v 0.242159 -0.150435 -0.395453
vn -1.0000 -0.0000 -0.0000
vn -0.0000 -0.0000 -1.0000
vn 1.0000 -0.0000 -0.0000
vn -0.0000 -0.0000 1.0000
vn -0.0000 -1.0000 -0.0000
vn -0.0000 1.0000 -0.0000
vt 0.625000 0.000000
vt 0.375000 0.250000
vt 0.375000 0.000000
vt 0.625000 0.250000
vt 0.375000 0.500000
vt 0.625000 0.500000
vt 0.375000 0.750000
vt 0.625000 0.750000
vt 0.375000 1.000000
vt 0.125000 0.750000
vt 0.125000 0.500000
vt 0.875000 0.500000
vt 0.625000 1.000000
vt 0.875000 0.750000
s 1
f 26/43/19 27/44/19 25/45/19
f 28/46/20 31/47/20 27/44/20
f 32/48/21 29/49/21 31/47/21
f 30/50/22 25/51/22 29/49/22
f 31/47/23 25/52/23 27/53/23
f 28/54/24 30/50/24 32/48/24
f 26/43/19 28/46/19 27/44/19
f 28/46/20 32/48/20 31/47/20
f 32/48/21 30/50/21 29/49/21
f 30/50/22 26/55/22 25/51/22
f 31/47/23 29/49/23 25/52/23
f 28/54/24 26/56/24 30/50/24
o Cube.006
v -0.245460 -0.176327 0.395453
v -0.245460 -0.150435 0.395453
v -0.245460 -0.176327 -0.395453
v -0.245460 -0.150435 -0.395453
v -0.217686 -0.176327 0.395453
v -0.217686 -0.150435 0.395453
v -0.217686 -0.176327 -0.395453
v -0.217686 -0.150435 -0.395453
vn -1.0000 -0.0000 -0.0000
vn -0.0000 -0.0000 -1.0000
vn 1.0000 -0.0000 -0.0000
vn -0.0000 -0.0000 1.0000
vn -0.0000 -1.0000 -0.0000
vn -0.0000 1.0000 -0.0000
vt 0.625000 0.000000
vt 0.375000 0.250000
vt 0.375000 0.000000
vt 0.625000 0.250000
vt 0.375000 0.500000
vt 0.625000 0.500000
vt 0.375000 0.750000
vt 0.625000 0.750000
vt 0.375000 1.000000
vt 0.125000 0.750000
vt 0.125000 0.500000
vt 0.875000 0.500000
vt 0.625000 1.000000
vt 0.875000 0.750000
s 1
f 34/57/25 35/58/25 33/59/25
f 36/60/26 39/61/26 35/58/26
f 40/62/27 37/63/27 39/61/27
f 38/64/28 33/65/28 37/63/28
f 39/61/29 33/66/29 35/67/29
f 36/68/30 38/64/30 40/62/30
f 34/57/25 36/60/25 35/58/25
f 36/60/26 40/62/26 39/61/26
f 40/62/27 38/64/27 37/63/27
f 38/64/28 34/69/28 33/65/28
f 39/61/29 37/63/29 33/66/29
f 36/68/30 34/70/30 38/64/30
o Cube.007
v 0.725646 -0.176327 -0.373769
v 0.725646 -0.150435 -0.373769
v -0.727698 -0.176327 -0.373769
v -0.727698 -0.150435 -0.373769
v 0.725646 -0.176327 -0.401543
v 0.725646 -0.150435 -0.401543
v -0.727698 -0.176327 -0.401543
v -0.727698 -0.150435 -0.401543
vn -0.0000 -0.0000 1.0000
vn -1.0000 -0.0000 -0.0000
vn -0.0000 -0.0000 -1.0000
vn 1.0000 -0.0000 -0.0000
vn -0.0000 -1.0000 -0.0000
vn -0.0000 1.0000 -0.0000
vt 0.625000 0.000000
vt 0.375000 0.250000
vt 0.375000 0.000000
vt 0.625000 0.250000
vt 0.375000 0.500000
vt 0.625000 0.500000
vt 0.375000 0.750000
vt 0.625000 0.750000
vt 0.375000 1.000000
vt 0.125000 0.750000
vt 0.125000 0.500000
vt 0.875000 0.500000
vt 0.625000 1.000000
vt 0.875000 0.750000
s 1
f 42/71/31 43/72/31 41/73/31
f 44/74/32 47/75/32 43/72/32
f 48/76/33 45/77/33 47/75/33
f 46/78/34 41/79/34 45/77/34
f 47/75/35 41/80/35 43/81/35
f 44/82/36 46/78/36 48/76/36
f 42/71/31 44/74/31 43/72/31
f 44/74/32 48/76/32 47/75/32
f 48/76/33 46/78/33 45/77/33
f 46/78/34 42/83/34 41/79/34
f 47/75/35 45/77/35 41/80/35
f 44/82/36 42/84/36 46/78/36
o Cube.008
v 0.725646 -0.176327 0.397744
v 0.725646 -0.150435 0.397744
v -0.727698 -0.176327 0.397744
v -0.727698 -0.150435 0.397744
v 0.725646 -0.176327 0.369969
v 0.725646 -0.150435 0.369969
v -0.727698 -0.176327 0.369969
v -0.727698 -0.150435 0.369969
vn -0.0000 -0.0000 1.0000
vn -1.0000 -0.0000 -0.0000
vn -0.0000 -0.0000 -1.0000
vn 1.0000 -0.0000 -0.0000
vn -0.0000 -1.0000 -0.0000
vn -0.0000 1.0000 -0.0000
vt 0.625000 0.000000
vt 0.375000 0.250000
vt 0.375000 0.000000
vt 0.625000 0.250000
vt 0.375000 0.500000
vt 0.625000 0.500000
vt 0.375000 0.750000
vt 0.625000 0.750000
vt 0.375000 1.000000
vt 0.125000 0.750000
vt 0.125000 0.500000
vt 0.875000 0.500000
vt 0.625000 1.000000
vt 0.875000 0.750000
s 1
f 50/85/37 51/86/37 49/87/37
f 52/88/38 55/89/38 51/86/38
f 56/90/39 53/91/39 55/89/39
f 54/92/40 49/93/40 53/91/40
f 55/89/41 49/94/41 51/95/41
f 52/96/42 54/92/42 56/90/42
f 50/85/37 52/88/37 51/86/37
f 52/88/38 56/90/38 55/89/38
f 56/90/39 54/92/39 53/91/39
f 54/92/40 50/97/40 49/93/40
f 55/89/41 53/91/41 49/94/41
f 52/96/42 50/98/42 54/92/42
o Cube.009
v -0.253685 -0.408891 0.278122
v -0.253685 -0.401113 0.278122
v -0.253685 -0.408891 -0.278122
v -0.253685 -0.401113 -0.278122
v 0.165972 -0.408891 0.278122
v 0.165972 -0.401113 0.278122
v 0.165972 -0.408891 -0.278122
v 0.165972 -0.401113 -0.278122
vn -1.0000 -0.0000 -0.0000
vn -0.0000 -0.0000 -1.0000
vn 1.0000 -0.0000 -0.0000
vn -0.0000 -0.0000 1.0000
vn -0.0000 -1.0000 -0.0000
vn -0.0000 1.0000 -0.0000
vt 0.625000 0.000000
vt 0.375000 0.250000
vt 0.375000 0.000000
vt 0.625000 0.250000
vt 0.375000 0.500000
vt 0.625000 0.500000
vt 0.375000 0.750000
vt 0.625000 0.750000
vt 0.375000 1.000000
vt 0.125000 0.750000
vt 0.125000 0.500000
vt 0.875000 0.500000
vt 0.625000 1.000000
vt 0.875000 0.750000
s 1
f 58/99/43 59/100/43 57/101/43
f 60/102/44 63/103/44 59/100/44
f 64/104/45 61/105/45 63/103/45
f 62/106/46 57/107/46 61/105/46
f 63/103/47 57/108/47 59/109/47
f 60/110/48 62/106/48 64/104/48
f 58/99/43 60/102/43 59/100/43
f 60/102/44 64/104/44 63/103/44
f 64/104/45 62/106/45 61/105/45
f 62/106/46 58/111/46 57/107/46
f 63/103/47 61/105/47 57/108/47
f 60/110/48 58/112/48 62/106/48
o Cube.010
v -0.741065 -0.167169 0.401954
v -0.741065 -0.159392 0.401954
v -0.741065 -0.167169 -0.401954
v -0.741065 -0.159392 -0.401954
v -0.253062 -0.408891 0.278122
v -0.253062 -0.401113 0.278122
v -0.253062 -0.408891 -0.278122
v -0.253062 -0.401113 -0.278122
vn -1.0000 -0.0000 -0.0000
vn 0.2460 -0.0000 -0.9693
vn 1.0000 -0.0000 -0.0000
vn 0.2460 -0.0000 0.9693
vn -0.4439 -0.8961 -0.0000
vn 0.4439 0.8961 -0.0000
vt 0.625000 0.000000
vt 0.375000 0.250000
vt 0.375000 0.000000
vt 0.625000 0.500000
vt 0.375000 0.500000
vt 0.375000 0.750000
vt 0.625000 0.750000
vt 0.375000 1.000000
vt 0.125000 0.750000
vt 0.125000 0.500000
vt 0.875000 0.500000
vt 0.625000 0.250000
vt 0.625000 1.000000
vt 0.875000 0.750000
s 1
f 66/113/49 67/114/49 65/115/49
f 67/114/50 72/116/50 71/117/50
f 72/116/51 69/118/51 71/117/51
f 70/119/52 65/120/52 69/118/52
f 71/117/53 65/121/53 67/122/53
f 68/123/54 70/119/54 72/116/54
f 66/113/49 68/124/49 67/114/49
f 67/114/50 68/124/50 72/116/50
f 72/116/51 70/119/51 69/118/51
f 70/119/52 66/125/52 65/120/52
f 71/117/53 69/118/53 65/121/53
f 68/123/54 66/126/54 70/119/54
o Cube.011
v 0.649449 -0.211373 -0.347235
v 0.649449 -0.203596 -0.347235
v 0.649450 -0.211373 0.347235
v 0.649450 -0.203596 0.347235
v 0.161446 -0.408891 -0.278122
v 0.161446 -0.401113 -0.278122
v 0.161446 -0.408891 0.278122
v 0.161446 -0.401113 0.278122
v 0.738955 -0.178714 0.361722
v 0.738955 -0.178714 -0.361722
v 0.738955 -0.170936 -0.361722
v 0.738955 -0.170936 0.361722
vn -0.3428 0.9394 -0.0000
vn -0.1402 -0.0000 0.9901
vn -1.0000 -0.0000 -0.0000
vn -0.1402 -0.0000 -0.9901
vn 0.3752 -0.9270 -0.0000
vn -0.3752 0.9270 -0.0000
vn 1.0000 -0.0000 -0.0000
vn 0.3428 -0.9394 -0.0000
vn -0.1598 -0.0000 0.9872
vn -0.1598 -0.0000 -0.9872
vt 0.875000 0.500000
vt 0.875000 0.750000
vt 0.375000 0.250000
vt 0.625000 0.500000
vt 0.375000 0.500000
vt 0.375000 0.750000
vt 0.625000 0.750000
vt 0.375000 1.000000
vt 0.125000 0.750000
vt 0.125000 0.500000
vt 0.625000 0.000000
vt 0.375000 0.000000
vt 0.625000 0.250000
vt 0.625000 1.000000
s 1
f 76/127/55 83/128/55 74/128/55
f 75/129/56 80/130/56 79/131/56
f 80/130/57 77/132/57 79/131/57
f 78/133/58 73/134/58 77/132/58
f 79/131/59 73/135/59 75/136/59
f 76/127/60 78/133/60 80/130/60
f 83/137/61 81/129/61 82/138/61
f 73/135/62 81/136/62 75/136/62
f 76/139/63 81/129/63 84/139/63
f 74/140/64 82/134/64 73/134/64
f 76/127/55 84/127/55 83/128/55
f 75/129/56 76/139/56 80/130/56
f 80/130/57 78/133/57 77/132/57
f 78/133/58 74/140/58 73/134/58
f 79/131/59 77/132/59 73/135/59
f 76/127/60 74/128/60 78/133/60
f 83/137/61 84/139/61 81/129/61
f 73/135/62 82/135/62 81/136/62
f 76/139/63 75/129/63 81/129/63
f 74/140/64 83/140/64 82/134/64
o Cube.014
v 0.177431 -0.406917 0.087420
v 0.177431 -0.387155 0.087420
v 0.177431 -0.406917 -0.087420
v 0.177431 -0.387155 -0.087420
v 0.212068 -0.406917 0.087420
v 0.212068 -0.387155 0.087420
v 0.212068 -0.406917 -0.087420
v 0.212068 -0.387155 -0.087420
vn -1.0000 -0.0000 -0.0000
vn -0.0000 -0.0000 -1.0000
vn 1.0000 -0.0000 -0.0000
vn -0.0000 -0.0000 1.0000
vn -0.0000 -1.0000 -0.0000
vn -0.0000 1.0000 -0.0000
vt 0.625000 0.000000
vt 0.375000 0.250000
vt 0.375000 0.000000
vt 0.625000 0.250000
vt 0.375000 0.500000
vt 0.625000 0.500000
vt 0.375000 0.750000
vt 0.625000 0.750000
vt 0.375000 1.000000
vt 0.125000 0.750000
vt 0.125000 0.500000
vt 0.875000 0.500000
vt 0.625000 1.000000
vt 0.875000 0.750000
s 1
f 86/141/65 87/142/65 85/143/65
f 88/144/66 91/145/66 87/142/66
f 92/146/67 89/147/67 91/145/67
f 90/148/68 85/149/68 89/147/68
f 91/145/69 85/150/69 87/151/69
f 88/152/70 90/148/70 92/146/70
f 86/141/65 88/144/65 87/142/65
f 88/144/66 92/146/66 91/145/66
f 92/146/67 90/148/67 89/147/67
f 90/148/68 86/153/68 85/149/68
f 91/145/69 89/147/69 85/150/69
f 88/152/70 86/154/70 90/148/70
