# Blender 4.5.1 LTS
# www.blender.org
mtllib pipe_finished.mtl
o Pipeline
v -0.050000 -0.000000 0.076603
v -0.086603 -0.000000 0.040000
v -0.100000 -0.000000 -0.010000
v -0.086603 -0.000000 -0.060000
v -0.050000 -0.000000 -0.096602
v 0.000000 -0.000000 -0.110000
v 0.050000 -0.000000 -0.096603
v 0.086602 -0.000000 -0.060000
v 0.100000 -0.000000 -0.010000
v 0.086603 -0.000000 0.040000
v 0.050000 -0.000000 0.076603
v 0.000000 -0.000000 0.090000
v -0.035356 -2.035356 0.076603
v -0.061237 -2.061237 0.040000
v -0.070711 -2.070711 -0.010000
v -0.061237 -2.061238 -0.060000
v -0.035356 -2.035356 -0.096603
v 0.000000 -2.000000 -0.110000
v 0.035355 -1.964645 -0.096603
v 0.061237 -1.938763 -0.060000
v 0.070711 -1.929290 -0.010000
v 0.061237 -1.938763 0.040000
v 0.035355 -1.964645 0.076603
v 0.000000 -2.000000 0.090000
v 1.964645 -2.035356 0.076603
v 1.938763 -2.061237 0.040000
v 1.929289 -2.070711 -0.010000
v 1.938763 -2.061238 -0.060000
v 1.964645 -2.035356 -0.096603
v 2.000000 -2.000000 -0.110000
v 2.035355 -1.964645 -0.096603
v 2.061237 -1.938763 -0.060000
v 2.070711 -1.929290 -0.010000
v 2.061237 -1.938763 0.040000
v 2.035356 -1.964645 0.076603
v 2.000000 -2.000000 0.090000
v 1.953806 -3.980866 0.076603
v 1.919990 -3.966859 0.040000
v 1.907612 -3.961732 -0.010000
v 1.919990 -3.966859 -0.060000
v 1.953806 -3.980866 -0.096603
v 2.000000 -4.000000 -0.110000
v 2.046194 -4.019135 -0.096603
v 2.080010 -4.033142 -0.060000
v 2.092388 -4.038269 -0.010000
v 2.080010 -4.033142 0.040000
v 2.046194 -4.019135 0.076603
v 2.000000 -4.000000 0.090000
v -0.046194 -5.980866 0.076603
v -0.080010 -5.966859 0.040000
v -0.092388 -5.961732 -0.010000
v -0.080010 -5.966859 -0.060000
v -0.046194 -5.980866 -0.096603
v 0.000000 -6.000000 -0.110000
v 0.046194 -6.019135 -0.096603
v 0.080010 -6.033142 -0.060000
v 0.092388 -6.038269 -0.010000
v 0.080010 -6.033142 0.040000
v 0.046194 -6.019135 0.076603
v 0.000000 -6.000000 0.090000
v -0.040562 -8.970765 0.076603
v -0.070256 -8.949363 0.040000
v -0.081124 -8.941529 -0.010000
v -0.070256 -8.949363 -0.060000
v -0.040562 -8.970765 -0.096602
v 0.000000 -9.000000 -0.110000
v 0.040562 -9.029236 -0.096603
v 0.070256 -9.050637 -0.060000
v 0.081124 -9.058472 -0.010000
v 0.070256 -9.050637 0.040000
v 0.040562 -9.029236 0.076603
v 0.000000 -9.000000 0.090000
v -3.040562 -9.970765 0.076603
v -3.070256 -9.949363 0.040000
v -3.081124 -9.941529 -0.010000
v -3.070256 -9.949363 -0.060000
v -3.040562 -9.970765 -0.096602
v -3.000000 -10.000000 -0.110000
v -2.959438 -10.029236 -0.096603
v -2.929744 -10.050637 -0.060000
v -2.918876 -10.058472 -0.010000
v -2.929744 -10.050637 0.040000
v -2.959438 -10.029236 0.076603
v -3.000000 -10.000000 0.090000
v -3.040562 -11.029236 0.076603
v -3.070256 -11.050637 0.040000
v -3.081124 -11.058471 -0.010000
v -3.070256 -11.050637 -0.060000
v -3.040562 -11.029236 -0.096602
v -3.000000 -11.000000 -0.110000
v -2.959438 -10.970765 -0.096603
v -2.929744 -10.949363 -0.060000
v -2.918876 -10.941529 -0.010000
v -2.929744 -10.949363 0.040000
v -2.959438 -10.970765 0.076603
v -3.000000 -11.000000 0.090000
v -0.040562 -12.029236 0.076603
v -0.070256 -12.050637 0.040000
v -0.081124 -12.058471 -0.010000
v -0.070256 -12.050637 -0.060000
v -0.040562 -12.029236 -0.096602
v 0.000000 -12.000000 -0.110000
v 0.040562 -11.970764 -0.096603
v 0.070256 -11.949363 -0.060000
v 0.081124 -11.941529 -0.010000
v 0.070256 -11.949363 0.040000
v 0.040562 -11.970764 0.076603
v 0.000000 -12.000000 0.090000
v -0.050000 -14.000000 0.076603
v -0.086603 -14.000000 0.040000
v -0.100000 -14.000000 -0.010000
v -0.086603 -14.000000 -0.060000
v -0.050000 -14.000000 -0.096602
v 0.000000 -14.000000 -0.110000
v 0.050000 -14.000000 -0.096603
v 0.086602 -14.000000 -0.060000
v 0.100000 -14.000000 -0.010000
v 0.086603 -14.000000 0.040000
v 0.050000 -14.000000 0.076603
v 0.000000 -14.000000 0.090000
vn -0.5014 -0.0027 0.8652
vn -0.8671 -0.0088 0.4981
vn -0.9999 -0.0123 -0.0000
vn -0.8671 -0.0088 -0.4981
vn -0.5014 -0.0027 -0.8652
vn 0.0006 -0.0010 -1.0000
vn 0.5020 -0.0058 -0.8648
vn 0.8668 -0.0124 -0.4985
vn 0.9999 -0.0152 -0.0000
vn 0.8668 -0.0124 0.4985
vn 0.5020 -0.0058 0.8648
vn 0.0006 -0.0010 1.0000
vn -0.4076 -0.4148 0.8135
vn -0.6252 -0.6339 0.4553
vn -0.7026 -0.7116 -0.0000
vn -0.6252 -0.6339 -0.4553
vn -0.4076 -0.4148 -0.8135
vn -0.0886 -0.0909 -0.9919
vn 0.2777 0.2768 -0.9199
vn 0.5888 0.5818 -0.5610
vn 0.7124 0.7018 -0.0000
vn 0.5888 0.5818 0.5610
vn 0.2777 0.2768 0.9199
vn -0.0886 -0.0909 0.9919
vn -0.2777 -0.2771 0.9198
vn -0.5881 -0.5829 0.5607
vn -0.7111 -0.7031 -0.0000
vn -0.5881 -0.5829 -0.5607
vn -0.2777 -0.2771 -0.9198
vn 0.0890 0.0906 -0.9919
vn 0.4087 0.4140 -0.8134
vn 0.6264 0.6328 -0.4551
vn 0.7038 0.7104 -0.0000
vn 0.6264 0.6328 0.4551
vn 0.4087 0.4140 0.8134
vn 0.0890 0.0906 0.9919
vn -0.4146 0.1737 0.8933
vn -0.7822 0.3292 0.5290
vn -0.9215 0.3883 -0.0000
vn -0.7822 0.3292 -0.5289
vn -0.4146 0.1737 -0.8933
vn 0.0594 -0.0244 -0.9979
vn 0.5046 -0.2075 -0.8380
vn 0.8149 -0.3339 -0.4738
vn 0.9255 -0.3788 -0.0000
vn 0.8149 -0.3339 0.4738
vn 0.5046 -0.2075 0.8380
vn 0.0594 -0.0244 0.9979
vn -0.5042 0.2078 0.8382
vn -0.8140 0.3355 0.4742
vn -0.9246 0.3810 -0.0000
vn -0.8140 0.3355 -0.4742
vn -0.5042 0.2078 -0.8382
vn -0.0597 0.0245 -0.9979
vn 0.4146 -0.1720 -0.8936
vn 0.7834 -0.3257 -0.5293
vn 0.9232 -0.3843 -0.0000
vn 0.7834 -0.3257 0.5293
vn 0.4146 -0.1720 0.8936
vn -0.0597 0.0245 0.9979
vn -0.3375 0.2430 0.9094
vn -0.6793 0.4882 0.5479
vn -0.8123 0.5832 -0.0000
vn -0.6793 0.4882 -0.5479
vn -0.3375 0.2430 -0.9094
vn 0.0824 -0.0598 -0.9948
vn 0.4601 -0.3331 -0.8230
vn 0.7185 -0.5198 -0.4621
vn 0.8102 -0.5861 -0.0000
vn 0.7185 -0.5198 0.4621
vn 0.4601 -0.3331 0.8230
vn 0.0824 -0.0598 0.9948
vn -0.4609 0.3322 0.8229
vn -0.7195 0.5186 0.4620
vn -0.8112 0.5847 -0.0000
vn -0.7195 0.5186 -0.4620
vn -0.4609 0.3322 -0.8229
vn -0.0826 0.0596 -0.9948
vn 0.3376 -0.2433 -0.9093
vn 0.6788 -0.4893 -0.5476
vn 0.8112 -0.5847 -0.0000
vn 0.6788 -0.4893 0.5476
vn 0.3376 -0.2433 0.9093
vn -0.0826 0.0596 0.9948
vn -0.4609 -0.3322 0.8229
vn -0.7195 -0.5186 0.4620
vn -0.8112 -0.5847 -0.0000
vn -0.7195 -0.5186 -0.4620
vn -0.4609 -0.3322 -0.8229
vn -0.0826 -0.0596 -0.9948
vn 0.3376 0.2433 -0.9093
vn 0.6788 0.4893 -0.5476
vn 0.8112 0.5847 -0.0000
vn 0.6788 0.4893 0.5476
vn 0.3376 0.2433 0.9093
vn -0.0826 -0.0596 0.9948
vn -0.3374 -0.2426 0.9096
vn -0.6801 -0.4865 0.5484
vn -0.8140 -0.5809 -0.0000
vn -0.6802 -0.4865 -0.5484
vn -0.3374 -0.2426 -0.9095
vn 0.0820 0.0601 -0.9948
vn 0.4589 0.3343 -0.8232
vn 0.7170 0.5217 -0.4623
vn 0.8088 0.5881 -0.0000
vn 0.7170 0.5217 0.4623
vn 0.4589 0.3343 0.8232
vn 0.0820 0.0601 0.9948
vn -0.5013 0.0037 0.8653
vn -0.8665 0.0079 0.4990
vn -1.0000 0.0097 -0.0000
vn -0.8665 0.0079 -0.4990
vn -0.5013 0.0037 -0.8653
vn -0.0004 0.0006 -1.0000
vn 0.5009 0.0017 -0.8655
vn 0.8667 0.0057 -0.4988
vn 1.0000 0.0080 -0.0000
vn 0.8667 0.0057 0.4988
vn 0.5009 0.0017 0.8655
vn -0.0004 0.0006 1.0000
vt 0.289093 0.470510
vt 0.287342 0.437884
vt 0.288565 0.448901
vt 0.289951 0.482102
vt 0.287935 0.452350
vt 0.290910 0.480572
vt 0.289043 0.458714
vt 0.291538 0.442941
vt 0.291712 0.466329
vt 0.292233 0.425031
vt 0.292142 0.443190
vt 0.292269 0.406338
vt 0.292086 0.417355
vt 0.291649 0.391872
vt 0.291557 0.395747
vt 0.290549 0.385509
vt 0.290699 0.384154
vt 0.289260 0.388953
vt 0.289740 0.385684
vt 0.288938 0.399927
vt 0.288508 0.423066
vt 0.288115 0.401282
vt 0.287412 0.419192
vt 0.682124 0.199461
vt 0.683119 0.205824
vt 0.684381 0.202380
vt 0.290366 0.455270
vt 0.685559 0.190051
vt 0.686327 0.172141
vt 0.686478 0.153449
vt 0.685983 0.138983
vt 0.684986 0.132619
vt 0.682608 0.148392
vt 0.681842 0.166302
vt 0.681661 0.184994
vt 0.668629 0.173978
vt 0.669919 0.193886
vt 0.671880 0.204234
vt 0.675730 0.188461
vt 0.676603 0.166567
vt 0.676373 0.142432
vt 0.675086 0.122524
vt 0.673084 0.112176
vt 0.670918 0.114162
vt 0.683755 0.136063
vt 0.669188 0.127949
vt 0.668356 0.149843
vt 0.270421 0.415850
vt 0.274201 0.435759
vt 0.674001 0.202248
vt 0.280062 0.446107
vt 0.291950 0.430334
vt 0.295015 0.408440
vt 0.294837 0.384305
vt 0.291296 0.364396
vt 0.285216 0.354049
vt 0.278310 0.356035
vt 0.272633 0.369821
vt 0.269788 0.391716
vt 0.671482 0.452218
vt 0.963041 0.419598
vt 0.955579 0.443254
vt 0.668651 0.460650
vt 0.961441 0.453601
vt 0.665274 0.457963
vt 0.967888 0.451616
vt 0.973328 0.437829
vt 0.662327 0.444877
vt 0.660652 0.424898
vt 0.660682 0.403380
vt 0.966595 0.361544
vt 0.662340 0.386088
vt 0.972674 0.371891
vt 0.959688 0.363529
vt 0.665138 0.377655
vt 0.671145 0.393428
vt 0.954011 0.377316
vt 0.672853 0.413407
vt 0.951166 0.399210
vt 0.672999 0.434925
vt 0.292231 0.632957
vt 0.290896 0.650249
vt 0.288879 0.658682
vt 0.285082 0.642909
vt 0.284347 0.622930
vt 0.284713 0.601412
vt 0.286056 0.584120
vt 0.288017 0.575687
vt 0.290088 0.578374
vt 0.668339 0.380342
vt 0.291738 0.591460
vt 0.292530 0.611439
vt 0.300142 0.627449
vt 0.298316 0.652616
vt 0.296819 0.649843
vt 0.286742 0.655995
vt 0.295432 0.636843
vt 0.294294 0.595903
vt 0.682610 0.936119
vt 0.299033 0.511865
vt 0.665898 0.435370
vt 0.299533 0.644419
vt 0.664748 0.443567
vt 0.663437 0.440794
vt 0.294509 0.617100
vt 0.662307 0.427794
vt 0.661651 0.408051
vt 0.294859 0.219423
vt 0.661649 0.386855
vt 0.662313 0.369885
vt 0.297601 0.010072
vt 0.663471 0.361688
vt 0.665963 0.377461
vt 0.666609 0.397204
vt 0.389193 0.848638
vt 0.666581 0.418400
vt 0.665357 0.407383
vt 0.664828 0.428992
vt 0.663969 0.440585
vt 0.662207 0.424812
vt 0.661777 0.401673
vt 0.661834 0.375838
vt 0.662363 0.354229
vt 0.663222 0.342637
vt 0.664181 0.344167
vt 0.664811 0.364461
vt 0.664984 0.358409
vt 0.665414 0.381548
vt 0.286510 0.444121
vt 0.663010 0.439054
s 1
usemtl Material.001
f 1/1/1 24/2/24 12/3/12
f 2/4/2 13/5/13 1/1/1
f 3/6/3 14/7/14 2/4/2
f 16/8/16 3/6/3 4/9/4
f 17/10/17 4/9/4 5/11/5
f 18/12/18 5/11/5 6/13/6
f 19/14/19 6/13/6 7/15/7
f 20/16/20 7/15/7 8/17/8
f 21/18/21 8/17/8 9/19/9
f 10/20/10 21/18/21 9/19/9
f 11/21/11 22/22/22 10/20/10
f 12/3/12 23/23/23 11/21/11
f 25/24/25 24/2/24 13/5/13
f 26/25/26 13/5/13 14/7/14
f 27/26/27 14/7/14 15/27/15
f 16/8/16 27/26/27 15/27/15
f 17/10/17 28/28/28 16/8/16
f 18/12/18 29/29/29 17/10/17
f 19/14/19 30/30/30 18/12/18
f 20/16/20 31/31/31 19/14/19
f 21/18/21 32/32/32 20/16/20
f 34/33/34 21/18/21 22/22/22
f 35/34/35 22/22/22 23/23/23
f 36/35/36 23/23/23 24/2/24
f 25/24/25 48/36/48 36/35/36
f 26/25/26 37/37/37 25/24/25
f 27/26/27 38/38/38 26/25/26
f 40/39/40 27/26/27 28/28/28
f 41/40/41 28/28/28 29/29/29
f 42/41/42 29/29/29 30/30/30
f 43/42/43 30/30/30 31/31/31
f 44/43/44 31/31/31 32/32/32
f 45/44/45 32/32/32 33/45/33
f 34/33/34 45/44/45 33/45/33
f 35/34/35 46/46/46 34/33/34
f 36/35/36 47/47/47 35/34/35
f 37/37/37 60/48/60 48/36/48
f 38/38/38 49/49/49 37/37/37
f 39/50/39 50/51/50 38/38/38
f 52/52/52 39/50/39 40/39/40
f 53/53/53 40/39/40 41/40/41
f 54/54/54 41/40/41 42/41/42
f 55/55/55 42/41/42 43/42/43
f 56/56/56 43/42/43 44/43/44
f 57/57/57 44/43/44 45/44/45
f 46/46/46 57/57/57 45/44/45
f 47/47/47 58/58/58 46/46/46
f 48/36/48 59/59/59 47/47/47
f 61/60/61 60/61/60 49/62/49
f 62/63/62 49/62/49 50/64/50
f 63/65/63 50/64/50 51/66/51
f 52/67/52 63/65/63 51/66/51
f 53/53/53 64/68/64 52/52/52
f 54/54/54 65/69/65 53/53/53
f 55/55/55 66/70/66 54/54/54
f 56/71/56 67/72/67 55/73/55
f 57/74/57 68/75/68 56/71/56
f 70/76/70 57/74/57 58/77/58
f 71/78/71 58/77/58 59/79/59
f 72/80/72 59/79/59 60/61/60
f 61/60/61 84/81/84 72/80/72
f 62/63/62 73/82/73 61/60/61
f 63/65/63 74/83/74 62/63/62
f 76/84/76 63/65/63 64/68/64
f 77/85/77 64/68/64 65/69/65
f 78/86/78 65/69/65 66/70/66
f 79/87/79 66/70/66 67/72/67
f 80/88/80 67/72/67 68/75/68
f 81/89/81 68/75/68 69/90/69
f 70/76/70 81/89/81 69/90/69
f 71/78/71 82/91/82 70/76/70
f 72/80/72 83/92/83 71/78/71
f 73/82/73 96/93/96 84/81/84
f 86/94/86 73/82/73 74/83/74
f 87/95/87 74/83/74 75/96/75
f 88/97/88 75/96/75 76/84/76
f 77/85/77 88/97/88 76/84/76
f 90/98/90 77/85/77 78/86/78
f 79/87/79 90/98/90 78/86/78
f 92/99/92 79/87/79 80/88/80
f 81/89/81 92/99/92 80/88/80
f 94/100/94 81/89/81 82/91/82
f 83/92/83 94/100/94 82/91/82
f 96/93/96 83/92/83 84/81/84
f 97/101/97 96/93/96 85/102/85
f 98/103/98 85/102/85 86/94/86
f 99/104/99 86/94/86 87/95/87
f 88/97/88 99/104/99 87/95/87
f 89/105/89 100/106/100 88/97/88
f 90/98/90 101/107/101 89/105/89
f 91/108/91 102/109/102 90/98/90
f 92/99/92 103/110/103 91/108/91
f 93/111/93 104/112/104 92/99/92
f 106/113/106 93/111/93 94/100/94
f 107/114/107 94/100/94 95/115/95
f 108/116/108 95/115/95 96/93/96
f 97/101/97 120/117/120 108/116/108
f 98/103/98 109/118/109 97/101/97
f 99/104/99 110/119/110 98/103/98
f 112/120/112 99/104/99 100/106/100
f 113/121/113 100/106/100 101/107/101
f 114/122/114 101/107/101 102/109/102
f 115/123/115 102/109/102 103/110/103
f 116/124/116 103/110/103 104/112/104
f 117/125/117 104/112/104 105/126/105
f 106/113/106 117/125/117 105/126/105
f 107/114/107 118/127/118 106/113/106
f 108/116/108 119/128/119 107/114/107
f 1/1/1 13/5/13 24/2/24
f 2/4/2 14/7/14 13/5/13
f 3/6/3 15/27/15 14/7/14
f 16/8/16 15/27/15 3/6/3
f 17/10/17 16/8/16 4/9/4
f 18/12/18 17/10/17 5/11/5
f 19/14/19 18/12/18 6/13/6
f 20/16/20 19/14/19 7/15/7
f 21/18/21 20/16/20 8/17/8
f 10/20/10 22/22/22 21/18/21
f 11/21/11 23/23/23 22/22/22
f 12/3/12 24/2/24 23/23/23
f 25/24/25 36/35/36 24/2/24
f 26/25/26 25/24/25 13/5/13
f 27/26/27 26/25/26 14/7/14
f 16/8/16 28/28/28 27/26/27
f 17/10/17 29/29/29 28/28/28
f 18/12/18 30/30/30 29/29/29
f 19/14/19 31/31/31 30/30/30
f 20/16/20 32/32/32 31/31/31
f 21/18/21 33/45/33 32/32/32
f 34/33/34 33/45/33 21/18/21
f 35/34/35 34/33/34 22/22/22
f 36/35/36 35/34/35 23/23/23
f 25/24/25 37/37/37 48/36/48
f 26/25/26 38/38/38 37/37/37
f 27/26/27 39/50/39 38/38/38
f 40/39/40 39/50/39 27/26/27
f 41/40/41 40/39/40 28/28/28
f 42/41/42 41/40/41 29/29/29
f 43/42/43 42/41/42 30/30/30
f 44/43/44 43/42/43 31/31/31
f 45/44/45 44/43/44 32/32/32
f 34/33/34 46/46/46 45/44/45
f 35/34/35 47/47/47 46/46/46
f 36/35/36 48/36/48 47/47/47
f 37/37/37 49/49/49 60/48/60
f 38/38/38 50/51/50 49/49/49
f 39/50/39 51/129/51 50/51/50
f 52/52/52 51/129/51 39/50/39
f 53/53/53 52/52/52 40/39/40
f 54/54/54 53/53/53 41/40/41
f 55/55/55 54/54/54 42/41/42
f 56/56/56 55/55/55 43/42/43
f 57/57/57 56/56/56 44/43/44
f 46/46/46 58/58/58 57/57/57
f 47/47/47 59/59/59 58/58/58
f 48/36/48 60/48/60 59/59/59
f 61/60/61 72/80/72 60/61/60
f 62/63/62 61/60/61 49/62/49
f 63/65/63 62/63/62 50/64/50
f 52/67/52 64/68/64 63/65/63
f 53/53/53 65/69/65 64/68/64
f 54/54/54 66/70/66 65/69/65
f 55/55/55 67/72/67 66/70/66
f 56/71/56 68/75/68 67/72/67
f 57/74/57 69/90/69 68/75/68
f 70/76/70 69/90/69 57/74/57
f 71/78/71 70/76/70 58/77/58
f 72/80/72 71/78/71 59/79/59
f 61/60/61 73/82/73 84/81/84
f 62/63/62 74/83/74 73/82/73
f 63/65/63 75/96/75 74/83/74
f 76/84/76 75/96/75 63/65/63
f 77/85/77 76/84/76 64/68/64
f 78/86/78 77/85/77 65/69/65
f 79/87/79 78/86/78 66/70/66
f 80/88/80 79/87/79 67/72/67
f 81/89/81 80/88/80 68/75/68
f 70/76/70 82/91/82 81/89/81
f 71/78/71 83/92/83 82/91/82
f 72/80/72 84/81/84 83/92/83
f 73/82/73 85/102/85 96/93/96
f 86/94/86 85/102/85 73/82/73
f 87/95/87 86/94/86 74/83/74
f 88/97/88 87/95/87 75/96/75
f 77/85/77 89/105/89 88/97/88
f 90/98/90 89/105/89 77/85/77
f 79/87/79 91/108/91 90/98/90
f 92/99/92 91/108/91 79/87/79
f 81/89/81 93/111/93 92/99/92
f 94/100/94 93/111/93 81/89/81
f 83/92/83 95/115/95 94/100/94
f 96/93/96 95/115/95 83/92/83
f 97/101/97 108/116/108 96/93/96
f 98/103/98 97/101/97 85/102/85
f 99/104/99 98/103/98 86/94/86
f 88/97/88 100/106/100 99/104/99
f 89/105/89 101/107/101 100/106/100
f 90/98/90 102/109/102 101/107/101
f 91/108/91 103/110/103 102/109/102
f 92/99/92 104/112/104 103/110/103
f 93/111/93 105/126/105 104/112/104
f 106/113/106 105/126/105 93/111/93
f 107/114/107 106/113/106 94/100/94
f 108/116/108 107/114/107 95/115/95
f 97/101/97 109/118/109 120/117/120
f 98/103/98 110/119/110 109/118/109
f 99/104/99 111/130/111 110/119/110
f 112/120/112 111/130/111 99/104/99
f 113/121/113 112/120/112 100/106/100
f 114/122/114 113/121/113 101/107/101
f 115/123/115 114/122/114 102/109/102
f 116/124/116 115/123/115 103/110/103
f 117/125/117 116/124/116 104/112/104
f 106/113/106 118/127/118 117/125/117
f 107/114/107 119/128/119 118/127/118
f 108/116/108 120/117/120 119/128/119
