# Blender 4.3.2
# www.blender.org
o Pool
v 4.000000 -0.250001 -7.000000
v 4.000000 -4.250000 -7.000000
v 4.000000 -0.249999 7.000000
v 4.000000 -4.250000 7.000000
v -4.000000 -0.250001 -7.000000
v -4.000000 -4.250000 -7.000000
v -4.000000 -0.249999 7.000000
v -4.000000 -4.250000 7.000000
v 4.000000 -0.249999 7.000000
v -4.000000 -0.249999 7.000000
v 4.000000 -0.250001 -7.000000
v -4.000000 -0.250001 -7.000000
v 4.000000 -0.249999 7.000000
v -4.000000 -0.249999 7.000000
v 4.000000 -0.250001 -7.000000
v -4.000000 -0.250001 -7.000000
v 4.000000 -0.249999 7.000000
v -4.000000 -0.249999 7.000000
v 4.000000 -0.250001 -7.000000
v -4.000000 -0.250001 -7.000000
v 4.000000 -0.249999 7.000000
v -4.000000 -0.249999 7.000000
v 4.000000 -0.250001 -7.000000
v -4.000000 -0.250001 -7.000000
v 4.000000 -0.249999 7.000000
v -4.000000 -0.249999 7.000000
v 4.000000 -0.250001 -7.000000
v -4.000000 -0.250001 -7.000000
v 4.000000 -0.249999 7.000000
v -4.000000 -0.249999 7.000000
v 4.000000 -0.250001 -7.000000
v -4.000000 -0.250001 -7.000000
v 4.000000 -4.199281 7.000000
v -4.000000 -4.199281 7.000000
v 4.000000 -4.199282 -7.000000
v -4.000000 -4.199282 -7.000000
v 4.000000 -0.054788 -7.000000
v 4.000000 -0.054788 -7.000000
vn -0.0000 -0.0000 1.0000
vn -1.0000 -0.0000 -0.0000
vn -0.0000 -1.0000 -0.0000
vn 1.0000 -0.0000 -0.0000
vn -0.0000 -0.0000 -1.0000
vn -1.0000 -0.0001 -0.0000
vn -0.0000 -0.0000 -0.0000
vn 1.0000 0.0001 -0.0000
vn -0.0000 1.0000 -0.0000
vt 0.875000 0.500000
vt 0.625000 0.500000
vt 0.625000 0.750000
vt 0.375000 1.000000
vt 0.375000 0.750000
vt 0.625000 0.000000
vt 0.375000 0.250000
vt 0.375000 0.000000
vt 0.375000 0.500000
vt 0.125000 0.750000
vt 0.125000 0.500000
vt 0.625000 0.250000
vt 0.875000 0.750000
vt 0.625000 1.000000
s 1
f 5/1/1 35/2/1 1/2/1
f 9/3/1 8/4/1 4/5/1
f 10/6/2 6/7/2 8/8/2
f 2/9/3 8/10/3 6/11/3
f 11/2/4 4/5/4 2/9/4
f 12/12/5 2/9/5 6/7/5
s 0
f 13/3/2 10/13/6 9/3/1
f 15/2/7 9/3/7 11/2/7
f 14/13/7 12/1/7 10/13/7
f 16/1/2 11/2/8 12/1/1
f 17/3/2 14/13/6 13/3/1
f 19/2/7 13/3/7 15/2/7
f 18/13/7 16/1/7 14/13/7
f 20/1/2 15/2/8 16/1/1
f 21/3/2 18/13/6 17/3/1
f 23/2/7 17/3/7 19/2/7
f 22/13/7 20/1/7 18/13/7
f 24/1/2 19/2/8 20/1/1
f 25/3/2 22/13/6 21/3/1
f 27/2/7 21/3/7 23/2/7
f 26/13/7 24/1/7 22/13/7
f 28/1/2 23/2/8 24/1/1
f 29/3/2 26/13/6 25/3/1
f 31/2/7 25/3/7 27/2/7
f 30/13/7 28/1/7 26/13/7
f 32/1/2 27/2/8 28/1/1
f 3/3/2 30/13/6 29/3/1
f 1/2/7 29/3/7 31/2/7
f 7/13/7 32/1/7 30/13/7
f 5/1/2 31/2/8 32/1/1
s 1
f 36/1/9 33/3/9 35/2/9
f 1/2/2 33/3/2 3/3/2
f 7/13/4 36/1/4 5/1/4
f 3/3/5 34/13/5 7/13/5
f 5/1/1 36/1/1 35/2/1
f 9/3/1 10/14/1 8/4/1
f 10/6/2 12/12/2 6/7/2
f 2/9/3 4/5/3 8/10/3
f 11/2/4 9/3/4 4/5/4
f 12/12/5 11/2/5 2/9/5
s 0
f 13/3/8 14/13/1 10/13/2
f 15/2/7 13/3/7 9/3/7
f 14/13/7 16/1/7 12/1/7
f 16/1/6 15/2/1 11/2/2
f 17/3/8 18/13/1 14/13/2
f 19/2/7 17/3/7 13/3/7
f 18/13/7 20/1/7 16/1/7
f 20/1/6 19/2/1 15/2/2
f 21/3/8 22/13/1 18/13/2
f 23/2/7 21/3/7 17/3/7
f 22/13/7 24/1/7 20/1/7
f 24/1/6 23/2/1 19/2/2
f 25/3/8 26/13/1 22/13/2
f 27/2/7 25/3/7 21/3/7
f 26/13/7 28/1/7 24/1/7
f 28/1/6 27/2/1 23/2/2
f 29/3/8 30/13/1 26/13/2
f 31/2/7 29/3/7 25/3/7
f 30/13/7 32/1/7 28/1/7
f 32/1/6 31/2/1 27/2/2
f 3/3/8 7/13/1 30/13/2
f 1/2/7 3/3/7 29/3/7
f 7/13/7 5/1/7 32/1/7
f 5/1/6 1/2/1 31/2/2
s 1
f 36/1/9 34/13/9 33/3/9
f 1/2/2 35/2/2 33/3/2
f 7/13/4 34/13/4 36/1/4
f 3/3/5 33/3/5 34/13/5
s 0
f 31/2/1 37/2/1 38/2/9
f 31/2/1 1/2/3 37/2/1
o Cube
v -13.789570 -0.422349 15.475380
v -13.789570 16.240898 15.475380
v -13.789570 -0.422349 -14.716711
v -13.789570 16.240898 -14.716711
v -13.009369 -0.422349 15.475380
v -13.009369 16.240898 15.475380
v -13.009369 -0.422349 -14.716711
v -13.009369 16.240898 -14.716711
vn -1.0000 -0.0000 -0.0000
vn -0.0000 -0.0000 -1.0000
vn 1.0000 -0.0000 -0.0000
vn -0.0000 -0.0000 1.0000
vn -0.0000 -1.0000 -0.0000
vn -0.0000 1.0000 -0.0000
vt 0.625000 0.000000
vt 0.375000 0.250000
vt 0.375000 0.000000
vt 0.625000 0.250000
vt 0.375000 0.500000
vt 0.625000 0.500000
vt 0.375000 0.750000
vt 0.625000 0.750000
vt 0.375000 1.000000
vt 0.125000 0.750000
vt 0.125000 0.500000
vt 0.875000 0.500000
vt 0.625000 1.000000
vt 0.875000 0.750000
s 0
f 40/15/10 41/16/10 39/17/10
f 42/18/11 45/19/11 41/16/11
f 46/20/12 43/21/12 45/19/12
f 44/22/13 39/23/13 43/21/13
f 45/19/14 39/24/14 41/25/14
f 42/26/15 44/22/15 46/20/15
f 40/15/10 42/18/10 41/16/10
f 42/18/11 46/20/11 45/19/11
f 46/20/12 44/22/12 43/21/12
f 44/22/13 40/27/13 39/23/13
f 45/19/14 43/21/14 39/24/14
f 42/26/15 40/28/15 44/22/15
o Cube.001
v 15.839468 -0.422349 15.475380
v 15.839468 16.240898 15.475380
v 15.839468 -0.422349 -14.716711
v 15.839468 16.240898 -14.716711
v 16.619669 -0.422349 15.475380
v 16.619669 16.240898 15.475380
v 16.619669 -0.422349 -14.716711
v 16.619669 16.240898 -14.716711
vn -1.0000 -0.0000 -0.0000
vn -0.0000 -0.0000 -1.0000
vn 1.0000 -0.0000 -0.0000
vn -0.0000 -0.0000 1.0000
vn -0.0000 -1.0000 -0.0000
vn -0.0000 1.0000 -0.0000
vt 0.625000 0.000000
vt 0.375000 0.250000
vt 0.375000 0.000000
vt 0.625000 0.250000
vt 0.375000 0.500000
vt 0.625000 0.500000
vt 0.375000 0.750000
vt 0.625000 0.750000
vt 0.375000 1.000000
vt 0.125000 0.750000
vt 0.125000 0.500000
vt 0.875000 0.500000
vt 0.625000 1.000000
vt 0.875000 0.750000
s 0
f 48/29/16 49/30/16 47/31/16
f 50/32/17 53/33/17 49/30/17
f 54/34/18 51/35/18 53/33/18
f 52/36/19 47/37/19 51/35/19
f 53/33/20 47/38/20 49/39/20
f 50/40/21 52/36/21 54/34/21
f 48/29/16 50/32/16 49/30/16
f 50/32/17 54/34/17 53/33/17
f 54/34/18 52/36/18 51/35/18
f 52/36/19 48/41/19 47/37/19
f 53/33/20 51/35/20 47/38/20
f 50/40/21 48/42/21 52/36/21
o Cube.002
v 16.494877 -0.422349 15.419628
v 16.494877 16.240898 15.419628
v -13.697214 -0.422349 15.419630
v -13.697214 16.240898 15.419630
v 16.494877 -0.422349 14.639427
v 16.494877 16.240898 14.639427
v -13.697214 -0.422349 14.639429
v -13.697214 16.240898 14.639429
vn -0.0000 -0.0000 1.0000
vn -1.0000 -0.0000 -0.0000
vn -0.0000 -0.0000 -1.0000
vn 1.0000 -0.0000 -0.0000
vn -0.0000 -1.0000 -0.0000
vn -0.0000 1.0000 -0.0000
vt 0.625000 0.000000
vt 0.375000 0.250000
vt 0.375000 0.000000
vt 0.625000 0.250000
vt 0.375000 0.500000
vt 0.625000 0.500000
vt 0.375000 0.750000
vt 0.625000 0.750000
vt 0.375000 1.000000
vt 0.125000 0.750000
vt 0.125000 0.500000
vt 0.875000 0.500000
vt 0.625000 1.000000
vt 0.875000 0.750000
s 0
f 56/43/22 57/44/22 55/45/22
f 58/46/23 61/47/23 57/44/23
f 62/48/24 59/49/24 61/47/24
f 60/50/25 55/51/25 59/49/25
f 61/47/26 55/52/26 57/53/26
f 58/54/27 60/50/27 62/48/27
f 56/43/22 58/46/22 57/44/22
f 58/46/23 62/48/23 61/47/23
f 62/48/24 60/50/24 59/49/24
f 60/50/25 56/55/25 55/51/25
f 61/47/26 59/49/26 55/52/26
f 58/54/27 56/56/27 60/50/27
o Cube.003
v 16.494877 -0.422349 -13.741354
v 16.494877 16.240898 -13.741354
v -13.697214 -0.422349 -13.741352
v -13.697214 16.240898 -13.741352
v 16.494877 -0.422349 -14.521555
v 16.494877 16.240898 -14.521555
v -13.697214 -0.422349 -14.521553
v -13.697214 16.240898 -14.521553
vn -0.0000 -0.0000 1.0000
vn -1.0000 -0.0000 -0.0000
vn -0.0000 -0.0000 -1.0000
vn 1.0000 -0.0000 -0.0000
vn -0.0000 -1.0000 -0.0000
vn -0.0000 1.0000 -0.0000
vt 0.625000 0.000000
vt 0.375000 0.250000
vt 0.375000 0.000000
vt 0.625000 0.250000
vt 0.375000 0.500000
vt 0.625000 0.500000
vt 0.375000 0.750000
vt 0.625000 0.750000
vt 0.375000 1.000000
vt 0.125000 0.750000
vt 0.125000 0.500000
vt 0.875000 0.500000
vt 0.625000 1.000000
vt 0.875000 0.750000
s 0
f 64/57/28 65/58/28 63/59/28
f 66/60/29 69/61/29 65/58/29
f 70/62/30 67/63/30 69/61/30
f 68/64/31 63/65/31 67/63/31
f 69/61/32 63/66/32 65/67/32
f 66/68/33 68/64/33 70/62/33
f 64/57/28 66/60/28 65/58/28
f 66/60/29 70/62/29 69/61/29
f 70/62/30 68/64/30 67/63/30
f 68/64/31 64/69/31 63/65/31
f 69/61/32 67/63/32 63/66/32
f 66/68/33 64/70/33 68/64/33
o Cube.004
v -13.652243 16.181875 15.475380
v 16.715475 16.181875 15.475380
v -13.652243 16.181875 -14.716711
v 16.715475 16.181875 -14.716711
v -13.652243 15.401675 15.475380
v 16.715475 15.401673 15.475380
v -13.652243 15.401675 -14.716711
v 16.715475 15.401673 -14.716711
v 16.715475 15.401673 -14.716711
v -13.652243 15.401675 -14.716711
v -13.652243 15.401675 15.475380
v 16.715475 15.401673 15.475380
vn -0.0000 1.0000 -0.0000
vn -0.0000 -0.0000 -1.0000
vn 1.0000 -0.0000 -0.0000
vn -0.0000 -0.0000 1.0000
vn -1.0000 -0.0000 -0.0000
vn -0.0000 -1.0000 -0.0000
vt 0.625000 0.000000
vt 0.375000 0.250000
vt 0.375000 0.000000
vt 0.625000 0.250000
vt 0.375000 0.500000
vt 0.625000 0.750000
vt 0.375000 0.750000
vt 0.375000 1.000000
vt 0.125000 0.750000
vt 0.125000 0.500000
vt 0.875000 0.500000
vt 0.625000 0.500000
vt 0.625000 1.000000
vt 0.875000 0.750000
s 0
f 72/71/34 73/72/34 71/73/34
f 74/74/35 77/75/35 73/72/35
f 76/76/36 81/77/36 82/76/36
f 76/76/37 71/78/37 75/77/37
f 77/75/38 71/79/38 73/80/38
f 74/81/36 76/76/36 78/82/36
f 79/82/39 81/77/39 80/75/39
f 75/77/36 80/75/36 81/77/36
f 78/82/36 82/76/36 79/82/36
f 77/75/36 79/82/36 80/75/36
f 72/71/34 74/74/34 73/72/34
f 74/74/35 78/82/35 77/75/35
f 76/76/36 75/77/36 81/77/36
f 76/76/37 72/83/37 71/78/37
f 77/75/38 75/77/38 71/79/38
f 74/81/36 72/84/36 76/76/36
f 79/82/39 82/76/39 81/77/39
f 75/77/36 77/75/36 80/75/36
f 78/82/36 76/76/36 82/76/36
f 77/75/36 78/82/36 79/82/36
o Cube.005
v -12.408307 -0.018581 15.475380
v -3.997762 -0.018581 15.475380
v -12.408307 -0.018581 -14.716711
v -3.997762 -0.018581 -14.716711
v -12.408307 -0.798782 15.475380
v -3.997762 -0.798782 15.475380
v -12.408307 -0.798782 -14.716711
v -3.997762 -0.798782 -14.716711
v -3.997762 -0.798782 -14.716711
v -12.408307 -0.798782 -14.716711
v -12.408307 -0.798782 15.475380
v -3.997762 -0.798782 15.475380
v -13.784865 -0.018581 -14.716711
v -13.784865 -0.018581 15.475380
v -13.784865 -0.798782 -14.716711
v -13.784865 -0.798782 15.475380
v -3.997762 -4.188313 -14.716711
v -12.408307 -4.188312 -14.716711
v -12.408307 -4.188312 15.475380
v -3.997762 -4.188313 15.475380
vn -0.0000 1.0000 -0.0000
vn -0.0000 -0.0000 -1.0000
vn 1.0000 -0.0000 -0.0000
vn -0.0000 -0.0000 1.0000
vn -1.0000 -0.0000 -0.0000
vn -0.0000 -1.0000 -0.0000
vt 0.625000 0.000000
vt 0.375000 0.250000
vt 0.375000 0.000000
vt 0.625000 0.250000
vt 0.375000 0.500000
vt 0.625000 0.750000
vt 0.375000 0.750000
vt 0.375000 1.000000
vt 0.875000 0.500000
vt 0.625000 0.500000
vt 0.125000 0.750000
vt 0.125000 0.500000
vt 0.625000 1.000000
vt 0.875000 0.750000
s 0
f 84/85/40 85/86/40 83/87/40
f 86/88/41 89/89/41 85/86/41
f 88/90/42 93/91/42 94/90/42
f 88/90/43 83/92/43 87/91/43
f 89/89/41 95/86/41 85/86/41
f 86/93/42 88/90/42 90/94/42
f 94/90/42 99/94/42 91/94/42
f 87/91/42 92/89/42 93/91/42
f 90/94/42 94/90/42 91/94/42
f 89/89/42 91/94/42 92/89/42
f 97/89/44 96/95/44 95/96/44
f 85/86/40 96/87/40 83/87/40
f 87/91/45 97/89/45 89/89/45
f 83/92/43 98/91/43 87/91/43
f 99/94/45 101/91/45 100/89/45
f 91/94/41 100/89/41 92/89/41
f 93/91/43 102/90/43 94/90/43
f 92/89/44 101/91/44 93/91/44
f 84/85/40 86/88/40 85/86/40
f 86/88/41 90/94/41 89/89/41
f 88/90/42 87/91/42 93/91/42
f 88/90/43 84/97/43 83/92/43
f 89/89/41 97/89/41 95/86/41
f 86/93/42 84/98/42 88/90/42
f 94/90/42 102/90/42 99/94/42
f 87/91/42 89/89/42 92/89/42
f 90/94/42 88/90/42 94/90/42
f 89/89/42 90/94/42 91/94/42
f 97/89/44 98/91/44 96/95/44
f 85/86/40 95/86/40 96/87/40
f 87/91/45 98/91/45 97/89/45
f 83/92/43 96/92/43 98/91/43
f 99/94/45 102/90/45 101/91/45
f 91/94/41 99/94/41 100/89/41
f 93/91/43 101/91/43 102/90/43
f 92/89/44 100/89/44 101/91/44
o Cube.006
v 3.993211 -0.018581 15.475380
v 12.403756 -0.018581 15.475380
v 3.993211 -0.018581 -14.716711
v 12.403756 -0.018581 -14.716711
v 3.993211 -0.798782 15.475380
v 12.403756 -0.798782 15.475380
v 3.993211 -0.798782 -14.716711
v 12.403756 -0.798782 -14.716711
v 12.403756 -0.798782 -14.716711
v 3.993211 -0.798782 -14.716711
v 3.993211 -0.798782 15.475380
v 12.403756 -0.798782 15.475380
v 16.618896 -0.018582 15.475380
v 16.618896 -0.018582 -14.716711
v 16.618896 -0.798782 -14.716711
v 16.618896 -0.798782 15.475380
v 12.403756 -4.275883 -14.716711
v 3.993211 -4.275882 -14.716711
v 3.993211 -4.275882 15.475380
v 12.403756 -4.275883 15.475380
vn -0.0000 1.0000 -0.0000
vn -0.0000 -0.0000 -1.0000
vn 1.0000 -0.0000 -0.0000
vn -0.0000 -0.0000 1.0000
vn -1.0000 -0.0000 -0.0000
vn -0.0000 -1.0000 -0.0000
vt 0.625000 0.000000
vt 0.375000 0.250000
vt 0.375000 0.000000
vt 0.625000 0.250000
vt 0.375000 0.500000
vt 0.625000 0.750000
vt 0.375000 0.750000
vt 0.375000 1.000000
vt 0.125000 0.750000
vt 0.125000 0.500000
vt 0.625000 0.500000
vt 0.875000 0.500000
vt 0.625000 1.000000
vt 0.875000 0.750000
s 0
f 104/99/46 105/100/46 103/101/46
f 106/102/47 109/103/47 105/100/47
f 108/104/48 113/105/48 114/104/48
f 108/104/49 103/106/49 107/105/49
f 109/103/50 103/107/50 105/108/50
f 110/109/51 118/104/51 108/104/51
f 111/109/47 120/103/47 112/103/47
f 107/105/48 112/103/48 113/105/48
f 110/109/48 114/104/48 111/109/48
f 109/103/48 111/109/48 112/103/48
f 116/110/48 118/104/48 117/109/48
f 104/99/46 116/102/46 106/102/46
f 108/104/49 115/111/49 104/111/49
f 106/102/47 117/109/47 110/109/47
f 119/109/51 121/105/51 120/103/51
f 113/105/49 122/104/49 114/104/49
f 112/103/50 121/105/50 113/105/50
f 114/104/48 119/109/48 111/109/48
f 104/99/46 106/102/46 105/100/46
f 106/102/47 110/109/47 109/103/47
f 108/104/48 107/105/48 113/105/48
f 108/104/49 104/111/49 103/106/49
f 109/103/50 107/105/50 103/107/50
f 110/109/51 117/109/51 118/104/51
f 111/109/47 119/109/47 120/103/47
f 107/105/48 109/103/48 112/103/48
f 110/109/48 108/104/48 114/104/48
f 109/103/48 110/109/48 111/109/48
f 116/110/48 115/112/48 118/104/48
f 104/99/46 115/99/46 116/102/46
f 108/104/49 118/104/49 115/111/49
f 106/102/47 116/102/47 117/109/47
f 119/109/51 122/104/51 121/105/51
f 113/105/49 121/105/49 122/104/49
f 112/103/50 120/103/50 121/105/50
f 114/104/48 122/104/48 119/109/48
o Cube.007
v -4.007948 -0.018581 -6.988155
v 4.033795 -0.018581 -6.988155
v -4.007948 -0.018581 -14.827555
v 4.033795 -0.018581 -14.827555
v -4.007948 -0.798782 -6.988155
v 4.033795 -0.798782 -6.988155
v -4.007948 -0.798782 -14.827555
v 4.033795 -0.798782 -14.827555
v 4.033795 -0.798782 -14.827555
v -4.007948 -0.798782 -14.827555
v -4.007948 -0.798782 -6.988155
v 4.033795 -0.798782 -6.988155
v 4.033795 -4.243544 -14.827555
v -4.007948 -4.243544 -14.827555
v -4.007948 -4.243544 -6.988155
v 4.033795 -4.243544 -6.988155
vn -0.0000 1.0000 -0.0000
vn -0.0000 -0.0000 -1.0000
vn 1.0000 -0.0000 -0.0000
vn -0.0000 -0.0000 1.0000
vn -1.0000 -0.0000 -0.0000
vn -0.0000 -1.0000 -0.0000
vt 0.625000 0.000000
vt 0.375000 0.250000
vt 0.375000 0.000000
vt 0.625000 0.250000
vt 0.375000 0.500000
vt 0.625000 0.750000
vt 0.375000 0.750000
vt 0.375000 1.000000
vt 0.125000 0.750000
vt 0.125000 0.500000
vt 0.875000 0.500000
vt 0.625000 0.500000
vt 0.625000 1.000000
vt 0.875000 0.750000
s 0
f 124/113/52 125/114/52 123/115/52
f 126/116/53 129/117/53 125/114/53
f 128/118/54 133/119/54 134/118/54
f 128/118/55 123/120/55 127/119/55
f 129/117/56 123/121/56 125/122/56
f 126/123/54 128/118/54 130/124/54
f 133/119/55 138/118/55 134/118/55
f 127/119/54 132/117/54 133/119/54
f 130/124/54 134/118/54 131/124/54
f 129/117/54 131/124/54 132/117/54
f 135/124/57 137/119/57 136/117/57
f 132/117/56 137/119/56 133/119/56
f 134/118/54 135/124/54 131/124/54
f 131/124/53 136/117/53 132/117/53
f 124/113/52 126/116/52 125/114/52
f 126/116/53 130/124/53 129/117/53
f 128/118/54 127/119/54 133/119/54
f 128/118/55 124/125/55 123/120/55
f 129/117/56 127/119/56 123/121/56
f 126/123/54 124/126/54 128/118/54
f 133/119/55 137/119/55 138/118/55
f 127/119/54 129/117/54 132/117/54
f 130/124/54 128/118/54 134/118/54
f 129/117/54 130/124/54 131/124/54
f 135/124/57 138/118/57 137/119/57
f 132/117/56 136/117/56 137/119/56
f 134/118/54 138/118/54 135/124/54
f 131/124/53 135/124/53 136/117/53
o Cube.008
v -4.007948 -0.018581 14.838417
v 4.033795 -0.018581 14.838417
v -4.007948 -0.018581 6.999018
v 4.033795 -0.018581 6.999018
v -4.007948 -0.798782 14.838417
v 4.033795 -0.798782 14.838417
v -4.007948 -0.798782 6.999018
v 4.033795 -0.798782 6.999018
v 4.033795 -0.798782 6.999018
v -4.007948 -0.798782 6.999018
v -4.007948 -0.798782 14.838417
v 4.033795 -0.798782 14.838417
v -4.007948 -0.018581 15.465775
v 4.033795 -0.018581 15.465775
v 4.033795 -0.798782 15.465775
v -4.007948 -0.798782 15.465775
v 4.033795 -4.211186 6.999018
v -4.007948 -4.211185 6.999018
v -4.007948 -4.211185 14.838417
v 4.033795 -4.211186 14.838417
vn -0.0000 1.0000 -0.0000
vn -0.0000 -0.0000 -1.0000
vn 1.0000 -0.0000 -0.0000
vn -1.0000 -0.0000 -0.0000
vn -0.0000 -0.0000 1.0000
vn -0.0000 -1.0000 -0.0000
vt 0.625000 0.000000
vt 0.375000 0.250000
vt 0.375000 0.000000
vt 0.625000 0.250000
vt 0.375000 0.500000
vt 0.625000 0.750000
vt 0.375000 0.750000
vt 0.125000 0.750000
vt 0.125000 0.500000
vt 0.875000 0.500000
vt 0.625000 0.500000
vt 0.375000 1.000000
vt 0.875000 0.750000
vt 0.625000 1.000000
s 0
f 140/127/58 141/128/58 139/129/58
f 142/130/59 145/131/59 141/128/59
f 144/132/60 149/133/60 150/132/60
f 143/133/61 151/134/61 139/134/61
f 145/131/61 139/134/61 141/135/61
f 142/136/60 144/132/60 146/137/60
f 150/132/60 155/137/60 147/137/60
f 143/133/60 148/131/60 149/133/60
f 146/137/60 150/132/60 147/137/60
f 145/131/60 147/137/60 148/131/60
f 153/132/62 151/138/62 154/133/62
f 140/139/60 153/132/60 144/132/60
f 144/132/63 154/133/63 143/133/63
f 139/129/58 152/127/58 140/127/58
f 155/137/63 157/133/63 156/131/63
f 147/137/59 156/131/59 148/131/59
f 149/133/62 158/132/62 150/132/62
f 148/131/61 157/133/61 149/133/61
f 140/127/58 142/130/58 141/128/58
f 142/130/59 146/137/59 145/131/59
f 144/132/60 143/133/60 149/133/60
f 143/133/61 154/133/61 151/134/61
f 145/131/61 143/133/61 139/134/61
f 142/136/60 140/139/60 144/132/60
f 150/132/60 158/132/60 155/137/60
f 143/133/60 145/131/60 148/131/60
f 146/137/60 144/132/60 150/132/60
f 145/131/60 146/137/60 147/137/60
f 153/132/62 152/140/62 151/138/62
f 140/139/60 152/139/60 153/132/60
f 144/132/63 153/132/63 154/133/63
f 139/129/58 151/129/58 152/127/58
f 155/137/63 158/132/63 157/133/63
f 147/137/59 155/137/59 156/131/59
f 149/133/62 157/133/62 158/132/62
f 148/131/61 156/131/61 157/133/61
