# Blender 4.2.2 LTS
# www.blender.org
o Pool
v 4.000000 -0.250000 -7.000000
v 4.000000 -4.250000 -7.000000
v 4.000000 -0.250000 7.000000
v 4.000000 -4.250000 7.000000
v -4.000000 -0.250000 -7.000000
v -4.000000 -4.250000 -7.000000
v -4.000000 -0.250000 7.000000
v -4.000000 -4.250000 7.000000
v 4.000000 -0.250000 7.000000
v -4.000000 -0.250000 7.000000
v 4.000000 -0.250000 -7.000000
v -4.000000 -0.250000 -7.000000
v 4.000000 -0.250000 7.000000
v -4.000000 -0.250000 7.000000
v 4.000000 -0.250000 -7.000000
v -4.000000 -0.250000 -7.000000
v 4.000000 -0.250000 7.000000
v -4.000000 -0.250000 7.000000
v 4.000000 -0.250000 -7.000000
v -4.000000 -0.250000 -7.000000
v 4.000000 -0.250000 7.000000
v -4.000000 -0.250000 7.000000
v 4.000000 -0.250000 -7.000000
v -4.000000 -0.250000 -7.000000
v 4.000000 -0.250000 7.000000
v -4.000000 -0.250000 7.000000
v 4.000000 -0.250000 -7.000000
v -4.000000 -0.250000 -7.000000
v 4.000000 -0.250000 7.000000
v -4.000000 -0.250000 7.000000
v 4.000000 -0.250000 -7.000000
v -4.000000 -0.250000 -7.000000
v 4.000000 -4.199281 7.000000
v -4.000000 -4.199281 7.000000
v 4.000000 -4.199281 -7.000000
v -4.000000 -4.199281 -7.000000
vn -0.0000 -0.0000 1.0000
vn -1.0000 -0.0000 -0.0000
vn -0.0000 -1.0000 -0.0000
vn 1.0000 -0.0000 -0.0000
vn -0.0000 -0.0000 -1.0000
vn -0.0000 1.0000 -0.0000
vt 0.875000 0.500000
vt 0.625000 0.500000
vt 0.625000 0.750000
vt 0.375000 1.000000
vt 0.375000 0.750000
vt 0.625000 0.000000
vt 0.375000 0.250000
vt 0.375000 0.000000
vt 0.375000 0.500000
vt 0.125000 0.750000
vt 0.125000 0.500000
vt 0.625000 0.250000
vt 0.875000 0.750000
vt 0.625000 1.000000
s 0
f 5/1/1 35/2/1 1/2/1
f 9/3/1 8/4/1 4/5/1
f 10/6/2 6/7/2 8/8/2
f 2/9/3 8/10/3 6/11/3
f 11/2/4 4/5/4 2/9/4
f 12/12/5 2/9/5 6/7/5
f 13/3/6 10/13/6 9/3/6
f 15/2/6 9/3/6 11/2/6
f 14/13/6 12/1/6 10/13/6
f 16/1/6 11/2/6 12/1/6
f 17/3/6 14/13/6 13/3/6
f 19/2/6 13/3/6 15/2/6
f 18/13/6 16/1/6 14/13/6
f 20/1/6 15/2/6 16/1/6
f 21/3/6 18/13/6 17/3/6
f 23/2/6 17/3/6 19/2/6
f 22/13/6 20/1/6 18/13/6
f 24/1/6 19/2/6 20/1/6
f 25/3/6 22/13/6 21/3/6
f 27/2/6 21/3/6 23/2/6
f 26/13/6 24/1/6 22/13/6
f 28/1/6 23/2/6 24/1/6
f 29/3/6 26/13/6 25/3/6
f 31/2/6 25/3/6 27/2/6
f 30/13/6 28/1/6 26/13/6
f 32/1/6 27/2/6 28/1/6
f 3/3/6 30/13/6 29/3/6
f 1/2/6 29/3/6 31/2/6
f 7/13/6 32/1/6 30/13/6
f 5/1/6 31/2/6 32/1/6
f 36/1/6 33/3/6 35/2/6
f 1/2/2 33/3/2 3/3/2
f 7/13/4 36/1/4 5/1/4
f 3/3/5 34/13/5 7/13/5
f 5/1/1 36/1/1 35/2/1
f 9/3/1 10/14/1 8/4/1
f 10/6/2 12/12/2 6/7/2
f 2/9/3 4/5/3 8/10/3
f 11/2/4 9/3/4 4/5/4
f 12/12/5 11/2/5 2/9/5
f 13/3/6 14/13/6 10/13/6
f 15/2/6 13/3/6 9/3/6
f 14/13/6 16/1/6 12/1/6
f 16/1/6 15/2/6 11/2/6
f 17/3/6 18/13/6 14/13/6
f 19/2/6 17/3/6 13/3/6
f 18/13/6 20/1/6 16/1/6
f 20/1/6 19/2/6 15/2/6
f 21/3/6 22/13/6 18/13/6
f 23/2/6 21/3/6 17/3/6
f 22/13/6 24/1/6 20/1/6
f 24/1/6 23/2/6 19/2/6
f 25/3/6 26/13/6 22/13/6
f 27/2/6 25/3/6 21/3/6
f 26/13/6 28/1/6 24/1/6
f 28/1/6 27/2/6 23/2/6
f 29/3/6 30/13/6 26/13/6
f 31/2/6 29/3/6 25/3/6
f 30/13/6 32/1/6 28/1/6
f 32/1/6 31/2/6 27/2/6
f 3/3/6 7/13/6 30/13/6
f 1/2/6 3/3/6 29/3/6
f 7/13/6 5/1/6 32/1/6
f 5/1/6 1/2/6 31/2/6
f 36/1/6 34/13/6 33/3/6
f 1/2/2 35/2/2 33/3/2
f 7/13/4 34/13/4 36/1/4
f 3/3/5 33/3/5 34/13/5
