# Blender v3.0.1 OBJ File: ''
# www.blender.org
mtllib valve_turnable_mesh.mtl
o Cube.001
v -0.002002 -0.044941 -0.011415
v -0.002002 -0.044941 0.011414
v -0.002002 -0.089883 0.011414
v -0.002002 -0.089883 -0.011415
v -0.024831 -0.089883 0.011414
v -0.024831 0.044941 -0.011415
v -0.024831 0.044941 0.011414
v -0.024831 0.089883 0.011414
v -0.024831 0.089883 -0.011415
v -0.002002 0.089883 0.011414
v -0.002002 0.044941 0.011414
v -0.002002 0.044941 -0.011415
v -0.002002 -0.022471 -0.011415
v -0.024831 -0.022471 -0.011415
v -0.024831 -0.000000 -0.011415
v -0.024831 -0.022471 0.011414
v -0.002002 -0.022471 0.011414
v -0.002002 -0.000000 0.011414
v -0.024831 -0.044941 -0.011415
v -0.078071 -0.044941 -0.011415
v -0.002002 0.022471 -0.011415
v -0.002002 0.022471 0.011414
v -0.002002 0.089883 -0.011415
v -0.024831 0.022471 -0.011415
v -0.024831 0.022471 0.011414
v -0.078071 0.022471 -0.011415
v -0.024831 -0.000000 0.011414
v -0.078071 0.022471 0.011414
v -0.002002 -0.000000 -0.011415
v -0.024831 -0.089883 -0.011415
v -0.024831 -0.044941 0.011414
v -0.078071 -0.000000 -0.011415
v -0.078071 -0.022471 -0.011415
v -0.078071 -0.022471 0.011414
v -0.078071 -0.000000 0.011414
v -0.078071 0.044941 0.011414
v -0.078071 -0.044941 0.011414
v -0.078071 0.044941 -0.011415
vt 0.625000 0.187500
vt 0.375000 0.187500
vt 0.375000 0.250000
vt 0.625000 0.250000
vt 0.375000 0.500000
vt 0.625000 0.687500
vt 0.375000 0.687500
vt 0.375000 0.750000
vt 0.625000 0.750000
vt 0.375000 1.000000
vt 0.125000 0.687500
vt 0.125000 0.750000
vt 0.875000 0.687500
vt 0.875000 0.593750
vt 0.625000 0.593750
vt 0.625000 0.625000
vt 0.375000 0.593750
vt 0.125000 0.593750
vt 0.125000 0.625000
vt 0.625000 0.562500
vt 0.625000 0.562500
vt 0.625000 0.093750
vt 0.375000 0.093750
vt 0.375000 0.125000
vt 0.625000 0.000000
vt 0.375000 0.000000
vt 0.375000 0.062500
vt 0.875000 0.656250
vt 0.625000 0.656250
vt 0.375000 0.656250
vt 0.125000 0.656250
vt 0.625000 0.656250
vt 0.375000 0.625000
vt 0.375000 0.656250
vt 0.875000 0.625000
vt 0.625000 0.062500
vt 0.625000 0.500000
vt 0.375000 0.562500
vt 0.125000 0.500000
vt 0.125000 0.562500
vt 0.875000 0.500000
vt 0.625000 0.156250
vt 0.375000 0.156250
vt 0.625000 0.125000
vt 0.625000 0.625000
vt 0.875000 0.562500
vt 0.625000 0.593750
vt 0.375000 0.593750
vt 0.375000 0.625000
vt 0.375000 0.687500
vt 0.375000 0.562500
vt 0.625000 0.687500
vt 0.625000 1.000000
vt 0.875000 0.750000
vn 1.0000 0.0000 0.0000
vn 0.0000 -1.0000 0.0000
vn -1.0000 -0.0000 0.0000
vn 0.0000 1.0000 0.0000
vn 0.0000 -0.0000 1.0000
vn 0.0000 0.0000 -1.0000
usemtl Default_OBJ.003
s 1
f 1/1/1 2/2/1 3/3/1
f 4/4/2 3/3/2 5/5/2
f 6/6/3 7/7/3 8/8/3
f 9/9/4 8/8/4 10/10/4
f 7/7/5 11/11/5 10/12/5
f 12/13/6 6/6/6 9/9/6
f 13/14/6 14/15/6 15/16/6
f 16/17/5 17/18/5 18/19/5
f 14/15/6 19/20/6 20/21/6
f 21/22/1 22/23/1 18/24/1
f 23/25/1 10/26/1 11/27/1
f 21/28/6 24/29/6 6/6/6
f 25/30/5 22/31/5 11/11/5
f 6/6/6 24/29/6 26/32/6
f 27/33/5 25/30/5 28/34/5
f 27/33/5 18/19/5 22/31/5
f 29/35/6 15/16/6 24/29/6
f 12/36/1 11/27/1 22/23/1
f 30/37/3 5/5/3 31/38/3
f 5/5/5 3/39/5 2/40/5
f 4/41/6 30/37/6 19/20/6
f 13/42/1 17/43/1 2/2/1
f 29/44/1 18/24/1 17/43/1
f 24/29/6 15/16/6 32/45/6
f 31/38/5 2/40/5 17/18/5
f 1/46/6 19/20/6 14/15/6
f 33/47/3 34/48/3 35/49/3
f 26/32/3 28/34/3 36/50/3
f 32/45/3 35/49/3 28/34/3
f 20/21/3 37/51/3 34/48/3
f 15/16/6 14/15/6 33/47/6
f 25/30/5 7/7/5 36/50/5
f 19/20/2 31/38/2 37/51/2
f 16/17/5 27/33/5 35/49/5
f 31/38/5 16/17/5 34/48/5
f 7/7/4 6/6/4 38/52/4
f 1/1/1 3/3/1 4/4/1
f 4/4/2 5/5/2 30/37/2
f 6/6/3 8/8/3 9/9/3
f 9/9/4 10/10/4 23/53/4
f 7/7/5 10/12/5 8/8/5
f 12/13/6 9/9/6 23/54/6
f 13/14/6 15/16/6 29/35/6
f 16/17/5 18/19/5 27/33/5
f 14/15/6 20/21/6 33/47/6
f 21/22/1 18/24/1 29/44/1
f 23/25/1 11/27/1 12/36/1
f 21/28/6 6/6/6 12/13/6
f 25/30/5 11/11/5 7/7/5
f 6/6/6 26/32/6 38/52/6
f 27/33/5 28/34/5 35/49/5
f 27/33/5 22/31/5 25/30/5
f 29/35/6 24/29/6 21/28/6
f 12/36/1 22/23/1 21/22/1
f 30/37/3 31/38/3 19/20/3
f 5/5/5 2/40/5 31/38/5
f 4/41/6 19/20/6 1/46/6
f 13/42/1 2/2/1 1/1/1
f 29/44/1 17/43/1 13/42/1
f 24/29/6 32/45/6 26/32/6
f 31/38/5 17/18/5 16/17/5
f 1/46/6 14/15/6 13/14/6
f 33/47/3 35/49/3 32/45/3
f 26/32/3 36/50/3 38/52/3
f 32/45/3 28/34/3 26/32/3
f 20/21/3 34/48/3 33/47/3
f 15/16/6 33/47/6 32/45/6
f 25/30/5 36/50/5 28/34/5
f 19/20/2 37/51/2 20/21/2
f 16/17/5 35/49/5 34/48/5
f 31/38/5 34/48/5 37/51/5
f 7/7/4 38/52/4 36/50/4
