# Blender 4.2.2 LTS
# www.blender.org
o Cube
v -0.036373 0.000439 0.009225
v -0.036373 0.025826 0.009225
v -0.036373 0.000439 -0.009225
v -0.036373 0.025826 -0.009225
v -0.006750 0.000439 0.009225
v -0.006750 0.025826 0.009225
v -0.006750 0.000439 -0.009225
v -0.006750 0.025826 -0.009225
v -0.036373 0.034975 0.009225
v -0.036373 0.034975 -0.009225
v -0.006750 0.034975 -0.009225
v -0.006750 0.034975 0.009225
v -0.006750 0.025826 0.024054
v -0.036373 0.025826 0.024054
v -0.006750 0.034975 0.024054
v -0.036373 0.034975 0.024054
v -0.036373 0.025826 -0.024391
v -0.006750 0.025826 -0.024391
v -0.036373 0.034975 -0.024391
v -0.006750 0.034975 -0.024391
v -0.002544 0.093210 0.010453
v -0.002544 0.093210 -0.010474
v 0.006448 0.093210 -0.010474
v 0.006448 0.093210 0.010453
v 0.006448 0.093210 0.010618
v -0.002544 0.093210 0.010618
v -0.002544 0.093210 -0.010298
v 0.006448 0.093210 -0.010298
vn -1.0000 -0.0000 -0.0000
vn -0.0000 -0.0000 -1.0000
vn 1.0000 -0.0000 -0.0000
vn -0.0000 -0.0000 1.0000
vn -0.0000 -1.0000 -0.0000
vn 0.9753 -0.2210 -0.0000
vn -0.0000 0.2352 -0.9719
vn -0.8647 0.5023 -0.0000
vn -0.0000 1.0000 -0.0000
vn -0.9753 0.2210 -0.0000
vn 0.8647 -0.5023 -0.0000
vn -0.0000 0.2248 0.9744
vt 0.625000 0.000000
vt 0.375000 0.250000
vt 0.375000 0.000000
vt 0.625000 0.250000
vt 0.375000 0.500000
vt 0.625000 0.500000
vt 0.375000 0.750000
vt 0.625000 0.750000
vt 0.375000 1.000000
vt 0.125000 0.750000
vt 0.125000 0.500000
vt 0.625000 1.000000
vt 0.875000 0.500000
vt 0.875000 0.750000
s 0
f 2/1/1 3/2/1 1/3/1
f 4/4/2 7/5/2 3/2/2
f 8/6/3 5/7/3 7/5/3
f 6/8/4 1/9/4 5/7/4
f 7/5/5 1/10/5 3/11/5
f 2/1/1 10/4/1 4/4/1
f 12/8/6 25/8/6 15/8/6
f 20/6/7 27/4/7 28/6/7
f 10/4/1 17/4/1 4/4/1
f 8/6/3 12/8/3 6/8/3
f 13/8/4 16/12/4 14/12/4
f 6/8/5 14/12/5 2/12/5
f 12/8/3 13/8/3 6/8/3
f 2/1/1 16/1/1 9/1/1
f 17/4/2 20/6/2 18/6/2
f 9/1/8 26/1/8 21/1/8
f 4/4/5 18/6/5 8/6/5
f 8/6/3 20/6/3 11/6/3
f 22/13/9 24/8/9 23/6/9
f 21/14/9 25/8/9 24/8/9
f 23/6/5 27/13/5 22/13/5
f 11/6/6 24/8/6 12/8/6
f 11/6/10 28/6/10 23/6/10
f 10/4/8 21/1/8 22/4/8
f 19/4/11 22/4/11 27/4/11
f 15/8/12 26/12/12 16/12/12
f 2/1/1 4/4/1 3/2/1
f 4/4/2 8/6/2 7/5/2
f 8/6/3 6/8/3 5/7/3
f 6/8/4 2/12/4 1/9/4
f 7/5/5 5/7/5 1/10/5
f 2/1/1 9/1/1 10/4/1
f 12/8/6 24/8/6 25/8/6
f 20/6/7 19/4/7 27/4/7
f 10/4/1 19/4/1 17/4/1
f 8/6/3 11/6/3 12/8/3
f 13/8/4 15/8/4 16/12/4
f 6/8/5 13/8/5 14/12/5
f 12/8/3 15/8/3 13/8/3
f 2/1/1 14/1/1 16/1/1
f 17/4/2 19/4/2 20/6/2
f 9/1/8 16/1/8 26/1/8
f 4/4/5 17/4/5 18/6/5
f 8/6/3 18/6/3 20/6/3
f 22/13/9 21/14/9 24/8/9
f 21/14/9 26/14/9 25/8/9
f 23/6/5 28/6/5 27/13/5
f 11/6/6 23/6/6 24/8/6
f 11/6/6 20/6/6 28/6/6
f 10/4/8 9/1/8 21/1/8
f 19/4/8 10/4/8 22/4/8
f 15/8/12 25/8/12 26/12/12
