# Blender 5.0.1
# www.blender.org
mtllib centered_collision.mtl
o back_plate
v -0.492729 -0.214750 0.175790
v -0.492729 -0.214750 -0.124210
v -0.487729 -0.214750 0.175790
v -0.487729 -0.214750 -0.124210
v -0.492729 0.214750 0.175790
v -0.492729 0.214750 -0.124210
v -0.487729 0.214750 0.175790
v -0.487729 0.214750 -0.124210
v -0.492729 -0.214750 -0.124210
v -0.487729 -0.214750 -0.124210
v -0.492729 0.214750 -0.124210
v -0.487729 0.214750 -0.124210
vn -0.0000 -1.0000 -0.0000
vn 1.0000 -0.0000 -0.0000
vn -0.0000 1.0000 -0.0000
vn -1.0000 -0.0000 -0.0000
vn -0.0000 -0.0000 1.0000
vn -0.0000 -0.0000 -1.0000
vt 0.625000 0.000000
vt 0.375000 0.250000
vt 0.375000 0.000000
vt 0.625000 0.250000
vt 0.375000 0.500000
vt 0.625000 0.500000
vt 0.375000 0.750000
vt 0.625000 0.750000
vt 0.375000 1.000000
vt 0.125000 0.750000
vt 0.125000 0.500000
vt 0.625000 1.000000
s 1
usemtl Plastic_-_Matte_(Red).005
f 2/1/1 3/2/1 1/3/1
f 4/4/2 7/5/2 3/2/2
f 8/6/3 5/7/3 7/5/3
f 6/8/4 1/9/4 5/7/4
f 7/5/5 1/10/5 3/11/5
s 0
f 6/8/5 12/6/5 11/8/5
s 1
f 2/1/1 4/4/1 3/2/1
f 4/4/2 8/6/2 7/5/2
f 8/6/3 6/8/3 5/7/3
f 6/8/4 2/12/4 1/9/4
f 7/5/5 5/7/5 1/10/5
s 0
f 2/12/4 11/8/4 9/12/5
f 8/6/4 10/4/4 12/6/6
f 4/4/5 9/1/5 10/4/5
s 1
f 10/4/6 11/8/6 12/6/6
s 0
f 6/8/5 8/6/5 12/6/5
f 2/12/4 6/8/6 11/8/4
f 8/6/4 4/4/5 10/4/4
f 4/4/5 2/1/5 9/1/5
s 1
f 10/4/6 9/1/6 11/8/6
o connection_back_front_plates
v -0.447813 0.215400 -0.178169
v -0.443983 0.215400 -0.174955
v -0.492808 0.215400 -0.124546
v -0.488978 0.215400 -0.121332
v -0.447813 -0.214600 -0.178169
v -0.443983 -0.214600 -0.174955
v -0.492808 -0.214600 -0.124546
v -0.488978 -0.214600 -0.121332
vn -0.0000 -1.0000 -0.0000
vn 0.6428 -0.0000 -0.7660
vn -0.0000 1.0000 -0.0000
vn -0.6428 -0.0000 0.7660
vn 0.7660 -0.0000 0.6428
vn -0.7660 -0.0000 -0.6428
vt 0.375000 0.000000
vt 0.625000 0.250000
vt 0.375000 0.250000
vt 0.375000 0.500000
vt 0.625000 0.750000
vt 0.375000 0.750000
vt 0.375000 1.000000
vt 0.125000 0.750000
vt 0.125000 0.500000
vt 0.875000 0.500000
vt 0.625000 0.500000
vt 0.625000 0.000000
vt 0.625000 1.000000
vt 0.875000 0.750000
s 1
usemtl Plastic_-_Matte_(Red).005
f 13/13/7 16/14/7 15/15/7
f 16/14/8 19/16/8 15/15/8
f 19/16/9 18/17/9 17/18/9
f 18/17/10 13/19/10 17/18/10
f 19/16/11 13/20/11 15/21/11
f 16/22/12 18/17/12 20/23/12
f 13/13/7 14/24/7 16/14/7
f 16/14/8 20/23/8 19/16/8
f 19/16/9 20/23/9 18/17/9
f 18/17/10 14/25/10 13/19/10
f 19/16/11 17/18/11 13/20/11
f 16/22/12 14/26/12 18/17/12
o elhouse
v -0.244635 0.200000 -0.086403
v -0.244635 0.200000 0.138597
v 0.255365 0.200000 -0.086403
v 0.255365 0.200000 0.138597
v -0.244635 -0.200000 -0.086403
v -0.244635 -0.200000 0.138597
v 0.255365 -0.200000 -0.086403
v 0.255365 -0.200000 0.138597
vn -0.0000 1.0000 -0.0000
vn 1.0000 -0.0000 -0.0000
vn -0.0000 -1.0000 -0.0000
vn -1.0000 -0.0000 -0.0000
vn -0.0000 -0.0000 -1.0000
vn -0.0000 -0.0000 1.0000
vt 0.625000 0.000000
vt 0.375000 0.250000
vt 0.375000 0.000000
vt 0.625000 0.250000
vt 0.375000 0.500000
vt 0.625000 0.500000
vt 0.375000 0.750000
vt 0.625000 0.750000
vt 0.375000 1.000000
vt 0.125000 0.750000
vt 0.125000 0.500000
vt 0.875000 0.500000
vt 0.625000 1.000000
vt 0.875000 0.750000
s 1
usemtl Plastic_-_Matte_(Red).005
f 22/27/13 23/28/13 21/29/13
f 24/30/14 27/31/14 23/28/14
f 28/32/15 25/33/15 27/31/15
f 26/34/16 21/35/16 25/33/16
f 27/31/17 21/36/17 23/37/17
f 24/38/18 26/34/18 28/32/18
f 22/27/13 24/30/13 23/28/13
f 24/30/14 28/32/14 27/31/14
f 28/32/15 26/34/15 25/33/15
f 26/34/16 22/39/16 21/35/16
f 27/31/17 25/33/17 21/36/17
f 24/38/18 22/40/18 26/34/18
o left_panel
v -0.435134 0.214500 -0.235638
v -0.435134 0.214500 0.244362
v 0.404866 0.214500 -0.235638
v 0.404866 0.214500 0.244362
v -0.435134 0.209500 -0.235638
v -0.435134 0.209500 0.244362
v 0.404866 0.209500 -0.235638
v 0.404866 0.209500 0.244362
vn -0.0000 1.0000 -0.0000
vn 1.0000 -0.0000 -0.0000
vn -0.0000 -1.0000 -0.0000
vn -1.0000 -0.0000 -0.0000
vn -0.0000 -0.0000 -1.0000
vn -0.0000 -0.0000 1.0000
vt 0.625000 0.000000
vt 0.375000 0.250000
vt 0.375000 0.000000
vt 0.625000 0.250000
vt 0.375000 0.500000
vt 0.625000 0.750000
vt 0.375000 0.750000
vt 0.375000 1.000000
vt 0.125000 0.750000
vt 0.125000 0.500000
vt 0.875000 0.500000
vt 0.625000 0.500000
vt 0.625000 1.000000
vt 0.875000 0.750000
s 1
usemtl Plastic_-_Matte_(Red).005
f 30/41/19 31/42/19 29/43/19
f 32/44/20 35/45/20 31/42/20
f 35/45/21 34/46/21 33/47/21
f 34/46/22 29/48/22 33/47/22
f 35/45/23 29/49/23 31/50/23
f 32/51/24 34/46/24 36/52/24
f 30/41/19 32/44/19 31/42/19
f 32/44/20 36/52/20 35/45/20
f 35/45/21 36/52/21 34/46/21
f 34/46/22 30/53/22 29/48/22
f 35/45/23 33/47/23 29/49/23
f 32/51/24 30/54/24 34/46/24
o right_panel
v -0.435134 -0.209499 -0.235638
v -0.435134 -0.209499 0.244362
v 0.404866 -0.209499 -0.235638
v 0.404866 -0.209499 0.244362
v -0.435134 -0.214499 -0.235638
v -0.435134 -0.214499 0.244362
v 0.404866 -0.214499 -0.235638
v 0.404866 -0.214499 0.244362
vn -0.0000 1.0000 -0.0000
vn 1.0000 -0.0000 -0.0000
vn -0.0000 -1.0000 -0.0000
vn -1.0000 -0.0000 -0.0000
vn -0.0000 -0.0000 -1.0000
vn -0.0000 -0.0000 1.0000
vt 0.625000 0.000000
vt 0.375000 0.250000
vt 0.375000 0.000000
vt 0.625000 0.250000
vt 0.375000 0.500000
vt 0.625000 0.750000
vt 0.375000 0.750000
vt 0.375000 1.000000
vt 0.125000 0.750000
vt 0.125000 0.500000
vt 0.875000 0.500000
vt 0.625000 0.500000
vt 0.625000 1.000000
vt 0.875000 0.750000
s 1
usemtl Plastic_-_Matte_(Red).005
f 38/55/25 39/56/25 37/57/25
f 40/58/26 43/59/26 39/56/26
f 43/59/27 42/60/27 41/61/27
f 42/60/28 37/62/28 41/61/28
f 43/59/29 37/63/29 39/64/29
f 40/65/30 42/60/30 44/66/30
f 38/55/25 40/58/25 39/56/25
f 40/58/26 44/66/26 43/59/26
f 43/59/27 44/66/27 42/60/27
f 42/60/28 38/67/28 37/62/28
f 43/59/29 41/61/29 37/63/29
f 40/65/30 38/68/30 42/60/30
o top_plate
v -0.442599 -0.208500 -0.175566
v 0.157401 -0.208500 -0.175566
v -0.442599 -0.208500 -0.170566
v 0.157401 -0.208500 -0.170566
v -0.442599 0.208500 -0.175566
v 0.157401 0.208500 -0.175566
v -0.442599 0.208500 -0.170566
v 0.157401 0.208500 -0.170566
v -0.442599 -0.208500 -0.175566
v -0.442599 -0.208500 -0.170566
v -0.442599 0.208500 -0.175566
v -0.442599 0.208500 -0.170566
vn -0.0000 -1.0000 -0.0000
vn -0.0000 -0.0000 1.0000
vn -0.0000 1.0000 -0.0000
vn -0.0000 -0.0000 -1.0000
vn -0.0000 -0.0000 -0.0000
vn 1.0000 -0.0000 -0.0000
vn -1.0000 -0.0000 -0.0000
vt 0.625000 0.000000
vt 0.375000 0.250000
vt 0.375000 0.000000
vt 0.625000 0.250000
vt 0.375000 0.500000
vt 0.625000 0.500000
vt 0.375000 0.750000
vt 0.625000 0.750000
vt 0.375000 1.000000
vt 0.875000 0.500000
vt 0.625000 1.000000
vt 0.875000 0.750000
s 1
usemtl Plastic_-_Matte_(Red).005
f 46/69/31 47/70/31 45/71/31
f 48/72/32 51/73/32 47/70/32
f 52/74/33 49/75/33 51/73/33
f 50/76/34 45/77/34 49/75/34
s 0
f 51/73/35 55/75/35 56/73/35
s 1
f 48/78/36 50/76/36 52/74/36
f 46/69/31 48/72/31 47/70/31
f 48/72/32 52/74/32 51/73/32
f 52/74/33 50/76/33 49/75/33
f 50/76/34 46/79/34 45/77/34
s 0
f 47/70/37 56/73/37 54/70/32
s 1
f 48/78/36 46/80/36 50/76/36
s 0
f 45/71/35 54/70/35 53/71/35
f 49/75/37 53/77/37 55/75/34
s 1
f 56/73/37 53/77/37 54/70/37
s 0
f 51/73/35 49/75/35 55/75/35
f 47/70/37 51/73/34 56/73/37
f 45/71/35 47/70/35 54/70/35
f 49/75/37 45/77/32 53/77/37
s 1
f 56/73/37 55/75/37 53/77/37
